<svg width="239" height="226" viewBox="0 0 239 226" fill="none" xmlns="http://www.w3.org/2000/svg">
<path opacity="0.1" fill-rule="evenodd" clip-rule="evenodd" d="M119.5 0.857422L237.426 86.5039L192.382 225.083H46.6171L1.57324 86.5039L119.5 0.857422Z" fill="#605BFF" stroke="#605BFF"/>
<path fill-rule="evenodd" clip-rule="evenodd" d="M119.501 18.5649L220.58 91.9762L181.971 210.758H57.0299L18.4209 91.9762L119.501 18.5649Z" stroke="#A7A4FF"/>
<path fill-rule="evenodd" clip-rule="evenodd" d="M119.501 36.271L203.734 97.4471L171.559 196.432H67.4417L35.2676 97.4471L119.501 36.271Z" stroke="#A7A4FF"/>
<path fill-rule="evenodd" clip-rule="evenodd" d="M119.5 53.9785L186.886 102.919L161.147 182.107H77.8526L52.1133 102.919L119.5 53.9785Z" stroke="#A7A4FF"/>
<path fill-rule="evenodd" clip-rule="evenodd" d="M119.5 71.686L170.04 108.392L150.735 167.783H88.2645L68.96 108.392L119.5 71.686Z" stroke="#A7A4FF"/>
<path fill-rule="evenodd" clip-rule="evenodd" d="M119.501 89.3921L153.194 113.863L140.324 153.456H98.6773L85.8076 113.863L119.501 89.3921Z" stroke="#A7A4FF"/>
<path fill-rule="evenodd" clip-rule="evenodd" d="M119.501 107.1L136.348 119.335L129.913 139.132H109.089L102.654 119.335L119.501 107.1Z" stroke="#A7A4FF"/>
<path d="M119.5 124.806V0.857422" stroke="#A7A4FF"/>
<path d="M119.5 124.805L237.426 86.5029" stroke="#A7A4FF"/>
<path d="M119.5 124.806L192.382 225.082" stroke="#A7A4FF"/>
<path d="M119.5 124.806L46.6172 225.082" stroke="#A7A4FF"/>
<path d="M119.5 124.805L1.57324 86.5029" stroke="#A7A4FF"/>
</svg>
