<svg width="20" height="21" viewBox="0 0 20 21" fill="none" xmlns="http://www.w3.org/2000/svg">
<path fill-rule="evenodd" clip-rule="evenodd" d="M11.875 2.58333C11.875 2.52808 11.8531 2.47509 11.814 2.43602C11.7749 2.39695 11.7219 2.375 11.6667 2.375H5.83335C5.22557 2.375 4.64267 2.61644 4.2129 3.04621C3.78313 3.47598 3.54169 4.05888 3.54169 4.66667V16.3333C3.54169 16.9411 3.78313 17.524 4.2129 17.9538C4.64267 18.3836 5.22557 18.625 5.83335 18.625H14.1667C14.7745 18.625 15.3574 18.3836 15.7871 17.9538C16.2169 17.524 16.4584 16.9411 16.4584 16.3333V8.1225C16.4584 8.06725 16.4364 8.01426 16.3973 7.97519C16.3583 7.93612 16.3053 7.91417 16.25 7.91417H12.5C12.3343 7.91417 12.1753 7.84832 12.0581 7.73111C11.9409 7.6139 11.875 7.45493 11.875 7.28917V2.58333ZM12.5 10.7083C12.6658 10.7083 12.8248 10.7742 12.942 10.8914C13.0592 11.0086 13.125 11.1676 13.125 11.3333C13.125 11.4991 13.0592 11.6581 12.942 11.7753C12.8248 11.8925 12.6658 11.9583 12.5 11.9583H7.50002C7.33426 11.9583 7.17529 11.8925 7.05808 11.7753C6.94087 11.6581 6.87502 11.4991 6.87502 11.3333C6.87502 11.1676 6.94087 11.0086 7.05808 10.8914C7.17529 10.7742 7.33426 10.7083 7.50002 10.7083H12.5ZM12.5 14.0417C12.6658 14.0417 12.8248 14.1075 12.942 14.2247C13.0592 14.3419 13.125 14.5009 13.125 14.6667C13.125 14.8324 13.0592 14.9914 12.942 15.1086C12.8248 15.2258 12.6658 15.2917 12.5 15.2917H7.50002C7.33426 15.2917 7.17529 15.2258 7.05808 15.1086C6.94087 14.9914 6.87502 14.8324 6.87502 14.6667C6.87502 14.5009 6.94087 14.3419 7.05808 14.2247C7.17529 14.1075 7.33426 14.0417 7.50002 14.0417H12.5Z" fill="#605BFF"/>
<path d="M13.125 2.85322C13.125 2.69988 13.2858 2.60238 13.405 2.69822C13.5058 2.77988 13.5967 2.87488 13.6742 2.98322L16.185 6.48072C16.2417 6.56072 16.18 6.66405 16.0817 6.66405H13.3333C13.2781 6.66405 13.2251 6.6421 13.186 6.60303C13.1469 6.56396 13.125 6.51097 13.125 6.45572V2.85322Z" fill="#605BFF"/>
</svg>
