<svg width="20" height="21" viewBox="0 0 20 21" fill="none" xmlns="http://www.w3.org/2000/svg">
<path d="M14.0674 9.48734C14.0674 9.28143 13.9817 9.08395 13.8291 8.93834C13.6766 8.79274 13.4697 8.71094 13.254 8.71094H6.74697C6.53125 8.71094 6.32437 8.79274 6.17183 8.93834C6.01929 9.08395 5.93359 9.28143 5.93359 9.48734C5.93359 9.69326 6.01929 9.89074 6.17183 10.0363C6.32437 10.182 6.53125 10.2638 6.74697 10.2638H13.254C13.4697 10.2638 13.6766 10.182 13.8291 10.0363C13.9817 9.89074 14.0674 9.69326 14.0674 9.48734ZM14.0674 13.6282C14.0674 13.4223 13.9817 13.2248 13.8291 13.0792C13.6766 12.9336 13.4697 12.8518 13.254 12.8518H6.74697C6.53125 12.8518 6.32437 12.9336 6.17183 13.0792C6.01929 13.2248 5.93359 13.4223 5.93359 13.6282C5.93359 13.8341 6.01929 14.0316 6.17183 14.1772C6.32437 14.3228 6.53125 14.4046 6.74697 14.4046H13.254C13.4697 14.4046 13.6766 14.3228 13.8291 14.1772C13.9817 14.0316 14.0674 13.8341 14.0674 13.6282Z" fill="#8D8D8D"/>
<path fill-rule="evenodd" clip-rule="evenodd" d="M5.16129 1.125C4.45547 1.125 3.77856 1.40359 3.27947 1.89948C2.78038 2.39537 2.5 3.06794 2.5 3.76923V17.2308C2.5 17.9321 2.78038 18.6046 3.27947 19.1005C3.77856 19.5964 4.45547 19.875 5.16129 19.875H14.8387C15.5445 19.875 16.2214 19.5964 16.7205 19.1005C17.2196 18.6046 17.5 17.9321 17.5 17.2308V6.62308C17.5 6.25673 17.38 5.90096 17.1574 5.60865L14.2561 1.79327C14.0983 1.58569 13.8941 1.41731 13.6597 1.30135C13.4253 1.1854 13.167 1.12504 12.9052 1.125H5.16129ZM3.95161 3.76923C3.95161 3.10577 4.49355 2.56731 5.16129 2.56731H12.1774V6.79519C12.1774 7.19327 12.5026 7.51635 12.9032 7.51635H16.0484V17.2308C16.0484 17.8942 15.5065 18.4327 14.8387 18.4327H5.16129C4.49355 18.4327 3.95161 17.8942 3.95161 17.2308V3.76923Z" fill="#8D8D8D"/>
</svg>
