<svg width="17" height="18" viewBox="0 0 17 18" fill="none" xmlns="http://www.w3.org/2000/svg">
<path d="M0.53125 11.0187C0.672146 11.0187 0.807272 11.0746 0.906901 11.1743C1.00653 11.2739 1.0625 11.409 1.0625 11.5499V14.2062C1.0625 14.488 1.17444 14.7582 1.3737 14.9575C1.57296 15.1567 1.84321 15.2687 2.125 15.2687H14.875C15.1568 15.2687 15.427 15.1567 15.6263 14.9575C15.8256 14.7582 15.9375 14.488 15.9375 14.2062V11.5499C15.9375 11.409 15.9935 11.2739 16.0931 11.1743C16.1927 11.0746 16.3279 11.0187 16.4688 11.0187C16.6096 11.0187 16.7448 11.0746 16.8444 11.1743C16.944 11.2739 17 11.409 17 11.5499V14.2062C17 14.7698 16.7761 15.3103 16.3776 15.7088C15.9791 16.1073 15.4386 16.3312 14.875 16.3312H2.125C1.56141 16.3312 1.02091 16.1073 0.622398 15.7088C0.223883 15.3103 0 14.7698 0 14.2062V11.5499C0 11.409 0.0559708 11.2739 0.1556 11.1743C0.255228 11.0746 0.390354 11.0187 0.53125 11.0187Z" fill="#717171"/>
<path d="M8.12406 1.7176C8.17341 1.66812 8.23203 1.62887 8.29657 1.60209C8.36111 1.57531 8.43031 1.56152 8.50018 1.56152C8.57006 1.56152 8.63925 1.57531 8.70379 1.60209C8.76834 1.62887 8.82696 1.66812 8.87631 1.7176L12.0638 4.9051C12.1636 5.00485 12.2196 5.14015 12.2196 5.28122C12.2196 5.4223 12.1636 5.55759 12.0638 5.65735C11.9641 5.7571 11.8288 5.81314 11.6877 5.81314C11.5466 5.81314 11.4113 5.7571 11.3116 5.65735L9.03143 3.37616V12.7187C9.03143 12.8596 8.97546 12.9947 8.87583 13.0944C8.77621 13.194 8.64108 13.25 8.50018 13.25C8.35929 13.25 8.22416 13.194 8.12453 13.0944C8.0249 12.9947 7.96893 12.8596 7.96893 12.7187V3.37616L5.68881 5.65735C5.63941 5.70674 5.58078 5.74592 5.51624 5.77265C5.45171 5.79939 5.38254 5.81314 5.31268 5.81314C5.24283 5.81314 5.17366 5.79939 5.10913 5.77265C5.04459 5.74592 4.98595 5.70674 4.93656 5.65735C4.88716 5.60795 4.84798 5.54932 4.82125 5.48478C4.79452 5.42025 4.78076 5.35108 4.78076 5.28122C4.78076 5.21137 4.79452 5.1422 4.82125 5.07767C4.84798 5.01313 4.88716 4.95449 4.93656 4.9051L8.12406 1.7176Z" fill="#717171"/>
</svg>
