<svg width="20" height="20" viewBox="0 0 20 20" fill="none" xmlns="http://www.w3.org/2000/svg">
<path d="M18.1259 17.2421L13.4059 12.5221C14.5401 11.1604 15.1057 9.41389 14.985 7.64581C14.8643 5.87772 14.0666 4.22423 12.7579 3.02931C11.4491 1.83439 9.73008 1.19004 7.95834 1.23029C6.1866 1.27055 4.49859 1.99232 3.24545 3.24545C1.99232 4.49859 1.27055 6.1866 1.23029 7.95834C1.19004 9.73008 1.83439 11.4491 3.02931 12.7579C4.22423 14.0666 5.87772 14.8643 7.64581 14.985C9.41389 15.1057 11.1604 14.5401 12.5221 13.4059L17.2421 18.1259L18.1259 17.2421ZM2.50087 8.12587C2.50087 7.01335 2.83077 5.92581 3.44885 5.00078C4.06693 4.07576 4.94544 3.35479 5.97327 2.92904C7.00111 2.5033 8.13211 2.39191 9.22325 2.60895C10.3144 2.82599 11.3167 3.36172 12.1033 4.14839C12.89 4.93506 13.4257 5.93734 13.6428 7.02848C13.8598 8.11963 13.7484 9.25063 13.3227 10.2785C12.8969 11.3063 12.176 12.1848 11.2509 12.8029C10.3259 13.421 9.23839 13.7509 8.12587 13.7509C6.63453 13.7492 5.20475 13.156 4.15022 12.1015C3.09568 11.047 2.50252 9.6172 2.50087 8.12587Z" fill="#8D8D8D"/>
</svg>
