<svg width="303" height="158" viewBox="0 0 303 158" fill="none" xmlns="http://www.w3.org/2000/svg">
<mask id="path-1-inside-1_3_4637" fill="white">
<path d="M8.18895 151.747C3.71377 151.747 0.0636561 148.117 0.299404 143.648C1.19902 126.594 4.9346 109.799 11.3652 93.9849C18.8118 75.672 29.7264 59.0325 43.4859 45.0164C57.2453 31.0003 73.5802 19.8821 91.5578 12.2967C106.99 5.78509 123.374 1.98625 140.013 1.04115C144.564 0.782625 148.263 4.50254 148.263 9.06118V9.06118C148.263 13.6198 144.563 17.288 140.014 17.5782C125.505 18.5038 111.226 21.8665 97.7596 27.5483C81.7482 34.3042 67.1999 44.2064 54.9453 56.6895C42.6907 69.1727 32.9698 83.9924 26.3376 100.302C20.7216 114.114 17.4135 128.764 16.5316 143.649C16.267 148.116 12.6641 151.747 8.18895 151.747V151.747Z"/>
</mask>
<path d="M8.18895 151.747C3.71377 151.747 0.0636561 148.117 0.299404 143.648C1.19902 126.594 4.9346 109.799 11.3652 93.9849C18.8118 75.672 29.7264 59.0325 43.4859 45.0164C57.2453 31.0003 73.5802 19.8821 91.5578 12.2967C106.99 5.78509 123.374 1.98625 140.013 1.04115C144.564 0.782625 148.263 4.50254 148.263 9.06118V9.06118C148.263 13.6198 144.563 17.288 140.014 17.5782C125.505 18.5038 111.226 21.8665 97.7596 27.5483C81.7482 34.3042 67.1999 44.2064 54.9453 56.6895C42.6907 69.1727 32.9698 83.9924 26.3376 100.302C20.7216 114.114 17.4135 128.764 16.5316 143.649C16.267 148.116 12.6641 151.747 8.18895 151.747V151.747Z" stroke="#E63838" stroke-width="28.3966" stroke-linecap="round" stroke-linejoin="round" mask="url(#path-1-inside-1_3_4637)"/>
<mask id="path-2-inside-2_3_4637" fill="white">
<path d="M156.633 9.00876C156.812 4.54164 160.578 1.0412 165.03 1.44846C181.756 2.97843 198.105 7.23881 213.401 14.0531C217.549 15.9009 219.105 20.9 216.974 24.9097V24.9097C214.888 28.8344 210.047 30.3338 205.978 28.5448C192.805 22.7523 178.766 19.0804 164.403 17.6704C159.945 17.2327 156.454 13.4851 156.633 9.00876V9.00876Z"/>
</mask>
<path d="M156.633 9.00876C156.812 4.54164 160.578 1.0412 165.03 1.44846C181.756 2.97843 198.105 7.23881 213.401 14.0531C217.549 15.9009 219.105 20.9 216.974 24.9097V24.9097C214.888 28.8344 210.047 30.3338 205.978 28.5448C192.805 22.7523 178.766 19.0804 164.403 17.6704C159.945 17.2327 156.454 13.4851 156.633 9.00876V9.00876Z" stroke="#FF8F6B" stroke-width="28.3966" stroke-linecap="round" stroke-linejoin="round" mask="url(#path-2-inside-2_3_4637)"/>
<mask id="path-3-inside-3_3_4637" fill="white">
<path d="M224.317 28.6493C226.629 24.8529 231.573 23.5939 235.282 26.0436C246.616 33.5293 256.862 42.4907 265.74 52.6816C268.751 56.1384 268.032 61.3782 264.362 64.126V64.126C260.784 66.8054 255.737 66.1045 252.785 62.7475C245.223 54.1485 236.562 46.5439 227.017 40.1227C223.243 37.5838 221.951 32.5341 224.317 28.6493V28.6493Z"/>
</mask>
<path d="M224.317 28.6493C226.629 24.8529 231.573 23.5939 235.282 26.0436C246.616 33.5293 256.862 42.4907 265.74 52.6816C268.751 56.1384 268.032 61.3782 264.362 64.126V64.126C260.784 66.8054 255.737 66.1045 252.785 62.7475C245.223 54.1485 236.562 46.5439 227.017 40.1227C223.243 37.5838 221.951 32.5341 224.317 28.6493V28.6493Z" stroke="#FFD302" stroke-width="28.3966" stroke-linecap="round" stroke-linejoin="round" mask="url(#path-3-inside-3_3_4637)"/>
<mask id="path-4-inside-4_3_4637" fill="white">
<path d="M269.484 70.6512C273.219 68.1816 278.265 69.1502 280.594 72.9746C293.646 94.4163 300.966 118.753 301.871 143.713C302.036 148.266 298.245 151.887 293.69 151.798V151.798C289.13 151.708 285.534 147.933 285.337 143.376C284.404 121.851 278.116 100.874 267.023 82.2844C264.673 78.3453 265.658 73.1814 269.484 70.6512V70.6512Z"/>
</mask>
<path d="M269.484 70.6512C273.219 68.1816 278.265 69.1502 280.594 72.9746C293.646 94.4163 300.966 118.753 301.871 143.713C302.036 148.266 298.245 151.887 293.69 151.798V151.798C289.13 151.708 285.534 147.933 285.337 143.376C284.404 121.851 278.116 100.874 267.023 82.2844C264.673 78.3453 265.658 73.1814 269.484 70.6512V70.6512Z" stroke="url(#paint0_linear_3_4637)" stroke-width="28.3966" stroke-linecap="round" stroke-linejoin="round" mask="url(#path-4-inside-4_3_4637)"/>
<g filter="url(#filter0_d_3_4637)">
<circle cx="285.144" cy="102.322" r="15.3088" fill="white"/>
<circle cx="285.144" cy="102.322" r="11.8088" stroke="#7FE47E" stroke-width="7"/>
</g>
<defs>
<filter id="filter0_d_3_4637" x="261.835" y="87.0137" width="46.6177" height="46.6177" filterUnits="userSpaceOnUse" color-interpolation-filters="sRGB">
<feFlood flood-opacity="0" result="BackgroundImageFix"/>
<feColorMatrix in="SourceAlpha" type="matrix" values="0 0 0 0 0 0 0 0 0 0 0 0 0 0 0 0 0 0 127 0" result="hardAlpha"/>
<feOffset dy="8"/>
<feGaussianBlur stdDeviation="4"/>
<feComposite in2="hardAlpha" operator="out"/>
<feColorMatrix type="matrix" values="0 0 0 0 0.0509804 0 0 0 0 0.0392157 0 0 0 0 0.172549 0 0 0 0.08 0"/>
<feBlend mode="normal" in2="BackgroundImageFix" result="effect1_dropShadow_3_4637"/>
<feBlend mode="normal" in="SourceGraphic" in2="effect1_dropShadow_3_4637" result="shape"/>
</filter>
<linearGradient id="paint0_linear_3_4637" x1="151.026" y1="0.809326" x2="151.026" y2="297.163" gradientUnits="userSpaceOnUse">
<stop stop-color="#ABFFAA"/>
<stop offset="1" stop-color="#05C003"/>
</linearGradient>
</defs>
</svg>
