<svg width="128" height="43" viewBox="0 0 128 43" fill="none" xmlns="http://www.w3.org/2000/svg">
<g opacity="0.2" clip-path="url(#clip0_1_1395)">
<path d="M47.5676 11.7047H40.5717C40.093 11.7047 39.6859 12.0525 39.6112 12.525L36.7818 30.4643C36.7255 30.8183 36.9996 31.1374 37.3587 31.1374H40.6986C41.1773 31.1374 41.5845 30.7896 41.6591 30.316L42.4222 25.4775C42.4959 25.0039 42.904 24.6561 43.3818 24.6561H45.5964C50.2048 24.6561 52.8644 22.4261 53.559 18.007C53.872 16.0736 53.5723 14.5546 52.667 13.4907C51.6727 12.3225 49.9091 11.7047 47.5676 11.7047ZM48.3747 18.2566C47.9921 20.7669 46.0741 20.7669 44.2195 20.7669H43.1639L43.9045 16.0787C43.9485 15.7954 44.194 15.5867 44.4804 15.5867H44.9642C46.2276 15.5867 47.4193 15.5867 48.0351 16.3069C48.4023 16.7365 48.5149 17.3748 48.3747 18.2566Z" fill="white"/>
<path d="M68.4797 18.1758H65.1296C64.8442 18.1758 64.5977 18.3844 64.5537 18.6678L64.4054 19.6048L64.1711 19.2652C63.4458 18.2126 61.8286 17.8607 60.2144 17.8607C56.5124 17.8607 53.3505 20.6646 52.7347 24.5978C52.4145 26.5598 52.8697 28.4358 53.9826 29.7442C55.0035 30.9471 56.4643 31.4484 58.2023 31.4484C61.1851 31.4484 62.8392 29.5304 62.8392 29.5304L62.6899 30.4612C62.6336 30.8172 62.9078 31.1364 63.2648 31.1364H66.2824C66.7622 31.1364 67.1673 30.7886 67.243 30.315L69.0536 18.8488C69.1109 18.4959 68.8377 18.1758 68.4797 18.1758ZM63.81 24.696C63.4868 26.6099 61.9677 27.8947 60.0302 27.8947C59.0574 27.8947 58.28 27.5827 57.7808 26.9914C57.2857 26.4043 57.0975 25.5685 57.255 24.6377C57.5568 22.7401 59.1014 21.4134 61.0092 21.4134C61.9605 21.4134 62.7339 21.7294 63.2433 22.3258C63.7537 22.9283 63.9563 23.7692 63.81 24.696Z" fill="white"/>
<path d="M86.3218 18.1757H82.9553C82.6341 18.1757 82.3323 18.3353 82.1502 18.6023L77.5071 25.4416L75.539 18.8693C75.4152 18.458 75.0357 18.1757 74.6061 18.1757H71.2979C70.8959 18.1757 70.6166 18.5685 70.7445 18.947L74.4526 29.829L70.9664 34.7504C70.6923 35.1381 70.9685 35.671 71.4421 35.671H74.8045C75.1237 35.671 75.4224 35.5155 75.6034 35.2537L86.8005 19.0912C87.0685 18.7046 86.7934 18.1757 86.3218 18.1757Z" fill="white"/>
<path d="M97.468 11.7049H90.4711C89.9934 11.7049 89.5863 12.0527 89.5116 12.5253L86.6822 30.4646C86.6259 30.8185 86.9 31.1377 87.257 31.1377H90.8476C91.181 31.1377 91.4664 30.8942 91.5186 30.5628L92.3216 25.4777C92.3953 25.0041 92.8034 24.6563 93.2811 24.6563H95.4948C100.104 24.6563 102.763 22.4263 103.458 18.0072C103.772 16.0739 103.471 14.5548 102.565 13.4909C101.572 12.3227 99.8095 11.7049 97.468 11.7049ZM98.2751 18.2568C97.8936 20.7671 95.9756 20.7671 94.1199 20.7671H93.0653L93.8069 16.079C93.8509 15.7956 94.0944 15.5869 94.3818 15.5869H94.8657C96.128 15.5869 97.3207 15.5869 97.9365 16.3071C98.3038 16.7367 98.4153 17.375 98.2751 18.2568Z" fill="white"/>
<path d="M118.379 18.176H115.031C114.743 18.176 114.499 18.3847 114.456 18.668L114.308 19.605L114.072 19.2654C113.347 18.2128 111.731 17.8609 110.117 17.8609C106.415 17.8609 103.254 20.6648 102.638 24.598C102.319 26.56 102.772 28.4361 103.885 29.7444C104.908 30.9474 106.367 31.4486 108.105 31.4486C111.087 31.4486 112.742 29.5306 112.742 29.5306L112.592 30.4615C112.536 30.8175 112.81 31.1366 113.169 31.1366H116.186C116.664 31.1366 117.071 30.7888 117.145 30.3152L118.957 18.8491C119.012 18.4962 118.738 18.176 118.379 18.176ZM113.709 24.6962C113.388 26.6101 111.867 27.8949 109.93 27.8949C108.959 27.8949 108.179 27.5829 107.68 26.9917C107.185 26.4045 106.999 25.5688 107.154 24.6379C107.458 22.7403 109.001 21.4136 110.908 21.4136C111.86 21.4136 112.633 21.7297 113.143 22.326C113.655 22.9286 113.858 23.7694 113.709 24.6962Z" fill="white"/>
<path d="M122.328 12.1969L119.457 30.4645C119.401 30.8184 119.675 31.1376 120.032 31.1376H122.919C123.398 31.1376 123.806 30.7898 123.879 30.3162L126.711 12.3779C126.767 12.024 126.493 11.7038 126.136 11.7038H122.903C122.618 11.7048 122.372 11.9135 122.328 12.1969Z" fill="white"/>
<path d="M7.72917 34.6241L8.26417 31.2259L7.07244 31.1983H1.38184L5.33652 6.12302C5.34879 6.04733 5.38869 5.97674 5.44699 5.92662C5.5053 5.8765 5.57998 5.84888 5.65772 5.84888H15.2529C18.4383 5.84888 20.6366 6.51174 21.7843 7.82008C22.3224 8.43384 22.6651 9.07523 22.8308 9.78105C23.0047 10.5217 23.0078 11.4065 22.838 12.4857L22.8257 12.5645V13.256L23.3638 13.5608C23.8169 13.8012 24.177 14.0764 24.4532 14.3914C24.9135 14.9162 25.2112 15.5832 25.337 16.3739C25.4669 17.1871 25.424 18.1548 25.2112 19.2504C24.9657 20.5107 24.5688 21.6083 24.0328 22.5064C23.5397 23.334 22.9116 24.0204 22.1659 24.5523C21.4539 25.0576 20.608 25.4412 19.6515 25.6867C18.7247 25.9281 17.668 26.0499 16.5091 26.0499H15.7623C15.2283 26.0499 14.7097 26.2422 14.3026 26.5869C13.8944 26.9388 13.6244 27.4196 13.5415 27.9454L13.4852 28.2512L12.5401 34.2405L12.4971 34.4605C12.4858 34.53 12.4664 34.5648 12.4378 34.5883C12.4122 34.6098 12.3754 34.6241 12.3396 34.6241H7.72917Z" fill="white"/>
<path d="M23.8734 12.6433C23.8447 12.8264 23.812 13.0136 23.7752 13.2059C22.5098 19.7026 18.1807 21.9469 12.6517 21.9469H9.83659C9.16043 21.9469 8.59065 22.4379 8.48529 23.1049L7.04397 32.2459L6.63582 34.837C6.56728 35.2748 6.90485 35.6697 7.34676 35.6697H12.3397C12.931 35.6697 13.4332 35.24 13.5263 34.657L13.5754 34.4033L14.5155 28.4375L14.5759 28.1101C14.6679 27.525 15.1712 27.0954 15.7625 27.0954H16.5092C21.3467 27.0954 25.1336 25.1313 26.2404 19.4479C26.7028 17.0737 26.4634 15.0912 25.24 13.6969C24.8697 13.2765 24.4104 12.9277 23.8734 12.6433Z" fill="white"/>
<path d="M22.5497 12.1163C22.3564 12.06 22.1569 12.0089 21.9523 11.9629C21.7467 11.9178 21.536 11.8779 21.3191 11.8432C20.5601 11.7204 19.7285 11.6621 18.8375 11.6621H11.3168C11.1317 11.6621 10.9557 11.7041 10.7982 11.7797C10.4514 11.9465 10.1937 12.2748 10.1313 12.6769L8.53138 22.8101L8.48535 23.1057C8.59071 22.4388 9.16049 21.9478 9.83665 21.9478H12.6518C18.1808 21.9478 22.5098 19.7024 23.7752 13.2067C23.8131 13.0144 23.8448 12.8272 23.8734 12.6441C23.5532 12.4743 23.2065 12.3291 22.8331 12.2053C22.741 12.1746 22.6459 12.1449 22.5497 12.1163Z" fill="white"/>
<path d="M10.1314 12.6765C10.1938 12.2745 10.4516 11.9461 10.7984 11.7804C10.9569 11.7047 11.1318 11.6628 11.317 11.6628H18.8376C19.7286 11.6628 20.5603 11.7211 21.3193 11.8438C21.5361 11.8786 21.7469 11.9185 21.9525 11.9635C22.1571 12.0096 22.3565 12.0607 22.5499 12.117C22.646 12.1456 22.7412 12.1753 22.8342 12.2049C23.2076 12.3287 23.5544 12.475 23.8746 12.6438C24.251 10.2429 23.8715 8.60828 22.5734 7.12809C21.1423 5.49855 18.5594 4.8009 15.2543 4.8009H5.65911C4.98397 4.8009 4.40805 5.29191 4.30371 5.95989L0.307093 31.293C0.228327 31.7942 0.614997 32.2463 1.12033 32.2463H7.04417L8.53152 22.8097L10.1314 12.6765Z" fill="white"/>
</g>
<defs>
<clipPath id="clip0_1_1395">
<rect width="127.033" height="42.6404" fill="white" transform="translate(0.296875 0.359619)"/>
</clipPath>
</defs>
</svg>
