<svg width="87" height="38" viewBox="0 0 87 38" fill="none" xmlns="http://www.w3.org/2000/svg">
<path fill-rule="evenodd" clip-rule="evenodd" d="M53.7305 29.9304C48.6975 33.6437 41.4024 35.6249 35.1216 35.6249C26.3147 35.6249 18.3863 32.3645 12.3882 26.9417C11.917 26.5153 12.3392 25.9342 12.9047 26.2662C19.3779 30.0361 27.3817 32.3041 35.6494 32.3041C41.2252 32.3041 47.3591 31.1493 52.9991 28.7531C53.8511 28.3908 54.5636 29.3116 53.7305 29.9304Z" fill="#FF9900"/>
<path fill-rule="evenodd" clip-rule="evenodd" d="M55.8229 27.5342C55.182 26.7116 51.5703 27.1455 49.9492 27.338C49.4553 27.3984 49.3799 26.9682 49.8248 26.6587C52.7013 24.6323 57.4214 25.2172 57.9718 25.8964C58.5222 26.5795 57.8285 31.3154 55.1254 33.5758C54.7107 33.923 54.3149 33.7381 54.4996 33.2777C55.1066 31.7607 56.4676 28.3606 55.8229 27.5342Z" fill="#FF9900"/>
<path fill-rule="evenodd" clip-rule="evenodd" d="M50.0624 12.3529V10.383C50.0624 10.0849 50.2886 9.88491 50.5601 9.88491H59.3706C59.6534 9.88491 59.8796 10.0887 59.8796 10.383V12.0699C59.8758 12.3529 59.6383 12.7227 59.2161 13.3076L54.6505 19.8323C56.3471 19.7907 58.1378 20.0436 59.676 20.9115C60.0229 21.1077 60.1171 21.3945 60.1435 21.6776V23.7795C60.1435 24.0663 59.8268 24.4021 59.4951 24.2286C56.7844 22.8059 53.184 22.6512 50.1868 24.2437C49.8814 24.4097 49.561 24.0776 49.561 23.7908V21.7946C49.561 21.4738 49.5648 20.9266 49.8852 20.4398L55.1746 12.8472H50.5714C50.2886 12.8472 50.0624 12.6472 50.0624 12.3529Z" fill="black"/>
<path fill-rule="evenodd" clip-rule="evenodd" d="M17.9228 24.6437H15.2423C14.9859 24.6248 14.7824 24.4324 14.7635 24.1871V10.417C14.7635 10.1416 14.9935 9.92268 15.28 9.92268H17.7795C18.0397 9.93399 18.247 10.134 18.2659 10.3831V12.1831H18.3149C18.9671 10.4434 20.1924 9.63211 21.8436 9.63211C23.5213 9.63211 24.5694 10.4434 25.3234 12.1831C25.9718 10.4434 27.4459 9.63211 29.0256 9.63211C30.149 9.63211 31.3781 10.0963 32.1283 11.1378C32.9766 12.2963 32.8031 13.9793 32.8031 15.4548L32.7994 24.1456C32.7994 24.421 32.5694 24.6437 32.2829 24.6437H29.6062C29.3385 24.6248 29.1236 24.4097 29.1236 24.1456V16.8473C29.1236 16.2662 29.1764 14.8171 29.0482 14.2661C28.8484 13.3416 28.2489 13.0812 27.4723 13.0812C26.8239 13.0812 26.1453 13.5152 25.87 14.2095C25.5948 14.9039 25.6212 16.0662 25.6212 16.8473V24.1456C25.6212 24.421 25.3913 24.6437 25.1047 24.6437H22.428C22.1566 24.6248 21.9454 24.4097 21.9454 24.1456L21.9417 16.8473C21.9417 15.3114 22.1943 13.051 20.2904 13.051C18.3639 13.051 18.4393 15.2548 18.4393 16.8473V24.1456C18.4393 24.421 18.2093 24.6437 17.9228 24.6437Z" fill="black"/>
<path fill-rule="evenodd" clip-rule="evenodd" d="M67.4648 9.63211C71.4422 9.63211 73.5949 13.051 73.5949 17.3983C73.5949 21.5983 71.216 24.9305 67.4648 24.9305C63.559 24.9305 61.4327 21.5116 61.4327 17.2511C61.4327 12.9642 63.5854 9.63211 67.4648 9.63211ZM67.4874 12.4435C65.5119 12.4435 65.3875 15.1379 65.3875 16.8171C65.3875 18.5002 65.3611 22.0927 67.4648 22.0927C69.5421 22.0927 69.6401 19.1945 69.6401 17.4285C69.6401 16.2662 69.5911 14.8775 69.2405 13.7756C68.9389 12.8171 68.3395 12.4435 67.4874 12.4435Z" fill="black"/>
<path fill-rule="evenodd" clip-rule="evenodd" d="M78.7524 24.6437H76.0832C75.8155 24.6248 75.6007 24.4097 75.6007 24.1456L75.5969 10.3717C75.6195 10.1189 75.8419 9.92268 76.1134 9.92268H78.5978C78.8316 9.93399 79.0239 10.0925 79.0766 10.3076V12.4133H79.1256C79.8759 10.5302 80.9277 9.63211 82.7788 9.63211C83.9814 9.63211 85.1539 10.0661 85.9079 11.2548C86.6092 12.3567 86.6092 14.2095 86.6092 15.5416V24.2097C86.579 24.4512 86.3566 24.6437 86.0927 24.6437H83.4046C83.1596 24.6248 82.956 24.4437 82.9296 24.2097V16.7303C82.9296 15.2247 83.103 13.0208 81.2519 13.0208C80.5997 13.0208 80.0003 13.4586 79.7025 14.1227C79.3255 14.9643 79.2764 15.802 79.2764 16.7303V24.1456C79.2727 24.421 79.0389 24.6437 78.7524 24.6437Z" fill="black"/>
<path fill-rule="evenodd" clip-rule="evenodd" d="M43.0388 18.0662C43.0388 19.1115 43.0652 19.9832 42.5374 20.9115C42.1114 21.6663 41.4328 22.1304 40.6826 22.1304C39.6534 22.1304 39.0501 21.3455 39.0501 20.187C39.0501 17.9001 41.0973 17.485 43.0388 17.485V18.0662ZM45.742 24.6059C45.5648 24.7644 45.3084 24.7757 45.1086 24.6701C44.2189 23.9304 44.0568 23.587 43.5704 22.8814C42.1001 24.3833 41.0558 24.8323 39.1519 24.8323C36.8937 24.8323 35.1406 23.4399 35.1406 20.6511C35.1406 18.4737 36.3169 16.9907 37.9983 16.2662C39.4535 15.6246 41.4856 15.5114 43.0388 15.3341V14.9869C43.0388 14.3491 43.0879 13.5944 42.7109 13.0435C42.3866 12.5491 41.7608 12.3453 41.2066 12.3453C40.1849 12.3453 39.2763 12.8699 39.0539 13.9567C39.0087 14.1982 38.8315 14.4359 38.5864 14.4473L35.9889 14.168C35.7702 14.119 35.5252 13.9416 35.5893 13.6057C36.1849 10.451 39.0351 9.5 41.5836 9.5C42.888 9.5 44.5921 9.84718 45.6213 10.8359C46.9258 12.0548 46.8013 13.6812 46.8013 15.451V19.6323C46.8013 20.8889 47.3216 21.4398 47.8117 22.1191C47.9814 22.3606 48.0191 22.6512 47.8004 22.8323C47.2537 23.2889 46.2811 24.138 45.7457 24.6135L45.742 24.6059Z" fill="black"/>
<path fill-rule="evenodd" clip-rule="evenodd" d="M7.89823 18.0662C7.89823 19.1115 7.92462 19.9832 7.39681 20.9115C6.9708 21.6662 6.29596 22.1304 5.54195 22.1304C4.51273 22.1304 3.9133 21.3455 3.9133 20.187C3.9133 17.9001 5.96043 17.485 7.89823 17.485V18.0662ZM10.6013 24.6059C10.4242 24.7644 10.1678 24.7757 9.96798 24.6701C9.07825 23.9304 8.91991 23.587 8.4298 22.8814C6.95949 24.3833 5.91896 24.8323 4.01132 24.8323C1.75683 24.8323 0 23.4399 0 20.6511C0 18.4737 1.18002 16.9907 2.85769 16.2662C4.31292 15.6246 6.34497 15.5114 7.89823 15.3341V14.9869C7.89823 14.3491 7.94724 13.5944 7.57401 13.0435C7.24601 12.5491 6.62019 12.3453 6.06976 12.3453C5.04808 12.3453 4.13573 12.8699 3.9133 13.9567C3.86806 14.1982 3.69087 14.4359 3.44958 14.4473L0.848259 14.168C0.629596 14.1189 0.388313 13.9416 0.448634 13.6057C1.04807 10.451 3.89445 9.5 6.44299 9.5C7.74743 9.5 9.45148 9.84718 10.4807 10.8359C11.7851 12.0548 11.6607 13.6812 11.6607 15.451V19.6322C11.6607 20.8889 12.181 21.4398 12.6711 22.1191C12.8445 22.3606 12.8822 22.6512 12.6636 22.8323C12.1169 23.2889 11.1442 24.138 10.6089 24.6135L10.6013 24.6059Z" fill="black"/>
</svg>
