<svg width="94" height="41" viewBox="0 0 94 41" fill="none" xmlns="http://www.w3.org/2000/svg">
<path fill-rule="evenodd" clip-rule="evenodd" d="M58.0537 32.295C52.6157 36.3014 44.7337 38.439 37.9475 38.439C28.4321 38.439 19.8658 34.9212 13.385 29.0703C12.8759 28.6102 13.3321 27.9832 13.9431 28.3415C20.9371 32.409 29.5848 34.856 38.5178 34.856C44.5423 34.856 51.1697 33.6101 57.2634 31.0247C58.184 30.6338 58.9539 31.6273 58.0537 32.295Z" fill="#FF9900"/>
<path fill-rule="evenodd" clip-rule="evenodd" d="M60.3145 29.7096C59.622 28.822 55.7197 29.2902 53.9682 29.4979C53.4345 29.563 53.3531 29.0988 53.8337 28.765C56.9417 26.5785 62.0416 27.2096 62.6363 27.9425C63.231 28.6795 62.4815 33.7893 59.5609 36.2282C59.1128 36.6027 58.6851 36.4032 58.8847 35.9065C59.5405 34.2697 61.011 30.6013 60.3145 29.7096Z" fill="#FF9900"/>
<path fill-rule="evenodd" clip-rule="evenodd" d="M54.0904 13.3281V11.2027C54.0904 10.8811 54.3348 10.6653 54.6281 10.6653H64.1476C64.4531 10.6653 64.6975 10.8852 64.6975 11.2027V13.0227C64.6934 13.3281 64.4368 13.7271 63.9806 14.3582L59.0477 21.398C60.8807 21.3532 62.8156 21.626 64.4775 22.5624C64.8523 22.7742 64.9541 23.0836 64.9826 23.389V25.6568C64.9826 25.9663 64.6405 26.3286 64.282 26.1413C61.3533 24.6064 57.4632 24.4394 54.2248 26.1576C53.8949 26.3368 53.5487 25.9785 53.5487 25.669V23.5152C53.5487 23.1691 53.5527 22.5787 53.899 22.0535L59.6139 13.8615H54.6403C54.3348 13.8615 54.0904 13.6457 54.0904 13.3281Z" fill="black"/>
<path fill-rule="evenodd" clip-rule="evenodd" d="M19.3649 26.5892H16.4687C16.1917 26.5689 15.9717 26.3612 15.9514 26.0966V11.2394C15.9514 10.9422 16.1999 10.706 16.5094 10.706H19.2101C19.4911 10.7183 19.7152 10.9341 19.7355 11.2028V13.1449H19.7885C20.4932 11.2679 21.817 10.3925 23.6012 10.3925C25.4138 10.3925 26.5462 11.2679 27.3609 13.1449C28.0615 11.2679 29.6542 10.3925 31.361 10.3925C32.5748 10.3925 33.9027 10.8933 34.7134 12.0171C35.6299 13.2671 35.4425 15.083 35.4425 16.675L35.4384 26.0518C35.4384 26.349 35.1899 26.5892 34.8804 26.5892H31.9883C31.6991 26.5689 31.4669 26.3368 31.4669 26.0518V18.1774C31.4669 17.5504 31.5239 15.9869 31.3854 15.3924C31.1695 14.3949 30.5218 14.1139 29.6827 14.1139C28.9821 14.1139 28.2489 14.5822 27.9515 15.3313C27.6542 16.0805 27.6827 17.3346 27.6827 18.1774V26.0518C27.6827 26.349 27.4342 26.5892 27.1246 26.5892H24.2326C23.9393 26.5689 23.7112 26.3368 23.7112 26.0518L23.7071 18.1774C23.7071 16.5202 23.98 14.0814 21.923 14.0814C19.8415 14.0814 19.9229 16.4592 19.9229 18.1774V26.0518C19.9229 26.349 19.6744 26.5892 19.3649 26.5892Z" fill="black"/>
<path fill-rule="evenodd" clip-rule="evenodd" d="M72.893 10.3925C77.1904 10.3925 79.5163 14.0814 79.5163 18.7718C79.5163 23.3035 76.946 26.8987 72.893 26.8987C68.673 26.8987 66.3756 23.2098 66.3756 18.613C66.3756 13.9877 68.7015 10.3925 72.893 10.3925ZM72.9175 13.4259C70.783 13.4259 70.6486 16.333 70.6486 18.1448C70.6486 19.9607 70.6201 23.8369 72.893 23.8369C75.1374 23.8369 75.2434 20.7099 75.2434 18.8044C75.2434 17.5504 75.1904 16.052 74.8116 14.8631C74.4857 13.8289 73.838 13.4259 72.9175 13.4259Z" fill="black"/>
<path fill-rule="evenodd" clip-rule="evenodd" d="M85.0888 26.5892H82.2049C81.9157 26.5689 81.6835 26.3368 81.6835 26.0518L81.6794 11.1906C81.7038 10.9178 81.9442 10.706 82.2375 10.706H84.9218C85.1744 10.7183 85.3821 10.8893 85.4391 11.1213V13.3933H85.4921C86.3027 11.3616 87.4392 10.3925 89.4392 10.3925C90.7386 10.3925 92.0054 10.8608 92.8201 12.1433C93.5777 13.3322 93.5777 15.3313 93.5777 16.7686V26.121C93.5451 26.3816 93.3048 26.5892 93.0197 26.5892H90.1154C89.8506 26.5689 89.6306 26.3734 89.6021 26.121V18.0512C89.6021 16.4266 89.7895 14.0488 87.7895 14.0488C87.0848 14.0488 86.4371 14.5211 86.1153 15.2377C85.708 16.1457 85.655 17.0496 85.655 18.0512V26.0518C85.6509 26.349 85.3984 26.5892 85.0888 26.5892Z" fill="black"/>
<path fill-rule="evenodd" clip-rule="evenodd" d="M46.5017 19.4925C46.5017 20.6203 46.5303 21.5608 45.96 22.5624C45.4997 23.3767 44.7665 23.8776 43.9559 23.8776C42.8439 23.8776 42.1921 23.0307 42.1921 21.7807C42.1921 19.3133 44.404 18.8654 46.5017 18.8654V19.4925ZM49.4224 26.5485C49.2309 26.7195 48.9539 26.7317 48.738 26.6177C47.7767 25.8197 47.6016 25.4492 47.0761 24.6878C45.4875 26.3083 44.3591 26.7928 42.3021 26.7928C39.8621 26.7928 37.968 25.2904 37.968 22.2815C37.968 19.9322 39.2389 18.3321 41.0556 17.5503C42.628 16.8582 44.8235 16.736 46.5017 16.5447V16.1701C46.5017 15.482 46.5547 14.6677 46.1474 14.0732C45.7971 13.5398 45.1209 13.32 44.5221 13.32C43.4182 13.32 42.4365 13.8859 42.1962 15.0585C42.1473 15.3191 41.9559 15.5756 41.6911 15.5878L38.8845 15.2865C38.6483 15.2336 38.3835 15.0422 38.4528 14.6799C39.0963 11.276 42.1758 10.25 44.9294 10.25C46.3388 10.25 48.18 10.6246 49.292 11.6913C50.7014 13.0065 50.567 14.7613 50.567 16.6709V21.1822C50.567 22.538 51.1291 23.1325 51.6586 23.8653C51.8419 24.1259 51.8827 24.4394 51.6464 24.6349C51.0558 25.1275 50.0048 26.0436 49.4264 26.5566L49.4224 26.5485Z" fill="black"/>
<path fill-rule="evenodd" clip-rule="evenodd" d="M8.53372 19.4925C8.53372 20.6203 8.56223 21.5608 7.99196 22.5624C7.53167 23.3767 6.80253 23.8775 5.98786 23.8775C4.87583 23.8775 4.22816 23.0307 4.22816 21.7807C4.22816 19.3133 6.44 18.8654 8.53372 18.8654V19.4925ZM11.4543 26.5485C11.2629 26.7195 10.9859 26.7317 10.77 26.6177C9.80868 25.8197 9.6376 25.4492 9.10806 24.6878C7.51945 26.3083 6.3952 26.7928 4.33407 26.7928C1.89819 26.7928 0 25.2904 0 22.2815C0 19.9322 1.27497 18.3321 3.08762 17.5503C4.65994 16.8582 6.85549 16.736 8.53372 16.5446V16.1701C8.53372 15.482 8.58667 14.6677 8.18341 14.0732C7.82902 13.5398 7.15285 13.32 6.55813 13.32C5.45425 13.32 4.46849 13.8859 4.22816 15.0585C4.17928 15.3191 3.98783 15.5756 3.72714 15.5878L0.916509 15.2865C0.680253 15.2336 0.419557 15.0422 0.484731 14.6799C1.1324 11.276 4.20779 10.25 6.9614 10.25C8.37078 10.25 10.2119 10.6246 11.324 11.6913C12.7334 13.0065 12.5989 14.7613 12.5989 16.6709V21.1822C12.5989 22.538 13.1611 23.1324 13.6906 23.8653C13.878 24.1259 13.9187 24.4394 13.6825 24.6349C13.0918 25.1275 12.0409 26.0436 11.4625 26.5566L11.4543 26.5485Z" fill="black"/>
</svg>
