<svg width="72" height="43" viewBox="0 0 72 43" fill="none" xmlns="http://www.w3.org/2000/svg">
<g opacity="0.2" clip-path="url(#clip0_1_1393)">
<path fill-rule="evenodd" clip-rule="evenodd" d="M70.6801 23.2934C70.6801 18.2836 68.2535 14.3305 63.6155 14.3305C58.9579 14.3305 56.1399 18.2836 56.1399 23.2543C56.1399 29.1447 59.4667 32.1193 64.2417 32.1193C66.5705 32.1193 68.3317 31.5909 69.6625 30.8473V26.9333C68.3317 27.5987 66.8053 28.0097 64.8679 28.0097C62.9697 28.0097 61.2867 27.3443 61.0714 25.0351H70.641C70.641 24.7807 70.6801 23.7631 70.6801 23.2934ZM61.0127 21.4343C61.0127 19.2229 62.363 18.3032 63.5959 18.3032C64.7896 18.3032 66.0617 19.2229 66.0617 21.4343H61.0127Z" fill="white"/>
<path fill-rule="evenodd" clip-rule="evenodd" d="M48.5859 14.3305C46.6681 14.3305 45.4352 15.2307 44.7502 15.8569L44.4958 14.6436H40.1905V37.4618L45.0829 36.4246L45.1025 30.8864C45.807 31.3952 46.8442 32.1193 48.5663 32.1193C52.0693 32.1193 55.2591 29.3012 55.2591 23.0977C55.2395 17.4225 52.0106 14.3305 48.5859 14.3305ZM47.4117 27.814C46.2571 27.814 45.5722 27.403 45.1025 26.8942L45.0829 19.6339C45.5917 19.0664 46.2962 18.675 47.4117 18.675C49.1925 18.675 50.4254 20.6711 50.4254 23.2347C50.4254 25.857 49.2121 27.814 47.4117 27.814Z" fill="white"/>
<path fill-rule="evenodd" clip-rule="evenodd" d="M33.4585 13.1759L38.3705 12.1191V8.14648L33.4585 9.18367V13.1759Z" fill="white"/>
<path d="M38.3705 14.6632H33.4585V31.7866H38.3705V14.6632Z" fill="white"/>
<path fill-rule="evenodd" clip-rule="evenodd" d="M28.1941 16.1113L27.881 14.6632H23.6539V31.7865H28.5463V20.1818C29.7009 18.6749 31.6579 18.9489 32.2646 19.1642V14.6632C31.6383 14.4283 29.3487 13.9978 28.1941 16.1113Z" fill="white"/>
<path fill-rule="evenodd" clip-rule="evenodd" d="M18.4094 10.4165L13.6345 11.4342L13.6149 27.1094C13.6149 30.0057 15.7871 32.1388 18.6834 32.1388C20.2881 32.1388 21.4623 31.8452 22.1081 31.493V27.5203C21.4819 27.7748 18.3899 28.675 18.3899 25.7787V18.8315H22.1081V14.6631H18.3899L18.4094 10.4165Z" fill="white"/>
<path fill-rule="evenodd" clip-rule="evenodd" d="M5.1806 19.6339C5.1806 18.8707 5.80682 18.5771 6.84401 18.5771C8.3313 18.5771 10.21 19.0272 11.6973 19.8296V15.2307C10.073 14.5849 8.46829 14.3305 6.84401 14.3305C2.87139 14.3305 0.229492 16.4049 0.229492 19.8687C0.229492 25.2699 7.66593 24.4089 7.66593 26.7376C7.66593 27.6378 6.88315 27.9314 5.78725 27.9314C4.16298 27.9314 2.0886 27.266 0.444757 26.3658V31.0234C2.26473 31.8062 4.10427 32.1388 5.78725 32.1388C9.85773 32.1388 12.6562 30.1232 12.6562 26.6202C12.6366 20.7885 5.1806 21.8257 5.1806 19.6339Z" fill="white"/>
</g>
<defs>
<clipPath id="clip0_1_1393">
<rect width="71.0673" height="42.6404" fill="white" transform="translate(0.229492 0.359619)"/>
</clipPath>
</defs>
</svg>
