<svg width="89" height="35" viewBox="0 0 89 35" fill="none" xmlns="http://www.w3.org/2000/svg">
<path fill-rule="evenodd" clip-rule="evenodd" d="M86.1665 23.3183C86.2198 23.9524 86.7072 24.7594 87.5521 24.7594H88.0459C88.2378 24.7594 88.3947 24.5961 88.3947 24.3967V13.0904H88.3923C88.3827 12.8999 88.2314 12.7474 88.0459 12.7474H86.5153C86.3297 12.7474 86.1784 12.8999 86.1689 13.0904H86.1665V14.0091C85.2284 12.806 83.7496 12.3067 82.2668 12.3067C78.8957 12.3067 76.1631 15.1522 76.1631 18.6626C76.1631 22.1732 78.8957 25.0188 82.2668 25.0188C83.7496 25.0188 85.3662 24.4199 86.1665 23.3169V23.3183ZM82.2723 22.7943C80.1286 22.7943 78.3906 20.9446 78.3906 18.6626C78.3906 16.381 80.1286 14.5312 82.2723 14.5312C84.4169 14.5312 86.1545 16.381 86.1545 18.6626C86.1545 20.9446 84.4169 22.7943 82.2723 22.7943Z" fill="#0D0E10"/>
<path fill-rule="evenodd" clip-rule="evenodd" d="M74.227 17.8566C74.227 14.5587 72.2291 12.3339 69.043 12.3339C67.522 12.3339 66.2752 13.2497 65.8349 14.0364C65.7397 13.4213 65.4261 12.7747 64.4535 12.7747H63.9578C63.766 12.7747 63.6095 12.9382 63.6095 13.1376V23.3466C63.6095 23.3469 63.6095 23.3477 63.6095 23.3482V24.4448H63.6114C63.6214 24.635 63.7728 24.7877 63.9579 24.7877H65.4889C65.5123 24.7877 65.5354 24.7848 65.5576 24.7803C65.5677 24.7783 65.5771 24.7741 65.587 24.7712C65.5983 24.7676 65.6102 24.7648 65.621 24.7601C65.6347 24.7542 65.647 24.7464 65.6597 24.739C65.6659 24.735 65.6724 24.7323 65.6784 24.7281C65.6937 24.7179 65.7077 24.7055 65.7212 24.6929C65.7234 24.6906 65.7261 24.689 65.7283 24.6869C65.7435 24.6715 65.7575 24.6546 65.7697 24.6371C65.808 24.5823 65.8314 24.516 65.8353 24.4448H65.8373V17.7659C65.8373 15.9947 67.2163 14.5587 68.9174 14.5587C70.6184 14.5587 71.9975 15.9947 71.9975 17.7659L71.9988 23.3486L71.9992 23.3466C71.9992 23.3516 72 23.3566 72 23.3619V24.4448H72.002C72.0121 24.635 72.1634 24.7877 72.3484 24.7877H73.8795C73.9031 24.7877 73.9259 24.7848 73.9481 24.7803C73.9572 24.7786 73.9655 24.7748 73.9744 24.7722C73.9869 24.7684 73.9998 24.7652 74.0119 24.7601C74.0244 24.7547 74.0358 24.7472 74.0476 24.7402C74.0549 24.736 74.0624 24.7329 74.0694 24.7281C74.0835 24.7184 74.0964 24.7067 74.1092 24.6952C74.1124 24.6921 74.116 24.6898 74.119 24.6866C74.1336 24.672 74.1465 24.6563 74.1583 24.6398C74.1592 24.6386 74.1601 24.6376 74.161 24.6363C74.1988 24.582 74.2219 24.5165 74.2258 24.4457C74.2258 24.4452 74.226 24.4448 74.226 24.4448H74.2281L74.227 17.8566Z" fill="#0D0E10"/>
<path fill-rule="evenodd" clip-rule="evenodd" d="M58.283 23.3183C58.3365 23.9523 58.8239 24.7594 59.6684 24.7594H60.1624C60.354 24.7594 60.5108 24.5961 60.5108 24.3966V13.0904H60.5088C60.4988 12.8999 60.3473 12.7474 60.1624 12.7474H58.6315C58.4463 12.7474 58.2951 12.8999 58.2847 13.0904H58.283V14.0091C57.3449 12.806 55.866 12.3067 54.3829 12.3067C51.012 12.3067 48.2794 15.1522 48.2794 18.6626C48.2794 22.1732 51.012 25.0188 54.3829 25.0188C55.866 25.0188 57.4822 24.42 58.2828 23.3169L58.283 23.3183ZM54.3889 22.7943C52.2451 22.7943 50.507 20.9447 50.507 18.6626C50.507 16.381 52.2451 14.5312 54.3889 14.5312C56.5329 14.5312 58.2707 16.381 58.2707 18.6626C58.2707 20.9447 56.5329 22.7943 54.3889 22.7943Z" fill="#0D0E10"/>
<path fill-rule="evenodd" clip-rule="evenodd" d="M39.2258 21.699C40.2478 22.4363 41.3634 22.7944 42.4355 22.7944C43.4568 22.7944 44.5127 22.2431 44.5127 21.2834C44.5127 20.0022 42.2119 19.8029 40.7664 19.2913C39.3206 18.7797 38.0753 17.7221 38.0753 16.0095C38.0753 13.3889 40.3177 12.3065 42.4107 12.3065C43.7368 12.3065 45.105 12.7619 45.9921 13.4141C46.2975 13.6552 46.1115 13.9319 46.1115 13.9319L45.2647 15.1912C45.1696 15.3331 45.0031 15.4556 44.7643 15.3021C44.5254 15.1487 43.6876 14.5311 42.4107 14.5311C41.1337 14.5311 40.3645 15.1452 40.3645 15.9063C40.3645 16.819 41.3642 17.1061 42.5352 17.4172C44.5758 17.99 46.8019 18.6784 46.8019 21.2834C46.8019 23.5924 44.7278 25.0193 42.4355 25.0193C40.6984 25.0193 39.2194 24.5037 37.979 23.5558C37.7206 23.2865 37.9011 23.0365 37.9011 23.0365L38.7437 21.7835C38.9151 21.5493 39.1313 21.631 39.2258 21.699Z" fill="#0D0E10"/>
<path fill-rule="evenodd" clip-rule="evenodd" d="M33.3401 23.3183C33.3936 23.9523 33.881 24.7594 34.7254 24.7594H35.2196C35.4111 24.7594 35.568 24.5961 35.568 24.3966V13.0904H35.5659C35.5559 12.8999 35.4046 12.7474 35.2196 12.7474H33.6886C33.5034 12.7474 33.3522 12.8999 33.3419 13.0904H33.3401V14.0091C32.4021 12.806 30.9232 12.3067 29.4401 12.3067C26.0692 12.3067 23.3364 15.1522 23.3364 18.6626C23.3364 22.1732 26.0692 25.0188 29.4401 25.0188C30.9232 25.0188 32.5394 24.42 33.3398 23.3169L33.3401 23.3183ZM29.4461 22.7943C27.3022 22.7943 25.5641 20.9447 25.5641 18.6626C25.5641 16.381 27.3022 14.5312 29.4461 14.5312C31.59 14.5312 33.3278 16.381 33.3278 18.6626C33.3278 20.9447 31.59 22.7943 29.4461 22.7943Z" fill="#0D0E10"/>
<path fill-rule="evenodd" clip-rule="evenodd" d="M14.7793 19.0948C12.5108 19.0948 10.6717 21.0083 10.6717 23.3689C10.6717 25.7293 12.5108 27.6428 14.7793 27.6428C17.0478 27.6428 18.8869 25.7293 18.8869 23.3689C18.8869 21.0083 17.0478 19.0948 14.7793 19.0948ZM4.10755 19.0952C1.83903 19.0952 0 21.0083 0 23.3689C0 25.7293 1.83903 27.6428 4.10755 27.6428C6.37617 27.6428 8.2153 25.7293 8.2153 23.3689C8.2153 21.0083 6.37617 19.0952 4.10755 19.0952ZM13.5509 13.7523C13.5509 16.1129 11.712 18.0266 9.44343 18.0266C7.17483 18.0266 5.33589 16.1129 5.33589 13.7523C5.33589 11.3922 7.17483 9.47852 9.44343 9.47852C11.712 9.47852 13.5509 11.3922 13.5509 13.7523Z" fill="#F06A6A"/>
</svg>
