<svg width="115" height="45" viewBox="0 0 115 45" fill="none" xmlns="http://www.w3.org/2000/svg">
<path fill-rule="evenodd" clip-rule="evenodd" d="M111.339 29.9808C111.408 30.796 112.037 31.8336 113.129 31.8336H113.767C114.015 31.8336 114.218 31.6236 114.218 31.3672V16.8306H114.215C114.202 16.5857 114.007 16.3896 113.767 16.3896H111.789C111.55 16.3896 111.354 16.5857 111.342 16.8306H111.339V18.0118C110.127 16.465 108.216 15.823 106.3 15.823C101.944 15.823 98.413 19.4815 98.413 23.9948C98.413 28.5085 101.944 32.1671 106.3 32.1671C108.216 32.1671 110.305 31.3971 111.339 29.979V29.9808ZM106.307 29.3071C103.537 29.3071 101.291 26.9289 101.291 23.9948C101.291 21.0613 103.537 18.6831 106.307 18.6831C109.078 18.6831 111.323 21.0613 111.323 23.9948C111.323 26.9289 109.078 29.3071 106.307 29.3071Z" fill="#0D0E10"/>
<path fill-rule="evenodd" clip-rule="evenodd" d="M95.9112 22.9586C95.9112 18.7185 93.3297 15.858 89.2128 15.858C87.2475 15.858 85.6365 17.0355 85.0675 18.0469C84.9445 17.256 84.5393 16.4247 83.2826 16.4247H82.6421C82.3943 16.4247 82.192 16.6349 82.192 16.8913V30.0171C82.192 30.0176 82.192 30.0185 82.192 30.0192V31.4292H82.1945C82.2074 31.6736 82.403 31.87 82.6423 31.87H84.6205C84.6508 31.87 84.6805 31.8663 84.7092 31.8605C84.7223 31.8578 84.7344 31.8525 84.7472 31.8488C84.7619 31.8441 84.7772 31.8405 84.7912 31.8345C84.8088 31.827 84.8248 31.8168 84.8411 31.8073C84.8492 31.8022 84.8576 31.7987 84.8653 31.7934C84.8851 31.7802 84.9032 31.7643 84.9207 31.7481C84.9236 31.7451 84.927 31.7431 84.9298 31.7403C84.9495 31.7206 84.9675 31.6989 84.9833 31.6763C85.0328 31.6059 85.0631 31.5207 85.068 31.4292H85.0706V22.842C85.0706 20.5647 86.8525 18.7185 89.0505 18.7185C91.2485 18.7185 93.0305 20.5647 93.0305 22.842L93.0322 30.0197L93.0327 30.0171C93.0327 30.0235 93.0336 30.03 93.0336 30.0369V31.4292H93.0363C93.0494 31.6736 93.2448 31.87 93.4839 31.87H95.4623C95.4927 31.87 95.5223 31.8663 95.5509 31.8605C95.5626 31.8583 95.5734 31.8534 95.5849 31.8501C95.6011 31.8452 95.6178 31.841 95.6333 31.8345C95.6495 31.8276 95.6642 31.8179 95.6795 31.8089C95.6889 31.8035 95.6986 31.7996 95.7076 31.7934C95.7258 31.7809 95.7426 31.7659 95.759 31.7511C95.7632 31.7471 95.7679 31.7441 95.7718 31.74C95.7906 31.7213 95.8073 31.701 95.8225 31.6798C95.8237 31.6782 95.8249 31.6769 95.826 31.6754C95.8748 31.6056 95.9046 31.5213 95.9098 31.4303C95.9098 31.4297 95.91 31.4292 95.91 31.4292H95.9127L95.9112 22.9586Z" fill="#0D0E10"/>
<path fill-rule="evenodd" clip-rule="evenodd" d="M75.3095 29.9807C75.3786 30.7959 76.0084 31.8336 77.0996 31.8336H77.738C77.9854 31.8336 78.1881 31.6236 78.1881 31.3672V16.8306H78.1855C78.1726 16.5857 77.9769 16.3896 77.738 16.3896H75.7597C75.5205 16.3896 75.3251 16.5857 75.3117 16.8306H75.3095V18.0118C74.0973 16.465 72.1864 15.823 70.2701 15.823C65.9144 15.823 62.3835 19.4815 62.3835 23.9949C62.3835 28.5084 65.9144 32.1671 70.2701 32.1671C72.1864 32.1671 74.2748 31.3972 75.3092 29.9789L75.3095 29.9807ZM70.2778 29.307C67.5078 29.307 65.2619 26.929 65.2619 23.9949C65.2619 21.0613 67.5078 18.6831 70.2778 18.6831C73.0481 18.6831 75.2936 21.0613 75.2936 23.9949C75.2936 26.929 73.0481 29.307 70.2778 29.307Z" fill="#0D0E10"/>
<path fill-rule="evenodd" clip-rule="evenodd" d="M50.685 27.8988C52.0056 28.8468 53.4471 29.3072 54.8324 29.3072C56.152 29.3072 57.5164 28.5983 57.5164 27.3644C57.5164 25.7172 54.5435 25.4609 52.6757 24.8032C50.8075 24.1454 49.1984 22.7857 49.1984 20.5837C49.1984 17.2143 52.096 15.8228 54.8004 15.8228C56.5138 15.8228 58.2817 16.4082 59.4279 17.2468C59.8226 17.5568 59.5823 17.9126 59.5823 17.9126L58.4882 19.5317C58.3652 19.714 58.1501 19.8716 57.8415 19.6742C57.5328 19.477 56.4502 18.683 54.8004 18.683C53.1503 18.683 52.1564 19.4725 52.1564 20.4511C52.1564 21.6246 53.4482 21.9937 54.9612 22.3936C57.598 23.13 60.4743 24.0152 60.4743 27.3644C60.4743 30.3331 57.7943 32.1677 54.8324 32.1677C52.5878 32.1677 50.6768 31.5048 49.074 30.2861C48.7401 29.9399 48.9733 29.6184 48.9733 29.6184L50.0621 28.0075C50.2836 27.7063 50.5629 27.8114 50.685 27.8988Z" fill="#0D0E10"/>
<path fill-rule="evenodd" clip-rule="evenodd" d="M43.0799 29.9807C43.149 30.7959 43.7789 31.8336 44.8699 31.8336H45.5084C45.7559 31.8336 45.9587 31.6236 45.9587 31.3672V16.8306H45.9559C45.943 16.5857 45.7475 16.3896 45.5084 16.3896H43.5302C43.2909 16.3896 43.0955 16.5857 43.0823 16.8306H43.0799V18.0118C41.8678 16.465 39.9569 15.823 38.0406 15.823C33.6849 15.823 30.1538 19.4815 30.1538 23.9949C30.1538 28.5084 33.6849 32.1671 38.0406 32.1671C39.9569 32.1671 42.0452 31.3972 43.0796 29.9789L43.0799 29.9807ZM38.0483 29.307C35.2781 29.307 33.0323 26.929 33.0323 23.9949C33.0323 21.0613 35.2781 18.6831 38.0483 18.6831C40.8185 18.6831 43.064 21.0613 43.064 23.9949C43.064 26.929 40.8185 29.307 38.0483 29.307Z" fill="#0D0E10"/>
<path fill-rule="evenodd" clip-rule="evenodd" d="M19.0968 24.5503C16.1657 24.5503 13.7893 27.0105 13.7893 30.0456C13.7893 33.0804 16.1657 35.5406 19.0968 35.5406C22.0281 35.5406 24.4044 33.0804 24.4044 30.0456C24.4044 27.0105 22.0281 24.5503 19.0968 24.5503ZM5.30751 24.5509C2.37628 24.5509 0 27.0105 0 30.0456C0 33.0804 2.37628 35.5406 5.30751 35.5406C8.23887 35.5406 10.6153 33.0804 10.6153 30.0456C10.6153 27.0105 8.23887 24.5509 5.30751 24.5509ZM17.5096 17.6814C17.5096 20.7165 15.1335 23.1769 12.2022 23.1769C9.27085 23.1769 6.89469 20.7165 6.89469 17.6814C6.89469 14.647 9.27085 12.1865 12.2022 12.1865C15.1335 12.1865 17.5096 14.647 17.5096 17.6814Z" fill="#F06A6A"/>
</svg>
