<svg width="113" height="32" viewBox="0 0 113 32" fill="none" xmlns="http://www.w3.org/2000/svg">
<g clip-path="url(#clip0_3_3308)">
<path d="M4.09324 14.6886C4.05223 14.6322 3.99808 14.5879 3.936 14.56C3.87393 14.532 3.80604 14.5214 3.7389 14.529C3.67176 14.5367 3.60764 14.5624 3.55273 14.6037C3.49782 14.645 3.45399 14.7005 3.42546 14.7647L0.041713 21.8694C0.0108876 21.9341 -0.00366661 22.0061 -0.000567602 22.0784C0.0025314 22.1507 0.0231807 22.221 0.0594198 22.2826C0.0956588 22.3442 0.146285 22.395 0.206491 22.4303C0.266697 22.4655 0.334485 22.484 0.403419 22.484H5.11511C5.19058 22.4859 5.26493 22.4647 5.32913 22.423C5.39334 22.3813 5.44465 22.3209 5.47682 22.2492C6.49319 20.0437 5.87723 16.6902 4.09324 14.6886Z" fill="#1463FF"/>
<path d="M6.57517 8.22596C5.73203 9.58833 5.24069 11.1575 5.14935 12.7795C5.05802 14.4015 5.36983 16.0205 6.05418 17.4777L8.32574 22.2487C8.35932 22.3192 8.41095 22.3785 8.47484 22.42C8.53872 22.4615 8.61234 22.4834 8.68745 22.4835H13.3983C13.4672 22.4834 13.535 22.4649 13.5952 22.4297C13.6554 22.3944 13.7061 22.3436 13.7423 22.282C13.7785 22.2204 13.7992 22.1502 13.8023 22.0778C13.8054 22.0055 13.7908 21.9336 13.76 21.8688C13.76 21.8688 7.42232 8.55627 7.26304 8.2233C7.23155 8.15552 7.18251 8.09844 7.12153 8.0586C7.06056 8.01876 6.99012 7.99777 6.91831 7.99805C6.8465 7.99833 6.77621 8.01986 6.71552 8.06017C6.65483 8.10048 6.60618 8.15794 6.57517 8.22596V8.22596Z" fill="#1463FF"/>
<path d="M61.8311 13.9248C61.8311 15.684 62.6083 17.0808 65.6481 17.6974C67.4617 18.0973 67.8416 18.4047 67.8416 19.0396C67.8416 19.6562 67.4608 20.0554 66.1834 20.0554C64.6395 20.0262 63.1265 19.5963 61.7793 18.8039V21.6694C62.6948 22.1409 63.9036 22.667 66.149 22.667C69.3269 22.667 70.5878 21.1787 70.5878 18.9669L61.8311 13.9248ZM70.5878 18.9669C70.5878 16.8811 69.5342 15.9015 66.5635 15.2307C64.9228 14.8497 64.5255 14.469 64.5255 13.9248C64.5255 13.2362 65.1127 12.9454 66.2008 12.9454C67.5135 12.9454 68.8089 13.3625 70.0351 13.943V11.2041C68.8593 10.6421 67.5787 10.3633 66.2871 10.388C63.3509 10.388 61.8311 11.7301 61.8311 13.9248" fill="#1463FF"/>
<path d="M102.658 10.5681V22.4846H105.076V13.3976L106.095 15.8097L109.515 22.4846H112.555V10.5681H110.137V18.2585L109.221 16.0274L106.475 10.5681H102.658Z" fill="#1463FF"/>
<path d="M87.2803 10.5681H84.6377V22.4846H87.2803V10.5681Z" fill="#1463FF"/>
<path d="M81.5878 18.9669C81.5878 16.8811 80.5342 15.9015 77.5635 15.2307C75.9227 14.8497 75.5255 14.469 75.5255 13.9248C75.5255 13.2362 76.1127 12.9454 77.2008 12.9454C78.5135 12.9454 79.8089 13.3625 81.0351 13.943V11.2041C79.8593 10.6421 78.5787 10.3633 77.2871 10.388C74.3509 10.388 72.8311 11.7301 72.8311 13.9248C72.8311 15.684 73.6083 17.0808 76.6481 17.6974C78.4617 18.0973 78.8416 18.4047 78.8416 19.0396C78.8416 19.6562 78.4608 20.0554 77.1834 20.0554C75.6395 20.0262 74.1265 19.5963 72.7793 18.8039V21.6694C73.6948 22.1409 74.9036 22.667 77.149 22.667C80.3269 22.667 81.5878 21.1787 81.5878 18.9669" fill="#1463FF"/>
<path d="M41.3027 10.5681V22.4846H46.7342L47.5894 19.909H43.9624V10.5681H41.3027Z" fill="#1463FF"/>
<path d="M30.5723 10.5681V13.1435H33.5084V22.4846H36.1681V13.1435H39.3116V10.5681H30.5723Z" fill="#1463FF"/>
<path d="M26.7151 10.5681H23.2294L19.2725 22.4846H22.2943L22.8553 20.4776C24.2368 20.9036 25.7059 20.9036 27.0874 20.4776L27.6484 22.4846H30.6709L26.7151 10.5681ZM24.9722 18.3287C24.4799 18.3287 23.9902 18.2547 23.518 18.109L24.9722 12.9087L26.4264 18.1108C25.954 18.2559 25.4643 18.3293 24.9722 18.3287V18.3287Z" fill="#1463FF"/>
<path d="M56.0977 10.5681H52.6123L48.6553 22.4846H51.6777L52.2387 20.4776C53.6203 20.9036 55.0893 20.9036 56.4709 20.4776L57.0318 22.4846H60.0543L56.0977 10.5681ZM54.355 18.3287C53.8628 18.3287 53.3731 18.2547 52.9008 18.109L54.355 12.9087L55.8092 18.1108C55.3368 18.2559 54.8471 18.3293 54.355 18.3287Z" fill="#1463FF"/>
<path d="M96.8018 10.5681H93.3163L89.3594 22.4846H92.3818L92.9428 20.4776C94.3244 20.9036 95.7934 20.9036 97.175 20.4776L97.7359 22.4846H100.759L96.8018 10.5681ZM95.058 18.3287C94.5658 18.3287 94.0761 18.2547 93.6038 18.109L95.058 12.9087L96.5123 18.1108C96.0399 18.2559 95.5502 18.3293 95.058 18.3287V18.3287Z" fill="#1463FF"/>
</g>
<defs>
<clipPath id="clip0_3_3308">
<rect width="113" height="32" fill="white"/>
</clipPath>
</defs>
</svg>
