<svg width="80" height="35" viewBox="0 0 80 35" fill="none" xmlns="http://www.w3.org/2000/svg">
<path fill-rule="evenodd" clip-rule="evenodd" d="M49.4068 27.5676C44.7787 30.9877 38.0707 32.8125 32.2951 32.8125C24.1969 32.8125 16.9064 29.8095 11.3909 24.8148C10.9576 24.4221 11.3458 23.8868 11.8658 24.1927C17.8182 27.6649 25.178 29.7538 32.7805 29.7538C37.9077 29.7538 43.548 28.6903 48.7342 26.4832C49.5177 26.1495 50.1729 26.9976 49.4068 27.5676Z" fill="#FF9900"/>
<path fill-rule="evenodd" clip-rule="evenodd" d="M51.3309 25.3606C50.7415 24.6028 47.4204 25.0025 45.9297 25.1798C45.4756 25.2354 45.4063 24.8392 45.8153 24.5542C48.4604 22.6877 52.8007 23.2265 53.3069 23.8521C53.813 24.4812 53.1751 28.8432 50.6895 30.9252C50.3082 31.245 49.9442 31.0747 50.114 30.6506C50.6722 29.2534 51.9237 26.1217 51.3309 25.3606Z" fill="#FF9900"/>
<path fill-rule="evenodd" clip-rule="evenodd" d="M46.0344 11.3777V9.56332C46.0344 9.28874 46.2424 9.10453 46.492 9.10453H54.5937C54.8537 9.10453 55.0617 9.29221 55.0617 9.56332V11.117C55.0582 11.3777 54.8398 11.7183 54.4516 12.257L50.2534 18.2666C51.8134 18.2283 53.4601 18.4612 54.8745 19.2606C55.1934 19.4413 55.2801 19.7055 55.3044 19.9662V21.9022C55.3044 22.1663 55.0132 22.4757 54.7081 22.3158C52.2155 21.0054 48.9048 20.8629 46.1488 22.3297C45.868 22.4826 45.5733 22.1767 45.5733 21.9126V20.0739C45.5733 19.7785 45.5768 19.2745 45.8715 18.8261L50.7352 11.833H46.5024C46.2424 11.833 46.0344 11.6488 46.0344 11.3777Z" fill="black"/>
<path fill-rule="evenodd" clip-rule="evenodd" d="M16.4807 22.6981H14.0159C13.7802 22.6807 13.593 22.5035 13.5756 22.2776V9.59463C13.5756 9.3409 13.7871 9.13931 14.0506 9.13931H16.349C16.5882 9.14973 16.7789 9.33395 16.7962 9.56335V11.2213H16.8413C17.441 9.61896 18.5677 8.87168 20.0861 8.87168C21.6288 8.87168 22.5925 9.61896 23.2859 11.2213C23.8821 9.61896 25.2376 8.87168 26.6902 8.87168C27.7233 8.87168 28.8534 9.29919 29.5433 10.2585C30.3233 11.3255 30.1638 12.8757 30.1638 14.2347L30.1603 22.2393C30.1603 22.4931 29.9489 22.6981 29.6854 22.6981H27.224C26.9779 22.6807 26.7803 22.4826 26.7803 22.2393V15.5173C26.7803 14.982 26.8288 13.6473 26.711 13.1399C26.5272 12.2883 25.976 12.0485 25.2619 12.0485C24.6656 12.0485 24.0416 12.4482 23.7885 13.0877C23.5355 13.7273 23.5597 14.7978 23.5597 15.5173V22.2393C23.5597 22.4931 23.3483 22.6981 23.0848 22.6981H20.6234C20.3738 22.6807 20.1797 22.4826 20.1797 22.2393L20.1762 15.5173C20.1762 14.1026 20.4085 12.0207 18.6578 12.0207C16.8863 12.0207 16.9557 14.0505 16.9557 15.5173V22.2393C16.9557 22.4931 16.7442 22.6981 16.4807 22.6981Z" fill="black"/>
<path fill-rule="evenodd" clip-rule="evenodd" d="M62.0366 8.87168C65.694 8.87168 67.6735 12.0207 67.6735 16.0247C67.6735 19.8932 65.486 22.9623 62.0366 22.9623C58.4451 22.9623 56.4899 19.8133 56.4899 15.8892C56.4899 11.9407 58.4694 8.87168 62.0366 8.87168ZM62.0574 11.4611C60.2409 11.4611 60.1264 13.9428 60.1264 15.4895C60.1264 17.0396 60.1022 20.3485 62.0366 20.3485C63.9468 20.3485 64.0369 17.6792 64.0369 16.0525C64.0369 14.982 63.9918 13.7029 63.6694 12.688C63.3921 11.8052 62.8409 11.4611 62.0574 11.4611Z" fill="black"/>
<path fill-rule="evenodd" clip-rule="evenodd" d="M72.416 22.6981H69.9616C69.7154 22.6807 69.5178 22.4826 69.5178 22.2393L69.5144 9.55292C69.5352 9.32005 69.7397 9.13931 69.9893 9.13931H72.2739C72.4888 9.14973 72.6656 9.29572 72.7141 9.49383V11.4333H72.7592C73.4491 9.6989 74.4163 8.87168 76.1184 8.87168C77.2243 8.87168 78.3025 9.27139 78.9958 10.3662C79.6406 11.3812 79.6406 13.0877 79.6406 14.3147V22.2984C79.6129 22.5209 79.4083 22.6981 79.1657 22.6981H76.6939C76.4686 22.6807 76.2814 22.5139 76.2571 22.2984V15.4095C76.2571 14.0227 76.4166 11.9929 74.7144 11.9929C74.1147 11.9929 73.5635 12.3961 73.2896 13.0078C72.943 13.7829 72.8979 14.5545 72.8979 15.4095V22.2393C72.8944 22.4931 72.6795 22.6981 72.416 22.6981Z" fill="black"/>
<path fill-rule="evenodd" clip-rule="evenodd" d="M39.576 16.6399C39.576 17.6027 39.6002 18.4056 39.1149 19.2606C38.7231 19.9558 38.0991 20.3833 37.4093 20.3833C36.4629 20.3833 35.9082 19.6603 35.9082 18.5933C35.9082 16.487 37.7906 16.1046 39.576 16.1046V16.6399ZM42.0616 22.6634C41.8986 22.8093 41.6629 22.8198 41.4792 22.7224C40.661 22.0412 40.512 21.7249 40.0648 21.0749C38.7127 22.4583 37.7525 22.8719 36.0018 22.8719C33.9252 22.8719 32.3132 21.5894 32.3132 19.0208C32.3132 17.0153 33.3948 15.6493 34.941 14.982C36.2791 14.3911 38.1477 14.2868 39.576 14.1235V13.8037C39.576 13.2163 39.621 12.5212 39.2743 12.0137C38.9762 11.5584 38.4007 11.3707 37.8911 11.3707C36.9517 11.3707 36.1162 11.8538 35.9116 12.8548C35.87 13.0773 35.7071 13.2963 35.4818 13.3067L33.0932 13.0495C32.8921 13.0043 32.6668 12.8409 32.7257 12.5316C33.2735 9.62589 35.8943 8.75 38.2378 8.75C39.4373 8.75 41.0042 9.06977 41.9506 9.98041C43.1501 11.1031 43.0357 12.6011 43.0357 14.2312V18.0823C43.0357 19.2398 43.5141 19.7472 43.9648 20.3728C44.1208 20.5953 44.1555 20.8629 43.9544 21.0298C43.4517 21.4503 42.5573 22.2324 42.065 22.6703L42.0616 22.6634Z" fill="black"/>
<path fill-rule="evenodd" clip-rule="evenodd" d="M7.26274 16.6399C7.26274 17.6027 7.287 18.4056 6.80167 19.2606C6.40993 19.9558 5.78939 20.3833 5.09605 20.3833C4.14964 20.3833 3.59844 19.6603 3.59844 18.5933C3.59844 16.487 5.48085 16.1046 7.26274 16.1046V16.6399ZM9.74836 22.6633C9.58543 22.8093 9.34969 22.8198 9.16596 22.7224C8.34782 22.0412 8.20221 21.7249 7.75154 21.0749C6.39953 22.4583 5.44272 22.8719 3.68857 22.8719C1.61548 22.8719 0 21.5893 0 19.0208C0 17.0153 1.08508 15.6493 2.62776 14.982C3.9659 14.3911 5.83446 14.2868 7.26274 14.1235V13.8037C7.26274 13.2163 7.30781 12.5212 6.9646 12.0137C6.663 11.5584 6.08753 11.3707 5.58139 11.3707C4.64191 11.3707 3.80297 11.8538 3.59844 12.8548C3.55683 13.0773 3.3939 13.2963 3.17203 13.3067L0.780008 13.0495C0.578939 13.0043 0.35707 12.8409 0.412537 12.5316C0.963743 9.62589 3.5811 8.75 5.92459 8.75C7.12407 8.75 8.69102 9.06977 9.63743 9.98041C10.8369 11.1031 10.7225 12.6011 10.7225 14.2312V18.0823C10.7225 19.2398 11.2009 19.7472 11.6516 20.3728C11.811 20.5953 11.8457 20.8629 11.6446 21.0297C11.142 21.4503 10.2476 22.2324 9.75529 22.6703L9.74836 22.6633Z" fill="black"/>
</svg>
