<svg width="99" height="43" viewBox="0 0 99 43" fill="none" xmlns="http://www.w3.org/2000/svg">
<g opacity="0.2" clip-path="url(#clip0_1_1384)">
<path fill-rule="evenodd" clip-rule="evenodd" d="M61.057 33.9454C55.4039 38.1122 47.2102 40.3353 40.1556 40.3353C30.2639 40.3353 21.3588 36.6767 14.6217 30.5917C14.0924 30.1132 14.5667 29.4611 15.2019 29.8338C22.4724 34.064 31.4622 36.6089 40.7484 36.6089C47.0112 36.6089 53.9007 35.3132 60.2355 32.6243C61.1925 32.2178 61.9928 33.251 61.057 33.9454Z" fill="white"/>
<path fill-rule="evenodd" clip-rule="evenodd" d="M63.4072 31.2566C62.6873 30.3335 58.6307 30.8204 56.8099 31.0364C56.2552 31.1041 56.1705 30.6214 56.6701 30.2742C59.901 28.0003 65.2026 28.6566 65.8208 29.4188C66.439 30.1853 65.6599 35.4995 62.6238 38.036C62.158 38.4255 61.7134 38.2181 61.9209 37.7015C62.6026 35.9992 64.1313 32.1839 63.4072 31.2566Z" fill="white"/>
<path fill-rule="evenodd" clip-rule="evenodd" d="M56.9376 14.221V12.0106C56.9376 11.6761 57.1917 11.4516 57.4966 11.4516H67.3925C67.7101 11.4516 67.9642 11.6803 67.9642 12.0106V13.9034C67.96 14.221 67.6932 14.636 67.2189 15.2923L62.091 22.6137C63.9965 22.5671 66.0079 22.8508 67.7355 23.8248C68.1251 24.0449 68.231 24.3668 68.2606 24.6844V27.043C68.2606 27.3648 67.9049 27.7416 67.5323 27.5469C64.4877 25.9505 60.4438 25.7768 57.0774 27.5638C56.7344 27.7501 56.3744 27.3775 56.3744 27.0557V24.8156C56.3744 24.4557 56.3787 23.8417 56.7386 23.2954L62.6796 14.7757H57.5093C57.1917 14.7757 56.9376 14.5513 56.9376 14.221Z" fill="white"/>
<path fill-rule="evenodd" clip-rule="evenodd" d="M20.8387 28.0127H17.828C17.5401 27.9915 17.3114 27.7755 17.2902 27.5003V12.0487C17.2902 11.7396 17.5485 11.494 17.8704 11.494H20.6778C20.97 11.5067 21.2029 11.7311 21.2241 12.0106V14.0305H21.2791C22.0117 12.0784 23.3879 11.168 25.2426 11.168C27.1269 11.168 28.3041 12.0784 29.151 14.0305C29.8793 12.0784 31.535 11.168 33.3092 11.168C34.5711 11.168 35.9516 11.6888 36.7942 12.8575C37.747 14.1575 37.5522 16.0461 37.5522 17.7017L37.548 27.4537C37.548 27.7628 37.2897 28.0127 36.9678 28.0127H33.9614C33.6607 27.9915 33.4193 27.7501 33.4193 27.4537V19.2643C33.4193 18.6122 33.4786 16.9861 33.3347 16.3679C33.1102 15.3304 32.4369 15.0383 31.5646 15.0383C30.8363 15.0383 30.0741 15.5252 29.765 16.3044C29.4559 17.0835 29.4855 18.3877 29.4855 19.2643V27.4537C29.4855 27.7628 29.2272 28.0127 28.9054 28.0127H25.8989C25.594 27.9915 25.3569 27.7501 25.3569 27.4537L25.3527 19.2643C25.3527 17.5408 25.6364 15.0044 23.498 15.0044C21.3342 15.0044 21.4189 17.4773 21.4189 19.2643V27.4537C21.4189 27.7628 21.1605 28.0127 20.8387 28.0127Z" fill="white"/>
<path fill-rule="evenodd" clip-rule="evenodd" d="M76.4838 11.168C80.9512 11.168 83.3691 15.0044 83.3691 19.8825C83.3691 24.5955 80.6971 28.3345 76.4838 28.3345C72.0969 28.3345 69.7087 24.4981 69.7087 19.7173C69.7087 14.907 72.1266 11.168 76.4838 11.168ZM76.5092 14.3226C74.2904 14.3226 74.1506 17.346 74.1506 19.2304C74.1506 21.119 74.121 25.1502 76.4838 25.1502C78.817 25.1502 78.9271 21.8981 78.9271 19.9164C78.9271 18.6122 78.8721 17.0539 78.4783 15.8174C78.1395 14.7418 77.4662 14.3226 76.5092 14.3226Z" fill="white"/>
<path fill-rule="evenodd" clip-rule="evenodd" d="M89.162 28.0127H86.164C85.8633 27.9915 85.6219 27.7501 85.6219 27.4537L85.6177 11.9979C85.6431 11.7142 85.893 11.494 86.1978 11.494H88.9884C89.2509 11.5067 89.4668 11.6846 89.5261 11.9259V14.2888H89.5812C90.4238 12.1758 91.6052 11.168 93.6844 11.168C95.0352 11.168 96.3521 11.6549 97.199 12.9888C97.9866 14.2252 97.9866 16.3044 97.9866 17.7991V27.5257C97.9527 27.7967 97.7029 28.0127 97.4065 28.0127H94.3873C94.1121 27.9915 93.8834 27.7883 93.8538 27.5257V19.133C93.8538 17.4434 94.0485 14.9705 91.9694 14.9705C91.2369 14.9705 90.5636 15.4617 90.229 16.207C89.8056 17.1513 89.7506 18.0913 89.7506 19.133V27.4537C89.7463 27.7628 89.4838 28.0127 89.162 28.0127Z" fill="white"/>
<path fill-rule="evenodd" clip-rule="evenodd" d="M49.0488 20.632C49.0488 21.8049 49.0785 22.7831 48.4856 23.8248C48.0072 24.6717 47.2449 25.1925 46.4023 25.1925C45.2463 25.1925 44.5688 24.3117 44.5688 23.0117C44.5688 20.4457 46.8681 19.9799 49.0488 19.9799V20.632ZM52.0849 27.9703C51.8859 28.1482 51.598 28.1609 51.3736 28.0423C50.3742 27.2123 50.1921 26.827 49.6459 26.0352C47.9944 27.7205 46.8215 28.2244 44.6831 28.2244C42.1466 28.2244 40.1776 26.6619 40.1776 23.5326C40.1776 21.0893 41.4988 19.4251 43.3873 18.6121C45.0218 17.8923 47.3042 17.7652 49.0488 17.5662V17.1766C49.0488 16.461 49.1039 15.6141 48.6804 14.9959C48.3163 14.4412 47.6133 14.2125 46.9909 14.2125C45.8433 14.2125 44.8228 14.8011 44.573 16.0206C44.5222 16.2916 44.3232 16.5584 44.0479 16.5711L41.1304 16.2578C40.8848 16.2027 40.6095 16.0037 40.6815 15.6268C41.3506 12.0868 44.5518 11.0197 47.4143 11.0197C48.8794 11.0197 50.7934 11.4093 51.9494 12.5187C53.4146 13.8865 53.2748 15.7115 53.2748 17.6975V22.3893C53.2748 23.7994 53.8592 24.4176 54.4097 25.1798C54.6002 25.4508 54.6426 25.7769 54.397 25.9801C53.783 26.4925 52.6905 27.4452 52.0892 27.9788L52.0849 27.9703Z" fill="white"/>
<path fill-rule="evenodd" clip-rule="evenodd" d="M9.57922 20.632C9.57922 21.8049 9.60886 22.7831 9.01604 23.8248C8.53754 24.6716 7.77957 25.1925 6.93268 25.1925C5.77667 25.1925 5.10339 24.3117 5.10339 23.0117C5.10339 20.4456 7.4027 19.9799 9.57922 19.9799V20.632ZM12.6153 27.9703C12.4163 28.1481 12.1284 28.1608 11.9039 28.0423C10.9046 27.2123 10.7268 26.827 10.1763 26.0351C8.52484 27.7205 7.35613 28.2244 5.21348 28.2244C2.68127 28.2244 0.708008 26.6618 0.708008 23.5326C0.708008 21.0893 2.0334 19.4251 3.91773 18.6121C5.55224 17.8923 7.83462 17.7652 9.57922 17.5662V17.1766C9.57922 16.461 9.63427 15.6141 9.21506 14.9959C8.84666 14.4412 8.14374 14.2125 7.5255 14.2125C6.37796 14.2125 5.35322 14.8011 5.10339 16.0206C5.05257 16.2916 4.85355 16.5584 4.58255 16.5711L1.66076 16.2578C1.41516 16.2027 1.14416 16.0037 1.21191 15.6268C1.88519 12.0868 5.08221 11.0197 7.94472 11.0197C9.40984 11.0197 11.3238 11.4093 12.4798 12.5187C13.945 13.8865 13.8052 15.7115 13.8052 17.6975V22.3893C13.8052 23.7993 14.3896 24.4176 14.9401 25.1798C15.1348 25.4508 15.1772 25.7768 14.9316 25.9801C14.3176 26.4925 13.2251 27.4452 12.6238 27.9788L12.6153 27.9703Z" fill="white"/>
</g>
<defs>
<clipPath id="clip0_1_1384">
<rect width="97.7176" height="42.6404" fill="white" transform="translate(0.708008 0.359619)"/>
</clipPath>
</defs>
</svg>
