<svg width="159" height="45" viewBox="0 0 159 45" fill="none" xmlns="http://www.w3.org/2000/svg">
<g clip-path="url(#clip0_3_2595)">
<path d="M5.75967 20.656C5.70197 20.5767 5.62576 20.5144 5.53842 20.4751C5.45108 20.4358 5.35556 20.4208 5.26109 20.4316C5.16662 20.4424 5.07639 20.4786 4.99913 20.5366C4.92187 20.5947 4.86019 20.6727 4.82005 20.7631L0.058847 30.754C0.0154731 30.8451 -0.00500581 30.9462 -0.000645263 31.0479C0.00371528 31.1496 0.0327705 31.2485 0.0837617 31.3351C0.134753 31.4217 0.205988 31.4931 0.290703 31.5427C0.375417 31.5923 0.470801 31.6183 0.567796 31.6183H7.19752C7.30371 31.6209 7.40832 31.5911 7.49867 31.5325C7.58901 31.4739 7.6612 31.389 7.70647 31.2882C9.13659 28.1866 8.26989 23.4707 5.75967 20.656Z" fill="#1463FF"/>
<path d="M9.25152 11.5681C8.06517 13.4839 7.37381 15.6905 7.24529 17.9714C7.11677 20.2524 7.55551 22.5291 8.51846 24.5784L11.7147 31.2875C11.762 31.3867 11.8346 31.4701 11.9245 31.5284C12.0144 31.5868 12.118 31.6177 12.2237 31.6177H18.8522C18.9492 31.6177 19.0446 31.5916 19.1293 31.542C19.214 31.4925 19.2852 31.421 19.3362 31.3344C19.3872 31.2478 19.4163 31.149 19.4206 31.0473C19.425 30.9456 19.4045 30.8444 19.3612 30.7533C19.3612 30.7533 10.4435 12.0326 10.2194 11.5643C10.1751 11.469 10.1061 11.3887 10.0203 11.3327C9.9345 11.2767 9.8354 11.2472 9.73435 11.2476C9.6333 11.248 9.53441 11.2782 9.44901 11.3349C9.36361 11.3916 9.29516 11.4724 9.25152 11.5681V11.5681Z" fill="#1463FF"/>
<path d="M87.0009 19.5817C87.0009 22.0557 88.0944 24.0199 92.3717 24.887C94.9235 25.4493 95.4581 25.8816 95.4581 26.7743C95.4581 27.6415 94.9223 28.2028 93.125 28.2028C90.9526 28.1618 88.8236 27.5572 86.928 26.4429V30.4725C88.2161 31.1357 89.9171 31.8754 93.0764 31.8754C97.548 31.8754 99.3222 29.7825 99.3222 26.6722L87.0009 19.5817ZM99.3222 26.6722C99.3222 23.739 97.8397 22.3615 93.6598 21.4181C91.3511 20.8824 90.7921 20.347 90.7921 19.5817C90.7921 18.6133 91.6183 18.2044 93.1494 18.2044C94.9965 18.2044 96.8191 18.7911 98.5445 19.6073V15.7557C96.8901 14.9654 95.0882 14.5733 93.2708 14.6081C89.1394 14.6081 87.0009 16.4954 87.0009 19.5817" fill="#1463FF"/>
<path d="M144.449 14.8613V31.6188H147.851V18.8403L149.285 22.2324L154.097 31.6188H158.374V14.8613H154.972V25.676L153.684 22.5385L149.82 14.8613H144.449Z" fill="#1463FF"/>
<path d="M122.81 14.8613H119.092V31.6188H122.81V14.8613Z" fill="#1463FF"/>
<path d="M114.8 26.6722C114.8 23.739 113.318 22.3615 109.138 21.4181C106.829 20.8824 106.27 20.347 106.27 19.5817C106.27 18.6133 107.096 18.2044 108.627 18.2044C110.474 18.2044 112.297 18.7911 114.023 19.6073V15.7557C112.368 14.9654 110.566 14.5733 108.749 14.6081C104.617 14.6081 102.479 16.4954 102.479 19.5817C102.479 22.0557 103.572 24.0199 107.85 24.887C110.402 25.4493 110.936 25.8816 110.936 26.7743C110.936 27.6415 110.4 28.2028 108.603 28.2028C106.431 28.1618 104.302 27.5572 102.406 26.4429V30.4725C103.694 31.1357 105.395 31.8754 108.554 31.8754C113.026 31.8754 114.8 29.7825 114.8 26.6722" fill="#1463FF"/>
<path d="M58.1157 14.8613V31.6188H65.7583L66.9616 27.9969H61.8581V14.8613H58.1157Z" fill="#1463FF"/>
<path d="M43.0171 14.8613V18.483H47.1485V31.6188H50.8909V18.483H55.314V14.8613H43.0171Z" fill="#1463FF"/>
<path d="M37.5896 14.8613H32.685L27.1172 31.6188H31.3691L32.1585 28.7966C34.1024 29.3956 36.1695 29.3956 38.1135 28.7966L38.9028 31.6188H43.1556L37.5896 14.8613ZM35.1372 25.7747C34.4445 25.7746 33.7555 25.6706 33.0909 25.4657L35.1372 18.1528L37.1834 25.4682C36.5187 25.6722 35.8297 25.7754 35.1372 25.7747V25.7747Z" fill="#1463FF"/>
<path d="M78.9336 14.8613H74.0292L68.4614 31.6188H72.7143L73.5036 28.7966C75.4476 29.3956 77.5146 29.3956 79.4586 28.7966L80.2479 31.6188H84.5008L78.9336 14.8613ZM76.4814 25.7747C75.7888 25.7746 75.0997 25.6706 74.4352 25.4657L76.4814 18.1528L78.5276 25.4682C77.8629 25.6722 77.1739 25.7754 76.4814 25.7747Z" fill="#1463FF"/>
<path d="M136.208 14.8613H131.304L125.736 31.6188H129.989L130.778 28.7966C132.722 29.3956 134.789 29.3956 136.733 28.7966L137.522 31.6188H141.775L136.208 14.8613ZM133.754 25.7747C133.062 25.7746 132.373 25.6706 131.708 25.4657L133.754 18.1528L135.801 25.4682C135.136 25.6722 134.447 25.7754 133.754 25.7747V25.7747Z" fill="#1463FF"/>
</g>
<defs>
<clipPath id="clip0_3_2595">
<rect width="159" height="45" fill="white"/>
</clipPath>
</defs>
</svg>
