<svg width="75" height="30" viewBox="0 0 75 30" fill="none" xmlns="http://www.w3.org/2000/svg">
<path fill-rule="evenodd" clip-rule="evenodd" d="M72.6127 19.8208C72.6577 20.3462 73.0684 21.0149 73.7804 21.0149H74.1964C74.3582 21.0149 74.4904 20.8796 74.4904 20.7143V11.3463H74.4884C74.4803 11.1885 74.3528 11.0621 74.1964 11.0621H72.9066C72.7503 11.0621 72.6228 11.1885 72.6147 11.3463H72.6127V12.1075C71.8222 11.1107 70.576 10.6969 69.3264 10.6969C66.4856 10.6969 64.1828 13.0547 64.1828 15.9632C64.1828 18.872 66.4856 21.2298 69.3264 21.2298C70.576 21.2298 71.9383 20.7336 72.6127 19.8197V19.8208ZM69.3311 19.3867C67.5246 19.3867 66.06 17.8541 66.06 15.9632C66.06 14.0728 67.5246 12.5401 69.3311 12.5401C71.1383 12.5401 72.6026 14.0728 72.6026 15.9632C72.6026 17.8541 71.1383 19.3867 69.3311 19.3867Z" fill="#0D0E10"/>
<path fill-rule="evenodd" clip-rule="evenodd" d="M62.5513 15.2955C62.5513 12.5629 60.8677 10.7195 58.1828 10.7195C56.9011 10.7195 55.8504 11.4783 55.4793 12.1301C55.3991 11.6205 55.1348 11.0847 54.3152 11.0847H53.8975C53.7359 11.0847 53.604 11.2201 53.604 11.3854V19.8443C53.604 19.8446 53.604 19.8452 53.604 19.8456V20.7542H53.6056C53.614 20.9118 53.7416 21.0383 53.8976 21.0383H55.1878C55.2075 21.0383 55.2269 21.0359 55.2456 21.0322C55.2542 21.0305 55.2621 21.0271 55.2704 21.0247C55.28 21.0216 55.29 21.0193 55.2991 21.0155C55.3106 21.0106 55.321 21.0041 55.3317 20.998C55.3369 20.9947 55.3424 20.9924 55.3474 20.989C55.3603 20.9805 55.3721 20.9702 55.3835 20.9598C55.3854 20.9579 55.3876 20.9566 55.3895 20.9548C55.4023 20.9421 55.4141 20.9281 55.4244 20.9135C55.4567 20.8681 55.4764 20.8132 55.4796 20.7542H55.4813V15.2203C55.4813 13.7527 56.6434 12.5629 58.0769 12.5629C59.5104 12.5629 60.6725 13.7527 60.6725 15.2203L60.6737 19.8459L60.674 19.8443C60.674 19.8484 60.6746 19.8526 60.6746 19.857V20.7542H60.6764C60.6849 20.9118 60.8123 21.0383 60.9683 21.0383H62.2585C62.2784 21.0383 62.2976 21.0359 62.3163 21.0322C62.3239 21.0308 62.331 21.0276 62.3385 21.0255C62.349 21.0223 62.3599 21.0197 62.37 21.0155C62.3806 21.011 62.3902 21.0048 62.4002 20.999C62.4063 20.9955 62.4126 20.9929 62.4185 20.989C62.4304 20.9809 62.4413 20.9713 62.452 20.9617C62.4547 20.9591 62.4578 20.9572 62.4604 20.9546C62.4726 20.9425 62.4835 20.9294 62.4934 20.9158C62.4942 20.9148 62.495 20.9139 62.4957 20.9129C62.5275 20.8679 62.547 20.8136 62.5504 20.755C62.5504 20.7546 62.5505 20.7542 62.5505 20.7542H62.5522L62.5513 15.2955Z" fill="#0D0E10"/>
<path fill-rule="evenodd" clip-rule="evenodd" d="M49.1154 19.8208C49.1604 20.3462 49.5712 21.0149 50.2828 21.0149H50.6992C50.8606 21.0149 50.9927 20.8795 50.9927 20.7143V11.3463H50.991C50.9826 11.1885 50.855 11.0621 50.6992 11.0621H49.409C49.253 11.0621 49.1256 11.1885 49.1168 11.3463H49.1154V12.1075C48.3248 11.1107 47.0786 10.6969 45.8288 10.6969C42.9881 10.6969 40.6854 13.0547 40.6854 15.9633C40.6854 18.872 42.9881 21.2298 45.8288 21.2298C47.0786 21.2298 48.4406 20.7336 49.1152 19.8196L49.1154 19.8208ZM45.8338 19.3866C44.0273 19.3866 42.5626 17.8541 42.5626 15.9633C42.5626 14.0728 44.0273 12.5401 45.8338 12.5401C47.6406 12.5401 49.105 14.0728 49.105 15.9633C49.105 17.8541 47.6406 19.3866 45.8338 19.3866Z" fill="#0D0E10"/>
<path fill-rule="evenodd" clip-rule="evenodd" d="M33.0559 18.4791C33.9172 19.09 34.8573 19.3868 35.7607 19.3868C36.6214 19.3868 37.5112 18.9299 37.5112 18.1348C37.5112 17.0732 35.5723 16.908 34.3542 16.4841C33.1358 16.0603 32.0864 15.184 32.0864 13.7649C32.0864 11.5936 33.9761 10.6968 35.7398 10.6968C36.8573 10.6968 38.0103 11.0741 38.7578 11.6145C39.0153 11.8142 38.8585 12.0435 38.8585 12.0435L38.1449 13.087C38.0647 13.2045 37.9245 13.306 37.7232 13.1788C37.5219 13.0517 36.8159 12.54 35.7398 12.54C34.6637 12.54 34.0155 13.0488 34.0155 13.6795C34.0155 14.4357 34.858 14.6736 35.8447 14.9313C37.5644 15.4059 39.4403 15.9764 39.4403 18.1348C39.4403 20.0479 37.6924 21.2302 35.7607 21.2302C34.2969 21.2302 33.0506 20.803 32.0053 20.0176C31.7875 19.7945 31.9396 19.5873 31.9396 19.5873L32.6497 18.5492C32.7941 18.3551 32.9763 18.4228 33.0559 18.4791Z" fill="#0D0E10"/>
<path fill-rule="evenodd" clip-rule="evenodd" d="M28.0961 19.8208C28.1412 20.3462 28.5519 21.0149 29.2635 21.0149H29.6799C29.8413 21.0149 29.9736 20.8795 29.9736 20.7143V11.3463H29.9717C29.9633 11.1885 29.8358 11.0621 29.6799 11.0621H28.3897C28.2337 11.0621 28.1063 11.1885 28.0976 11.3463H28.0961V12.1075C27.3056 11.1107 26.0593 10.6969 24.8096 10.6969C21.9689 10.6969 19.666 13.0547 19.666 15.9633C19.666 18.872 21.9689 21.2298 24.8096 21.2298C26.0593 21.2298 27.4213 20.7336 28.0959 19.8196L28.0961 19.8208ZM24.8146 19.3866C23.0079 19.3866 21.5433 17.8541 21.5433 15.9633C21.5433 14.0728 23.0079 12.5401 24.8146 12.5401C26.6212 12.5401 28.0857 14.0728 28.0857 15.9633C28.0857 17.8541 26.6212 19.3866 24.8146 19.3866Z" fill="#0D0E10"/>
<path fill-rule="evenodd" clip-rule="evenodd" d="M12.4545 16.3213C10.5428 16.3213 8.99302 17.9068 8.99302 19.8627C8.99302 21.8185 10.5428 23.4039 12.4545 23.4039C14.3662 23.4039 15.9159 21.8185 15.9159 19.8627C15.9159 17.9068 14.3662 16.3213 12.4545 16.3213ZM3.46142 16.3217C1.54975 16.3217 0 17.9068 0 19.8627C0 21.8185 1.54975 23.4039 3.46142 23.4039C5.37318 23.4039 6.92301 21.8185 6.92301 19.8627C6.92301 17.9068 5.37318 16.3217 3.46142 16.3217ZM11.4193 11.8947C11.4193 13.8506 9.86965 15.4362 7.95795 15.4362C6.0462 15.4362 4.49654 13.8506 4.49654 11.8947C4.49654 9.93915 6.0462 8.35352 7.95795 8.35352C9.86965 8.35352 11.4193 9.93915 11.4193 11.8947Z" fill="#F06A6A"/>
</svg>
