<svg width="118" height="52" viewBox="0 0 118 52" fill="none" xmlns="http://www.w3.org/2000/svg">
<path fill-rule="evenodd" clip-rule="evenodd" d="M72.8753 40.9575C66.0489 46.0388 56.1545 48.7499 47.6356 48.7499C35.6908 48.7499 24.9373 44.2882 16.8019 36.8676C16.1627 36.2841 16.7354 35.4889 17.5024 35.9433C26.2821 41.1021 37.1379 44.2056 48.3515 44.2056C55.9142 44.2056 64.2337 42.6254 71.8833 39.3463C73.0389 38.8506 74.0054 40.1106 72.8753 40.9575Z" fill="#FF9900"/>
<path fill-rule="evenodd" clip-rule="evenodd" d="M75.7133 37.6784C74.844 36.5527 69.9454 37.1465 67.7467 37.4099C67.0768 37.4925 66.9746 36.9038 67.5779 36.4804C71.4795 33.7073 77.8814 34.5077 78.6279 35.4373C79.3745 36.3719 78.4336 42.8527 74.7673 45.9459C74.2049 46.421 73.668 46.1679 73.9185 45.5379C74.7418 43.462 76.5877 38.8093 75.7133 37.6784Z" fill="#FF9900"/>
<path fill-rule="evenodd" clip-rule="evenodd" d="M67.9007 16.9039V14.2084C67.9007 13.8004 68.2075 13.5267 68.5757 13.5267H80.5257C80.9092 13.5267 81.216 13.8056 81.216 14.2084V16.5166C81.2109 16.9039 80.8887 17.41 80.316 18.2104L74.1237 27.1389C76.4248 27.0821 78.8536 27.4281 80.9399 28.6158C81.4103 28.8843 81.5381 29.2767 81.5739 29.664V32.5404C81.5739 32.9328 81.1444 33.3924 80.6944 33.1549C77.0179 31.2081 72.1346 30.9963 68.0695 33.1755C67.6553 33.4027 67.2207 32.9483 67.2207 32.5559V29.8241C67.2207 29.3852 67.2258 28.6364 67.6604 27.9703L74.8345 17.5804H68.5911C68.2075 17.5804 67.9007 17.3067 67.9007 16.9039Z" fill="black"/>
<path fill-rule="evenodd" clip-rule="evenodd" d="M24.3091 33.7229H20.6735C20.3258 33.6971 20.0496 33.4338 20.0241 33.0981V14.2549C20.0241 13.8779 20.336 13.5784 20.7246 13.5784H24.1148C24.4676 13.5939 24.7488 13.8676 24.7744 14.2084V16.6716H24.8409C25.7255 14.291 27.3873 13.1808 29.627 13.1808C31.9025 13.1808 33.324 14.291 34.3467 16.6716C35.2262 14.291 37.2255 13.1808 39.368 13.1808C40.8918 13.1808 42.5588 13.8159 43.5763 15.2412C44.7268 16.8265 44.4916 19.1296 44.4916 21.1487L44.4865 33.0413C44.4865 33.4183 44.1746 33.7229 43.786 33.7229H40.1555C39.7924 33.6971 39.501 33.4028 39.501 33.0413V23.0542C39.501 22.259 39.5725 20.276 39.3987 19.5221C39.1277 18.2569 38.3147 17.9006 37.2613 17.9006C36.3818 17.9006 35.4614 18.4945 35.0881 19.4446C34.7148 20.3948 34.7506 21.9853 34.7506 23.0542V33.0413C34.7506 33.4183 34.4387 33.7229 34.0501 33.7229H30.4196C30.0514 33.6971 29.7651 33.4028 29.7651 33.0413L29.76 23.0542C29.76 20.9525 30.1026 17.8593 27.5203 17.8593C24.9074 17.8593 25.0096 20.875 25.0096 23.0542V33.0413C25.0096 33.4183 24.6977 33.7229 24.3091 33.7229Z" fill="black"/>
<path fill-rule="evenodd" clip-rule="evenodd" d="M91.504 13.1808C96.8986 13.1808 99.8184 17.8593 99.8184 23.8082C99.8184 29.5556 96.5918 34.1154 91.504 34.1154C86.2065 34.1154 83.3226 29.4369 83.3226 23.6068C83.3226 17.7405 86.2423 13.1808 91.504 13.1808ZM91.5347 17.0279C88.8553 17.0279 88.6865 20.715 88.6865 23.0129C88.6865 25.316 88.6507 30.2321 91.504 30.2321C94.3215 30.2321 94.4544 26.2662 94.4544 23.8495C94.4544 22.259 94.3879 20.3587 93.9124 18.8508C93.5033 17.5391 92.6903 17.0279 91.5347 17.0279Z" fill="black"/>
<path fill-rule="evenodd" clip-rule="evenodd" d="M106.814 33.7229H103.193C102.83 33.6971 102.539 33.4028 102.539 33.0413L102.534 14.1929C102.564 13.8469 102.866 13.5784 103.234 13.5784H106.604C106.921 13.5939 107.182 13.8108 107.253 14.1051V16.9866H107.32C108.337 14.4098 109.764 13.1808 112.275 13.1808C113.906 13.1808 115.496 13.7746 116.519 15.4013C117.47 16.9091 117.47 19.4446 117.47 21.2675V33.1291C117.429 33.4596 117.127 33.7229 116.769 33.7229H113.124C112.791 33.6971 112.515 33.4492 112.479 33.1291V22.8942C112.479 20.8337 112.714 17.818 110.204 17.818C109.319 17.818 108.506 18.417 108.102 19.3259C107.591 20.4774 107.524 21.6238 107.524 22.8942V33.0413C107.519 33.4183 107.202 33.7229 106.814 33.7229Z" fill="black"/>
<path fill-rule="evenodd" clip-rule="evenodd" d="M58.3745 24.7222C58.3745 26.1526 58.4103 27.3454 57.6944 28.6158C57.1166 29.6486 56.1962 30.2837 55.1787 30.2837C53.7827 30.2837 52.9646 29.2096 52.9646 27.6243C52.9646 24.4949 55.7411 23.9269 58.3745 23.9269V24.7222ZM62.0408 33.6713C61.8005 33.8882 61.4528 33.9036 61.1818 33.7591C59.975 32.7469 59.7551 32.277 59.0955 31.3113C57.1013 33.3666 55.6849 33.9811 53.1026 33.9811C50.0397 33.9811 47.662 32.0756 47.662 28.2595C47.662 25.2799 49.2574 23.2504 51.5379 22.259C53.5117 21.3811 56.2678 21.2262 58.3745 20.9835V20.5084C58.3745 19.6357 58.441 18.6029 57.9297 17.8489C57.4899 17.1725 56.6411 16.8936 55.8894 16.8936C54.5037 16.8936 53.2714 17.6114 52.9697 19.0986C52.9083 19.4291 52.668 19.7544 52.3356 19.7699L48.8125 19.3878C48.5159 19.3207 48.1836 19.078 48.2705 18.6184C49.0784 14.3013 52.9441 13 56.4008 13C58.17 13 60.4812 13.4751 61.8772 14.828C63.6464 16.496 63.4777 18.7216 63.4777 21.1435V26.8652C63.4777 28.5848 64.1833 29.3387 64.8481 30.2682C65.0782 30.5987 65.1293 30.9963 64.8327 31.2442C64.0913 31.8691 62.772 33.0309 62.0459 33.6816L62.0408 33.6713Z" fill="black"/>
<path fill-rule="evenodd" clip-rule="evenodd" d="M10.7125 24.7221C10.7125 26.1526 10.7483 27.3454 10.0325 28.6158C9.45464 29.6485 8.53935 30.2837 7.51667 30.2837C6.12072 30.2837 5.30769 29.2096 5.30769 27.6243C5.30769 24.4949 8.08426 23.9269 10.7125 23.9269V24.7221ZM14.3788 33.6713C14.1385 33.8881 13.7908 33.9036 13.5198 33.759C12.313 32.7469 12.0983 32.277 11.4335 31.3113C9.4393 33.3666 8.02801 33.9811 5.44064 33.9811C2.38283 33.9811 0 32.0756 0 28.2594C0 25.2799 1.60049 23.2504 3.87594 22.2589C5.84971 21.3811 8.60582 21.2262 10.7125 20.9835V20.5084C10.7125 19.6357 10.779 18.6029 10.2728 17.8489C9.82792 17.1725 8.9791 16.8936 8.23255 16.8936C6.84682 16.8936 5.60938 17.6114 5.30769 19.0986C5.24633 19.4291 5.006 19.7544 4.67875 19.7699L1.15051 19.3878C0.853935 19.3207 0.526678 19.078 0.608492 18.6184C1.42152 14.3013 5.28212 13 8.73877 13C10.508 13 12.8193 13.4751 14.2152 14.828C15.9844 16.496 15.8157 18.7216 15.8157 21.1435V26.8652C15.8157 28.5848 16.5213 29.3387 17.1861 30.2682C17.4213 30.5987 17.4724 30.9963 17.1759 31.2442C16.4344 31.869 15.1152 33.0309 14.3891 33.6816L14.3788 33.6713Z" fill="black"/>
</svg>
