<svg width="101" height="43" viewBox="0 0 101 43" fill="none" xmlns="http://www.w3.org/2000/svg">
<g opacity="0.2" clip-path="url(#clip0_1_1402)">
<path d="M43.1819 23.1453C43.1819 27.8741 39.4825 31.3587 34.9425 31.3587C30.4025 31.3587 26.7031 27.8741 26.7031 23.1453C26.7031 18.3831 30.4025 14.9318 34.9425 14.9318C39.4825 14.9318 43.1819 18.3831 43.1819 23.1453ZM39.5751 23.1453C39.5751 20.1902 37.431 18.1683 34.9425 18.1683C32.454 18.1683 30.3099 20.1902 30.3099 23.1453C30.3099 26.0707 32.454 28.1222 34.9425 28.1222C37.431 28.1222 39.5751 26.067 39.5751 23.1453Z" fill="white"/>
<path d="M60.9563 23.1453C60.9563 27.8741 57.2569 31.3587 52.7169 31.3587C48.1769 31.3587 44.4775 27.8741 44.4775 23.1453C44.4775 18.3868 48.1769 14.9318 52.7169 14.9318C57.2569 14.9318 60.9563 18.3831 60.9563 23.1453ZM57.3495 23.1453C57.3495 20.1902 55.2054 18.1683 52.7169 18.1683C50.2284 18.1683 48.0844 20.1902 48.0844 23.1453C48.0844 26.0707 50.2284 28.1222 52.7169 28.1222C55.2054 28.1222 57.3495 26.067 57.3495 23.1453Z" fill="white"/>
<path d="M77.9912 15.428V30.1738C77.9912 36.2394 74.414 38.7168 70.185 38.7168C66.2042 38.7168 63.8083 36.0543 62.9048 33.8769L66.045 32.5697C66.6042 33.9065 67.9743 35.484 70.1813 35.484C72.8883 35.484 74.5658 33.8139 74.5658 30.67V29.4887H74.4399C73.6326 30.4848 72.0773 31.355 70.1147 31.355C66.0079 31.355 62.2456 27.7779 62.2456 23.1749C62.2456 18.5386 66.0079 14.9318 70.1147 14.9318C72.0736 14.9318 73.6289 15.8021 74.4399 16.7686H74.5658V15.4317H77.9912V15.428ZM74.8213 23.1749C74.8213 20.2828 72.892 18.1683 70.4369 18.1683C67.9484 18.1683 65.8635 20.2828 65.8635 23.1749C65.8635 26.0374 67.9484 28.1222 70.4369 28.1222C72.892 28.1222 74.8213 26.0374 74.8213 23.1749Z" fill="white"/>
<path d="M83.6376 6.78491V30.855H80.1196V6.78491H83.6376Z" fill="white"/>
<path d="M97.3471 25.8488L100.147 27.7151C99.2431 29.0519 97.0657 31.3553 93.3033 31.3553C88.6374 31.3553 85.1528 27.7485 85.1528 23.1418C85.1528 18.2574 88.6671 14.9283 92.8997 14.9283C97.162 14.9283 99.2468 18.3204 99.9282 20.1534L100.302 21.0866L89.3225 25.634C90.1631 27.2819 91.4703 28.1225 93.3033 28.1225C95.1401 28.1225 96.4139 27.2189 97.3471 25.8488ZM88.73 22.8937L96.0695 19.8461C95.6659 18.8203 94.4513 18.1056 93.0219 18.1056C91.1889 18.1056 88.6374 19.7239 88.73 22.8937V22.8937Z" fill="white"/>
<path d="M13.3861 21.0085V17.5239H25.1286C25.2434 18.1312 25.3026 18.8496 25.3026 19.6272C25.3026 22.2416 24.5879 25.4744 22.2846 27.7777C20.0442 30.1107 17.1817 31.3549 13.3898 31.3549C6.36131 31.3549 0.451172 25.63 0.451172 18.6015C0.451172 11.573 6.36131 5.84802 13.3898 5.84802C17.278 5.84802 20.0479 7.3737 22.1291 9.36226L19.6702 11.8211C18.1779 10.4213 16.156 9.33263 13.3861 9.33263C8.25359 9.33263 4.23944 13.469 4.23944 18.6015C4.23944 23.734 8.25359 27.8703 13.3861 27.8703C16.7152 27.8703 18.6111 26.5335 19.8258 25.3189C20.8108 24.3339 21.4588 22.9267 21.7143 21.0048L13.3861 21.0085V21.0085Z" fill="white"/>
</g>
<defs>
<clipPath id="clip0_1_1402">
<rect width="100.383" height="42.6404" fill="white" transform="translate(0.330078 0.359619)"/>
</clipPath>
</defs>
</svg>
