<svg width="138" height="43" viewBox="0 0 138 43" fill="none" xmlns="http://www.w3.org/2000/svg">
<g opacity="0.2" clip-path="url(#clip0_1_1387)">
<path d="M55.2442 23.1566L52.866 16.9324C52.769 16.6779 52.3981 16.6779 52.3008 16.9324L49.9231 23.157C49.9062 23.2012 49.9006 23.2488 49.9067 23.2956C49.9129 23.3424 49.9306 23.387 49.9583 23.4258C49.9861 23.4645 50.0231 23.4961 50.0662 23.518C50.1093 23.5398 50.1571 23.5512 50.2057 23.5512H54.9615C55.0101 23.5512 55.058 23.5397 55.1011 23.5179C55.1442 23.496 55.1811 23.4644 55.2089 23.4256C55.2366 23.3869 55.2543 23.3422 55.2604 23.2954C55.2666 23.2486 55.2609 23.201 55.244 23.1568L55.2442 23.1566ZM56.3428 26.655H48.8247C48.7632 26.6551 48.7031 26.6733 48.6526 26.7074C48.6021 26.7415 48.5636 26.7898 48.5422 26.8458L47.0621 30.7186C47.0407 30.7746 47.0021 30.8229 46.9516 30.857C46.9011 30.8911 46.8411 30.9094 46.7796 30.9094H43.521C43.4718 30.9094 43.4233 30.8977 43.3798 30.8752C43.3362 30.8528 43.2991 30.8204 43.2715 30.7807C43.2439 30.7411 43.2267 30.6955 43.2214 30.648C43.2162 30.6004 43.223 30.5524 43.2414 30.508L50.7436 12.3627C50.766 12.3085 50.8047 12.262 50.8546 12.2294C50.9045 12.1967 50.9633 12.1792 51.0235 12.1793H54.1436C54.2666 12.1793 54.3773 12.2519 54.4233 12.3627L61.9253 30.5078C61.9437 30.5522 61.9506 30.6003 61.9454 30.6479C61.9402 30.6955 61.923 30.7412 61.8954 30.7808C61.8678 30.8205 61.8306 30.853 61.7871 30.8754C61.7435 30.8979 61.6949 30.9096 61.6456 30.9096H58.3877C58.3261 30.9096 58.2661 30.8913 58.2156 30.8571C58.1651 30.823 58.1265 30.7747 58.1052 30.7186L56.6249 26.8458C56.6034 26.7898 56.5649 26.7415 56.5144 26.7074C56.4639 26.6733 56.4039 26.6551 56.3424 26.655H56.3428ZM63.452 18.5474H66.2391C66.319 18.5474 66.3956 18.5782 66.4522 18.6331C66.5087 18.688 66.5404 18.7624 66.5404 18.84V30.6168C66.5404 30.6944 66.5087 30.7688 66.4522 30.8237C66.3956 30.8786 66.319 30.9094 66.2391 30.9094H63.452C63.3721 30.9094 63.2954 30.8786 63.2389 30.8237C63.1824 30.7688 63.1507 30.6944 63.1507 30.6168V18.8398C63.1507 18.7622 63.1824 18.6878 63.2389 18.6329C63.2954 18.578 63.3721 18.5472 63.452 18.5472V18.5474ZM76.7049 21.4121C76.7049 21.4897 76.6732 21.5641 76.6167 21.619C76.5602 21.6739 76.4835 21.7047 76.4036 21.7047H76.3192C74.9411 21.7047 73.9304 22.0258 73.2874 22.6679C72.6441 23.3101 72.3231 24.3716 72.3231 25.8522V30.6168C72.3231 30.6944 72.2913 30.7688 72.2348 30.8237C72.1783 30.8786 72.1016 30.9094 72.0217 30.9094H69.262C69.1821 30.9094 69.1054 30.8786 69.0489 30.8237C68.9924 30.7688 68.9606 30.6944 68.9606 30.6168V18.8398C68.9606 18.7622 68.9924 18.6878 69.0489 18.6329C69.1054 18.578 69.1821 18.5472 69.262 18.5472H71.994C72.0739 18.5472 72.1506 18.578 72.2071 18.6329C72.2636 18.6878 72.2953 18.7622 72.2953 18.8398V21.1692H72.3506C72.6813 20.206 73.2049 19.4661 73.9217 18.9484C74.638 18.4313 75.52 18.1725 76.5671 18.1725H76.7049V21.4119V21.4121ZM84.3255 21.3033C84.2456 21.3033 84.1689 21.3341 84.1124 21.389C84.0559 21.4438 84.0241 21.5182 84.0241 21.5958V26.4943C84.0241 26.9939 84.1246 27.3506 84.3271 27.5646C84.529 27.7786 84.8782 27.8857 85.3743 27.8857H85.6517C85.7316 27.8857 85.8083 27.9165 85.8648 27.9714C85.9213 28.0263 85.9531 28.1007 85.9531 28.1783V30.6433C85.9531 30.7209 85.9213 30.7954 85.8648 30.8502C85.8083 30.9051 85.7316 30.9359 85.6517 30.9359H84.4647C83.2338 30.9359 82.2877 30.6283 81.6263 30.0129C80.9647 29.3975 80.634 28.4836 80.634 27.2703V21.5958C80.634 21.5182 80.6022 21.4438 80.5457 21.389C80.4892 21.3341 80.4125 21.3033 80.3326 21.3033H78.5929C78.513 21.3033 78.4363 21.2724 78.3798 21.2176C78.3233 21.1627 78.2915 21.0883 78.2915 21.0107V18.8398C78.2915 18.7622 78.3233 18.6878 78.3798 18.6329C78.4363 18.578 78.513 18.5472 78.5929 18.5472H80.3328C80.4127 18.5472 80.4894 18.5164 80.5459 18.4615C80.6024 18.4066 80.6342 18.3322 80.6342 18.2546V13.8896C80.6342 13.812 80.6659 13.7376 80.7224 13.6827C80.7789 13.6279 80.8556 13.597 80.9355 13.597H83.7226C83.8025 13.597 83.8791 13.6279 83.9357 13.6827C83.9922 13.7376 84.0239 13.812 84.0239 13.8896V18.2546C84.0239 18.3322 84.0557 18.4066 84.1122 18.4615C84.1687 18.5164 84.2454 18.5472 84.3253 18.5472H86.3406C86.4206 18.5472 86.4972 18.578 86.5537 18.6329C86.6103 18.6878 86.642 18.7622 86.642 18.8398V21.0109C86.642 21.0885 86.6103 21.1629 86.5537 21.2177C86.4972 21.2726 86.4206 21.3034 86.3406 21.3034H84.3255V21.3033ZM97.0876 27.2436C97.7215 26.6014 98.0383 25.763 98.0383 24.7282C98.0383 23.694 97.7215 22.8552 97.0876 22.213C96.4537 21.5709 95.6221 21.2498 94.5933 21.2498C93.5642 21.2498 92.7332 21.5709 92.0992 22.213C91.4655 22.8552 91.1485 23.694 91.1485 24.7282C91.1485 25.763 91.4655 26.6014 92.0992 27.2436C92.7332 27.8857 93.5642 28.2068 94.5933 28.2068C95.6221 28.2068 96.4537 27.8857 97.0876 27.2436ZM90.6524 30.5347C89.7154 30.0176 88.9756 29.2636 88.4339 28.2737C87.8917 27.2837 87.6208 26.102 87.6208 24.7282C87.6208 23.3549 87.8917 22.1729 88.4339 21.1829C88.9756 20.1929 89.7154 19.4396 90.6524 18.9219C91.5895 18.4046 92.6181 18.1459 93.739 18.1459C94.7311 18.1459 95.5807 18.3332 96.2886 18.7077C96.9954 19.0822 97.5603 19.6087 97.9832 20.2866H98.0383V18.8398C98.0383 18.7622 98.07 18.6878 98.1266 18.6329C98.1831 18.578 98.2597 18.5472 98.3397 18.5472H101.099C101.179 18.5472 101.256 18.578 101.312 18.6329C101.369 18.6878 101.401 18.7622 101.401 18.8398V30.6166C101.401 30.6942 101.369 30.7686 101.312 30.8235C101.256 30.8784 101.179 30.9092 101.099 30.9092H98.3397C98.2597 30.9092 98.1831 30.8784 98.1266 30.8235C98.07 30.7686 98.0383 30.6942 98.0383 30.6166V29.17H97.9832C97.5603 29.8483 96.9954 30.3742 96.2884 30.7487C95.5808 31.1232 94.7313 31.3105 93.739 31.3105C92.6181 31.3105 91.5895 31.0518 90.6524 30.5347V30.5347ZM112.877 27.2436C113.511 26.6014 113.828 25.763 113.828 24.7282C113.828 23.694 113.511 22.8552 112.877 22.213C112.244 21.5709 111.412 21.2498 110.383 21.2498C109.354 21.2498 108.523 21.5709 107.889 22.213C107.255 22.8552 106.938 23.694 106.938 24.7282C106.938 25.763 107.255 26.6014 107.889 27.2436C108.523 27.8857 109.354 28.2068 110.383 28.2068C111.412 28.2068 112.244 27.8857 112.877 27.2436ZM108.688 30.7487C107.981 30.3742 107.416 29.8483 106.993 29.17H106.938V30.6166C106.938 30.6942 106.906 30.7686 106.85 30.8235C106.793 30.8784 106.717 30.9092 106.637 30.9092H103.85C103.77 30.9092 103.693 30.8784 103.637 30.8235C103.58 30.7686 103.548 30.6942 103.548 30.6166V12.4713C103.548 12.3937 103.58 12.3193 103.637 12.2644C103.693 12.2095 103.77 12.1787 103.85 12.1787H106.637C106.717 12.1787 106.793 12.2095 106.85 12.2644C106.906 12.3193 106.938 12.3937 106.938 12.4713V20.2864H106.993C107.416 19.6085 107.981 19.0822 108.688 18.7077C109.395 18.333 110.245 18.1457 111.238 18.1457C112.358 18.1457 113.387 18.4044 114.324 18.9217C115.261 19.4394 116.001 20.1927 116.543 21.1825C117.084 22.173 117.356 23.3551 117.356 24.7284C117.356 26.1022 117.084 27.2837 116.543 28.2739C116.001 29.2638 115.261 30.0178 114.324 30.5347C113.387 31.052 112.358 31.3109 111.238 31.3109C110.245 31.3109 109.396 31.1236 108.688 30.7489L108.688 30.7487ZM122.052 30.9094H119.265C119.185 30.9094 119.108 30.8786 119.051 30.8237C118.995 30.7688 118.963 30.6944 118.963 30.6168V12.4719C118.963 12.3943 118.995 12.3199 119.051 12.265C119.108 12.2101 119.185 12.1793 119.265 12.1793H122.052C122.132 12.1793 122.208 12.2101 122.265 12.265C122.321 12.3199 122.353 12.3943 122.353 12.4719V30.6168C122.353 30.6944 122.321 30.7688 122.265 30.8237C122.208 30.8786 122.132 30.9094 122.052 30.9094V30.9094ZM128.626 21.4105C128.164 21.7605 127.852 22.2657 127.69 22.9266C127.646 23.1088 127.792 23.2835 127.985 23.2835H133.289C133.473 23.2835 133.618 23.1236 133.588 22.9473C133.482 22.3221 133.206 21.8237 132.76 21.4507C132.236 21.0138 131.552 20.7953 130.706 20.7953C129.861 20.7953 129.167 21.0003 128.626 21.4105V21.4105ZM135.419 19.8719C136.503 21.0227 137.045 22.6506 137.045 24.7551V25.1047C137.045 25.1823 137.013 25.2567 136.957 25.3116C136.9 25.3664 136.824 25.3973 136.744 25.3973H127.883C127.839 25.3974 127.795 25.4068 127.755 25.4249C127.715 25.4431 127.68 25.4694 127.651 25.5022C127.623 25.535 127.602 25.5735 127.591 25.6148C127.579 25.6562 127.577 25.6995 127.585 25.7418C127.726 26.5236 128.082 27.1447 128.653 27.6048C129.305 28.1315 130.128 28.3942 131.12 28.3942C132.401 28.3942 133.586 27.9089 134.676 26.9381C134.81 26.8195 135.021 26.8447 135.124 26.9888L136.479 28.877C136.522 28.9358 136.54 29.0076 136.532 29.0789C136.523 29.1502 136.488 29.2159 136.433 29.2636C135.768 29.8289 135.028 30.3058 134.234 30.682C133.352 31.101 132.314 31.3109 131.12 31.3109C129.742 31.3109 128.538 31.0385 127.51 30.4947C126.48 29.9509 125.681 29.1839 125.112 28.1935C124.542 27.2036 124.258 26.0576 124.258 24.7551C124.258 23.4533 124.533 22.3028 125.084 21.3034C125.635 20.3047 126.407 19.5287 127.399 18.9755C128.392 18.4229 129.549 18.1461 130.872 18.1461C132.819 18.1461 134.335 18.7216 135.419 19.8719V19.8719ZM66.9045 14.1935C66.9045 15.2972 65.9829 16.192 64.8459 16.192C63.7088 16.192 62.7872 15.2972 62.7872 14.1933C62.7872 13.0895 63.709 12.1947 64.8459 12.1947C65.9829 12.1947 66.9045 13.0895 66.9045 14.1933" fill="white"/>
<path d="M16.2975 6.90172L3.04541 12.2256C2.30846 12.5217 2.3161 13.5382 3.05766 13.8236L16.365 18.9472C17.5342 19.3974 18.8363 19.3974 20.0055 18.9472L33.3131 13.8234C34.0545 13.5382 34.0625 12.5219 33.3252 12.2258L20.0735 6.90152C18.8645 6.4158 17.5063 6.4158 16.2973 6.90152" fill="white"/>
<path d="M19.3662 21.7449V34.5444C19.3662 35.153 19.9985 35.5701 20.5813 35.3457L35.4098 29.7575C35.5752 29.6939 35.7171 29.5835 35.817 29.4406C35.917 29.2977 35.9704 29.1289 35.9704 28.9562V16.1569C35.9704 15.5481 35.3381 15.1312 34.7552 15.3555L19.9268 20.9437C19.7614 21.0074 19.6196 21.1179 19.5196 21.2607C19.4197 21.4036 19.3662 21.5723 19.3662 21.7451" fill="white"/>
<path d="M15.9036 22.405L11.5028 24.468L11.056 24.6777L1.76626 28.9994C1.17759 29.2752 0.425781 28.8585 0.425781 28.2234V16.2101C0.425781 15.9803 0.547132 15.782 0.70987 15.6327C0.776633 15.5682 0.852375 15.513 0.934891 15.4689C1.1567 15.3395 1.47333 15.305 1.74256 15.4084L15.8297 20.8277C16.5457 21.1035 16.602 22.0777 15.9036 22.4052" fill="white"/>
<path d="M15.9037 22.405L11.5029 24.468L0.709961 15.6325C0.776737 15.5681 0.852478 15.513 0.934982 15.4689C1.15679 15.3395 1.47343 15.305 1.74265 15.4084L15.8298 20.8277C16.5458 21.1035 16.6021 22.0777 15.9037 22.4052" fill="white" fill-opacity="0.5"/>
</g>
<defs>
<clipPath id="clip0_1_1387">
<rect width="136.805" height="42.6404" fill="white" transform="translate(0.425781 0.359619)"/>
</clipPath>
</defs>
</svg>
