<svg width="114" height="43" viewBox="0 0 114 43" fill="none" xmlns="http://www.w3.org/2000/svg">
<g opacity="0.2" clip-path="url(#clip0_1_1382)">
<path d="M60.0043 12.8408C60.0043 14.1213 58.9728 15.1528 57.6923 15.1528C56.4118 15.1528 55.3803 14.1213 55.3803 12.8408C55.3803 11.5603 56.3763 10.5288 57.6923 10.5288C59.0084 10.5644 60.0043 11.5959 60.0043 12.8408ZM50.4718 17.5004C50.4718 17.7138 50.4718 18.0695 50.4718 18.0695C50.4718 18.0695 49.3691 16.6467 47.0216 16.6467C43.1445 16.6467 40.1211 19.599 40.1211 23.6895C40.1211 27.7443 43.109 30.7322 47.0216 30.7322C49.4047 30.7322 50.4718 29.2738 50.4718 29.2738V29.8785C50.4718 30.1631 50.6852 30.3765 50.9698 30.3765H53.8509V17.0024C53.8509 17.0024 51.2187 17.0024 50.9698 17.0024C50.6852 17.0024 50.4718 17.2514 50.4718 17.5004ZM50.4718 26.0726C49.9382 26.8551 48.8712 27.5309 47.5907 27.5309C45.3142 27.5309 43.5714 26.1082 43.5714 23.6895C43.5714 21.2707 45.3142 19.848 47.5907 19.848C48.8356 19.848 49.9738 20.5594 50.4718 21.3063V26.0726ZM55.985 17.0024H59.3997V30.3765H55.985V17.0024ZM106.991 16.6467C104.644 16.6467 103.541 18.0695 103.541 18.0695V10.5644H100.126V30.3765C100.126 30.3765 102.759 30.3765 103.008 30.3765C103.292 30.3765 103.505 30.1275 103.505 29.8785V29.2738C103.505 29.2738 104.608 30.7322 106.956 30.7322C110.833 30.7322 113.856 27.7443 113.856 23.6895C113.856 19.6346 110.833 16.6467 106.991 16.6467ZM106.422 27.4954C105.106 27.4954 104.075 26.8195 103.541 26.037V21.2707C104.075 20.5594 105.213 19.8124 106.422 19.8124C108.699 19.8124 110.441 21.2352 110.441 23.6539C110.441 26.0726 108.699 27.4954 106.422 27.4954ZM98.348 22.4445V30.412H94.9333V22.8358C94.9333 20.6305 94.2219 19.7413 92.3012 19.7413C91.2697 19.7413 90.2026 20.2748 89.5268 21.0573V30.3765H86.1122V17.0024H88.8154C89.1 17.0024 89.3134 17.2514 89.3134 17.5004V18.0695C90.3093 17.038 91.6254 16.6467 92.9414 16.6467C94.4353 16.6467 95.6803 17.0736 96.6762 17.9272C97.8856 18.9232 98.348 20.2037 98.348 22.4445ZM77.8245 16.6467C75.477 16.6467 74.3743 18.0695 74.3743 18.0695V10.5644H70.9597V30.3765C70.9597 30.3765 73.5918 30.3765 73.8408 30.3765C74.1253 30.3765 74.3387 30.1275 74.3387 29.8785V29.2738C74.3387 29.2738 75.4414 30.7322 77.7889 30.7322C81.666 30.7322 84.6894 27.7443 84.6894 23.6895C84.725 19.6346 81.7016 16.6467 77.8245 16.6467ZM77.2554 27.4954C75.9393 27.4954 74.9078 26.8195 74.3743 26.037V21.2707C74.9078 20.5594 76.0461 19.8124 77.2554 19.8124C79.5318 19.8124 81.2747 21.2352 81.2747 23.6539C81.2747 26.0726 79.5318 27.4954 77.2554 27.4954ZM68.0074 16.6467C69.0389 16.6467 69.5725 16.8246 69.5725 16.8246V19.9903C69.5725 19.9903 66.7269 19.0299 64.9485 21.0573V30.412H61.5338V17.0024C61.5338 17.0024 64.1659 17.0024 64.4149 17.0024C64.6995 17.0024 64.9129 17.2514 64.9129 17.5004V18.0695C65.5531 17.3226 66.9403 16.6467 68.0074 16.6467ZM32.5449 29.1671C32.3671 28.7403 32.1892 28.2779 32.0114 27.8866C31.7268 27.2464 31.4422 26.6417 31.1933 26.0726L31.1577 26.037C28.7034 20.7016 26.0713 15.2951 23.2969 9.95973L23.1902 9.74632C22.9056 9.21278 22.6211 8.64367 22.3365 8.07456C21.9808 7.43432 21.6251 6.7585 21.056 6.11826C19.9178 4.69549 18.2816 3.91296 16.5387 3.91296C14.7603 3.91296 13.1597 4.69549 11.9859 6.04712C11.4523 6.68736 11.0611 7.36318 10.7054 8.00343C10.4208 8.57253 10.1363 9.14164 9.85173 9.67518L9.74502 9.88859C7.00619 15.224 4.3385 20.6305 1.88423 25.9659L1.84866 26.037C1.59967 26.6061 1.31512 27.2108 1.03057 27.8511C0.852719 28.2423 0.674873 28.6691 0.497027 29.1315C0.0346271 30.4476 -0.10765 31.6925 0.0701963 32.973C0.461458 35.6407 2.23992 37.8816 4.6942 38.8775C5.619 39.2688 6.57936 39.4466 7.5753 39.4466C7.85986 39.4466 8.21555 39.4111 8.5001 39.3755C9.67389 39.2332 10.8832 38.8419 12.057 38.1661C13.5154 37.348 14.9026 36.1743 16.4676 34.4669C18.0327 36.1743 19.4554 37.348 20.8782 38.1661C22.052 38.8419 23.2613 39.2332 24.4351 39.3755C24.7197 39.4111 25.0754 39.4466 25.3599 39.4466C26.3559 39.4466 27.3518 39.2688 28.241 38.8775C30.7309 37.8816 32.4738 35.6051 32.865 32.973C33.1496 31.7281 33.0073 30.4832 32.5449 29.1671ZM16.5032 31.0167C14.5824 28.598 13.3375 26.3216 12.9107 24.4008C12.7328 23.5827 12.6973 22.8714 12.804 22.2311C12.8751 21.662 13.0885 21.164 13.3731 20.7372C14.0489 19.7768 15.1871 19.1722 16.5032 19.1722C17.8192 19.1722 18.993 19.7413 19.6333 20.7372C19.9178 21.164 20.1312 21.662 20.2024 22.2311C20.3091 22.8714 20.2735 23.6183 20.0957 24.4008C19.6688 26.286 18.4239 28.5624 16.5032 31.0167ZM30.6953 32.6885C30.4463 34.5381 29.2014 36.1387 27.4585 36.8501C26.6048 37.2058 25.68 37.3125 24.7552 37.2058C23.866 37.0991 22.9768 36.8145 22.052 36.281C20.7715 35.5696 19.491 34.4669 17.9971 32.8307C20.3447 29.9496 21.7674 27.3175 22.301 24.9699C22.5499 23.8673 22.5855 22.8714 22.4788 21.9466C22.3365 21.0573 22.0164 20.2392 21.5184 19.5279C20.4158 17.9272 18.5662 17.0024 16.5032 17.0024C14.4402 17.0024 12.5906 17.9628 11.4879 19.5279C10.9899 20.2392 10.6698 21.0573 10.5275 21.9466C10.3853 22.8714 10.4208 23.9029 10.7054 24.9699C11.2389 27.3175 12.6973 29.9852 15.0093 32.8663C13.5509 34.5025 12.2349 35.6051 10.9544 36.3165C10.0296 36.8501 9.14035 37.1346 8.25112 37.2413C7.29075 37.348 6.36595 37.2058 5.54786 36.8856C3.80496 36.1743 2.56004 34.5736 2.31106 32.724C2.20435 31.8348 2.27549 30.9456 2.63118 29.9496C2.73789 29.5939 2.91573 29.2383 3.09358 28.8114C3.34256 28.2423 3.62712 27.6376 3.91167 27.033L3.94724 26.9618C6.40152 21.662 9.03364 16.2555 11.7725 10.9912L11.8792 10.7778C12.1637 10.2443 12.4483 9.67518 12.7328 9.14164C13.0174 8.57253 13.3375 8.03899 13.7288 7.57659C14.4757 6.72293 15.4717 6.26053 16.5743 6.26053C17.677 6.26053 18.6729 6.72293 19.4199 7.57659C19.8111 8.03899 20.1312 8.57253 20.4158 9.14164C20.7003 9.67518 20.9849 10.2443 21.2695 10.7778L21.3762 10.9912C24.0794 16.2911 26.7115 21.6976 29.1658 26.9974V27.033C29.4504 27.6021 29.6994 28.2423 29.9839 28.8114C30.1618 29.2383 30.3396 29.5939 30.4463 29.9496C30.7309 30.8744 30.8376 31.7637 30.6953 32.6885Z" fill="white"/>
</g>
<defs>
<clipPath id="clip0_1_1382">
<rect width="113.708" height="42.6404" fill="white" transform="translate(0 0.359619)"/>
</clipPath>
</defs>
</svg>
