<svg width="120" height="33" viewBox="0 0 120 33" fill="none" xmlns="http://www.w3.org/2000/svg">
<g clip-path="url(#clip0_3_2313)">
<path d="M4.34686 15.1476C4.30332 15.0895 4.2458 15.0438 4.17989 15.015C4.11397 14.9862 4.04188 14.9752 3.97058 14.9831C3.89928 14.991 3.83118 15.0175 3.77287 15.0601C3.71456 15.1027 3.66801 15.1599 3.63772 15.2262L0.0443575 22.5528C0.0116225 22.6196 -0.00383325 22.6938 -0.000542268 22.7684C0.00274871 22.843 0.0246772 22.9154 0.0631611 22.9789C0.101645 23.0424 0.155407 23.0949 0.219343 23.1312C0.283279 23.1676 0.355266 23.1867 0.42847 23.1867H5.43204C5.51218 23.1886 5.59113 23.1667 5.65932 23.1237C5.7275 23.0807 5.78199 23.0185 5.81615 22.9445C6.89548 20.6701 6.24137 17.2118 4.34686 15.1476Z" fill="#0052CC"/>
<path d="M6.98233 8.48309C6.08697 9.88803 5.56518 11.5062 5.46819 13.1789C5.37119 14.8516 5.70232 16.5212 6.42907 18.024L8.84134 22.944C8.87701 23.0167 8.93183 23.0779 8.99967 23.1207C9.06752 23.1635 9.1457 23.1861 9.22545 23.1861H14.2281C14.3013 23.1861 14.3733 23.167 14.4373 23.1307C14.5012 23.0943 14.555 23.0419 14.5934 22.9784C14.6319 22.9149 14.6538 22.8424 14.6571 22.7678C14.6604 22.6933 14.645 22.6191 14.6122 22.5523C14.6122 22.5523 7.88196 8.82372 7.71282 8.48034C7.67937 8.41044 7.62729 8.35158 7.56254 8.31049C7.49778 8.2694 7.42299 8.24776 7.34673 8.24805C7.27046 8.24834 7.19583 8.27054 7.13137 8.31211C7.06692 8.35368 7.01526 8.41294 6.98233 8.48309V8.48309Z" fill="#0052CC"/>
<path d="M65.661 14.3598C65.661 16.1741 66.4863 17.6145 69.7144 18.2504C71.6403 18.6627 72.0438 18.9797 72.0438 19.6344C72.0438 20.2703 71.6394 20.682 70.2829 20.682C68.6434 20.6519 67.0366 20.2085 65.606 19.3914V22.3464C66.5781 22.8327 67.8619 23.3752 70.2463 23.3752C73.6211 23.3752 74.9601 21.8404 74.9601 19.5595L65.661 14.3598ZM74.9601 19.5595C74.9601 17.4085 73.8412 16.3983 70.6866 15.7065C68.9441 15.3137 68.5223 14.921 68.5223 14.3598C68.5223 13.6497 69.1459 13.3498 70.3013 13.3498C71.6954 13.3498 73.071 13.78 74.3732 14.3786V11.5541C73.1245 10.9745 71.7646 10.687 70.393 10.7125C67.2749 10.7125 65.661 12.0966 65.661 14.3598" fill="#0052CC"/>
<path d="M109.018 10.8984V23.1873H111.586V13.8164L112.668 16.3039L116.3 23.1873H119.528V10.8984H116.96V18.8292L115.988 16.5284L113.071 10.8984H109.018Z" fill="#0052CC"/>
<path d="M92.6866 10.8984H89.8804V23.1873H92.6866V10.8984Z" fill="#0052CC"/>
<path d="M86.3541 19.8486C86.3541 17.6976 85.2353 16.6874 82.0806 15.9956C80.3382 15.6027 79.9163 15.2101 79.9163 14.6489C79.9163 13.9387 80.5399 13.6389 81.6954 13.6389C83.0894 13.6389 84.465 14.0691 85.7672 14.6676V11.8432C84.5186 11.2636 83.1587 10.9761 81.787 11.0016C78.669 11.0016 77.055 12.3856 77.055 14.6489C77.055 16.4631 77.8803 17.9035 81.1084 18.5394C83.0344 18.9518 83.4378 19.2688 83.4378 19.9235C83.4378 20.5594 83.0335 20.971 81.677 20.971C80.0374 20.941 78.4307 20.4976 77 19.6804V22.6355C77.9722 23.1218 79.2559 23.6642 81.6403 23.6642C85.0151 23.6642 86.3541 22.1295 86.3541 19.8486" fill="#0052CC"/>
<path d="M43.8608 10.8984V23.1873H49.6288L50.537 20.5312H46.6853V10.8984H43.8608Z" fill="#0052CC"/>
<path d="M32.4658 10.8984V13.5543H35.5839V23.1873H38.4083V13.5543H41.7465V10.8984H32.4658Z" fill="#0052CC"/>
<path d="M28.3696 10.8984H24.6679L20.4658 23.1873H23.6748L24.2706 21.1176C25.7377 21.5569 27.2978 21.5569 28.7649 21.1176L29.3606 23.1873H32.5703L28.3696 10.8984ZM26.5186 18.9016C25.9959 18.9015 25.4759 18.8252 24.9743 18.675L26.5186 13.3122L28.0629 18.6768C27.5613 18.8264 27.0413 18.9021 26.5186 18.9016V18.9016Z" fill="#0052CC"/>
<path d="M59.5725 10.8984H55.871L51.6689 23.1873H54.8786L55.4744 21.1176C56.9415 21.5569 58.5016 21.5569 59.9687 21.1176L60.5644 23.1873H63.7741L59.5725 10.8984ZM57.7217 18.9016C57.199 18.9015 56.679 18.8252 56.1774 18.675L57.7217 13.3122L59.2661 18.6768C58.7644 18.8264 58.2444 18.9021 57.7217 18.9016Z" fill="#0052CC"/>
<path d="M102.799 10.8984H99.0971L94.895 23.1873H98.1047L98.7004 21.1176C100.168 21.5569 101.728 21.5569 103.195 21.1176L103.79 23.1873H107L102.799 10.8984ZM100.947 18.9016C100.424 18.9015 99.9039 18.8252 99.4024 18.675L100.947 13.3122L102.491 18.6768C101.989 18.8264 101.469 18.9021 100.947 18.9016V18.9016Z" fill="#0052CC"/>
</g>
<defs>
<clipPath id="clip0_3_2313">
<rect width="120" height="33" fill="white"/>
</clipPath>
</defs>
</svg>
