<svg width="271" height="61" viewBox="0 0 271 61" fill="none" xmlns="http://www.w3.org/2000/svg">
<g filter="url(#filter0_d_3_3951)">
<ellipse cx="8.29433" cy="50.2995" rx="4.66445" ry="4.68229" fill="white"/>
<path d="M11.9575 50.2995C11.9575 52.3361 10.3139 53.9805 8.29433 53.9805C6.2748 53.9805 4.63113 52.3361 4.63113 50.2995C4.63113 48.2629 6.2748 46.6184 8.29433 46.6184C10.3139 46.6184 11.9575 48.2629 11.9575 50.2995Z" stroke="#605BFF" stroke-width="2.0025"/>
</g>
<g filter="url(#filter1_d_3_3951)">
<ellipse cx="64.474" cy="44.5885" rx="4.66445" ry="4.68229" fill="white"/>
<path d="M68.1372 44.5885C68.1372 46.6251 66.4935 48.2696 64.474 48.2696C62.4545 48.2696 60.8108 46.6251 60.8108 44.5885C60.8108 42.552 62.4545 40.9075 64.474 40.9075C66.4935 40.9075 68.1372 42.552 68.1372 44.5885Z" stroke="#605BFF" stroke-width="2.0025"/>
</g>
<g filter="url(#filter2_d_3_3951)">
<ellipse cx="120.656" cy="21.9753" rx="4.66445" ry="4.68229" fill="white"/>
<path d="M124.319 21.9753C124.319 24.0119 122.675 25.6563 120.656 25.6563C118.636 25.6563 116.992 24.0119 116.992 21.9753C116.992 19.9387 118.636 18.2942 120.656 18.2942C122.675 18.2942 124.319 19.9387 124.319 21.9753Z" stroke="#605BFF" stroke-width="2.0025"/>
</g>
<g filter="url(#filter3_d_3_3951)">
<ellipse cx="220.016" cy="23.612" rx="4.66445" ry="4.68229" fill="white"/>
<path d="M223.679 23.612C223.679 25.6486 222.036 27.293 220.016 27.293C217.996 27.293 216.353 25.6486 216.353 23.612C216.353 21.5754 217.996 19.9309 220.016 19.9309C222.036 19.9309 223.679 21.5754 223.679 23.612Z" stroke="#605BFF" stroke-width="2.0025"/>
</g>
<g filter="url(#filter4_d_3_3951)">
<ellipse cx="263.197" cy="5.01432" rx="4.66445" ry="4.68229" fill="white"/>
<path d="M266.86 5.01432C266.86 7.05091 265.216 8.69536 263.197 8.69536C261.177 8.69536 259.533 7.05091 259.533 5.01432C259.533 2.97773 261.177 1.33328 263.197 1.33328C265.216 1.33328 266.86 2.97773 266.86 5.01432Z" stroke="#605BFF" stroke-width="2.0025"/>
</g>
<defs>
<filter id="filter0_d_3_3951" x="0.95988" y="45.6172" width="14.6691" height="14.7046" filterUnits="userSpaceOnUse" color-interpolation-filters="sRGB">
<feFlood flood-opacity="0" result="BackgroundImageFix"/>
<feColorMatrix in="SourceAlpha" type="matrix" values="0 0 0 0 0 0 0 0 0 0 0 0 0 0 0 0 0 0 127 0" result="hardAlpha"/>
<feOffset dy="2.67"/>
<feGaussianBlur stdDeviation="1.335"/>
<feColorMatrix type="matrix" values="0 0 0 0 0.376471 0 0 0 0 0.356863 0 0 0 0 1 0 0 0 0.17 0"/>
<feBlend mode="normal" in2="BackgroundImageFix" result="effect1_dropShadow_3_3951"/>
<feBlend mode="normal" in="SourceGraphic" in2="effect1_dropShadow_3_3951" result="shape"/>
</filter>
<filter id="filter1_d_3_3951" x="57.1396" y="39.9062" width="14.6691" height="14.7046" filterUnits="userSpaceOnUse" color-interpolation-filters="sRGB">
<feFlood flood-opacity="0" result="BackgroundImageFix"/>
<feColorMatrix in="SourceAlpha" type="matrix" values="0 0 0 0 0 0 0 0 0 0 0 0 0 0 0 0 0 0 127 0" result="hardAlpha"/>
<feOffset dy="2.67"/>
<feGaussianBlur stdDeviation="1.335"/>
<feColorMatrix type="matrix" values="0 0 0 0 0.376471 0 0 0 0 0.356863 0 0 0 0 1 0 0 0 0.17 0"/>
<feBlend mode="normal" in2="BackgroundImageFix" result="effect1_dropShadow_3_3951"/>
<feBlend mode="normal" in="SourceGraphic" in2="effect1_dropShadow_3_3951" result="shape"/>
</filter>
<filter id="filter2_d_3_3951" x="113.321" y="17.293" width="14.6691" height="14.7046" filterUnits="userSpaceOnUse" color-interpolation-filters="sRGB">
<feFlood flood-opacity="0" result="BackgroundImageFix"/>
<feColorMatrix in="SourceAlpha" type="matrix" values="0 0 0 0 0 0 0 0 0 0 0 0 0 0 0 0 0 0 127 0" result="hardAlpha"/>
<feOffset dy="2.67"/>
<feGaussianBlur stdDeviation="1.335"/>
<feColorMatrix type="matrix" values="0 0 0 0 0.376471 0 0 0 0 0.356863 0 0 0 0 1 0 0 0 0.17 0"/>
<feBlend mode="normal" in2="BackgroundImageFix" result="effect1_dropShadow_3_3951"/>
<feBlend mode="normal" in="SourceGraphic" in2="effect1_dropShadow_3_3951" result="shape"/>
</filter>
<filter id="filter3_d_3_3951" x="212.682" y="18.9297" width="14.6691" height="14.7046" filterUnits="userSpaceOnUse" color-interpolation-filters="sRGB">
<feFlood flood-opacity="0" result="BackgroundImageFix"/>
<feColorMatrix in="SourceAlpha" type="matrix" values="0 0 0 0 0 0 0 0 0 0 0 0 0 0 0 0 0 0 127 0" result="hardAlpha"/>
<feOffset dy="2.67"/>
<feGaussianBlur stdDeviation="1.335"/>
<feColorMatrix type="matrix" values="0 0 0 0 0.376471 0 0 0 0 0.356863 0 0 0 0 1 0 0 0 0.17 0"/>
<feBlend mode="normal" in2="BackgroundImageFix" result="effect1_dropShadow_3_3951"/>
<feBlend mode="normal" in="SourceGraphic" in2="effect1_dropShadow_3_3951" result="shape"/>
</filter>
<filter id="filter4_d_3_3951" x="255.862" y="0.332031" width="14.6691" height="14.7046" filterUnits="userSpaceOnUse" color-interpolation-filters="sRGB">
<feFlood flood-opacity="0" result="BackgroundImageFix"/>
<feColorMatrix in="SourceAlpha" type="matrix" values="0 0 0 0 0 0 0 0 0 0 0 0 0 0 0 0 0 0 127 0" result="hardAlpha"/>
<feOffset dy="2.67"/>
<feGaussianBlur stdDeviation="1.335"/>
<feColorMatrix type="matrix" values="0 0 0 0 0.376471 0 0 0 0 0.356863 0 0 0 0 1 0 0 0 0.17 0"/>
<feBlend mode="normal" in2="BackgroundImageFix" result="effect1_dropShadow_3_3951"/>
<feBlend mode="normal" in="SourceGraphic" in2="effect1_dropShadow_3_3951" result="shape"/>
</filter>
</defs>
</svg>
