<svg width="271" height="61" viewBox="0 0 271 61" fill="none" xmlns="http://www.w3.org/2000/svg">
<g filter="url(#filter0_d_3_3701)">
<ellipse cx="8.29433" cy="50.7995" rx="4.66445" ry="4.68229" fill="white"/>
<path d="M11.9575 50.7995C11.9575 52.8361 10.3139 54.4805 8.29433 54.4805C6.2748 54.4805 4.63113 52.8361 4.63113 50.7995C4.63113 48.7629 6.2748 47.1184 8.29433 47.1184C10.3139 47.1184 11.9575 48.7629 11.9575 50.7995Z" stroke="#605BFF" stroke-width="2.0025"/>
</g>
<g filter="url(#filter1_d_3_3701)">
<ellipse cx="64.474" cy="45.0885" rx="4.66445" ry="4.68229" fill="white"/>
<path d="M68.1372 45.0885C68.1372 47.1251 66.4935 48.7696 64.474 48.7696C62.4545 48.7696 60.8108 47.1251 60.8108 45.0885C60.8108 43.052 62.4545 41.4075 64.474 41.4075C66.4935 41.4075 68.1372 43.052 68.1372 45.0885Z" stroke="#605BFF" stroke-width="2.0025"/>
</g>
<g filter="url(#filter2_d_3_3701)">
<ellipse cx="120.656" cy="22.4753" rx="4.66445" ry="4.68229" fill="white"/>
<path d="M124.319 22.4753C124.319 24.5119 122.675 26.1563 120.656 26.1563C118.636 26.1563 116.992 24.5119 116.992 22.4753C116.992 20.4387 118.636 18.7942 120.656 18.7942C122.675 18.7942 124.319 20.4387 124.319 22.4753Z" stroke="#605BFF" stroke-width="2.0025"/>
</g>
<g filter="url(#filter3_d_3_3701)">
<ellipse cx="220.016" cy="24.112" rx="4.66445" ry="4.68229" fill="white"/>
<path d="M223.679 24.112C223.679 26.1486 222.036 27.793 220.016 27.793C217.996 27.793 216.353 26.1486 216.353 24.112C216.353 22.0754 217.996 20.4309 220.016 20.4309C222.036 20.4309 223.679 22.0754 223.679 24.112Z" stroke="#605BFF" stroke-width="2.0025"/>
</g>
<g filter="url(#filter4_d_3_3701)">
<ellipse cx="263.197" cy="5.51432" rx="4.66445" ry="4.68229" fill="white"/>
<path d="M266.86 5.51432C266.86 7.55091 265.216 9.19536 263.197 9.19536C261.177 9.19536 259.533 7.55091 259.533 5.51432C259.533 3.47773 261.177 1.83328 263.197 1.83328C265.216 1.83328 266.86 3.47773 266.86 5.51432Z" stroke="#605BFF" stroke-width="2.0025"/>
</g>
<defs>
<filter id="filter0_d_3_3701" x="0.95988" y="46.1172" width="14.6689" height="14.7045" filterUnits="userSpaceOnUse" color-interpolation-filters="sRGB">
<feFlood flood-opacity="0" result="BackgroundImageFix"/>
<feColorMatrix in="SourceAlpha" type="matrix" values="0 0 0 0 0 0 0 0 0 0 0 0 0 0 0 0 0 0 127 0" result="hardAlpha"/>
<feOffset dy="2.67"/>
<feGaussianBlur stdDeviation="1.335"/>
<feColorMatrix type="matrix" values="0 0 0 0 0.376471 0 0 0 0 0.356863 0 0 0 0 1 0 0 0 0.17 0"/>
<feBlend mode="normal" in2="BackgroundImageFix" result="effect1_dropShadow_3_3701"/>
<feBlend mode="normal" in="SourceGraphic" in2="effect1_dropShadow_3_3701" result="shape"/>
</filter>
<filter id="filter1_d_3_3701" x="57.1396" y="40.4062" width="14.6689" height="14.7045" filterUnits="userSpaceOnUse" color-interpolation-filters="sRGB">
<feFlood flood-opacity="0" result="BackgroundImageFix"/>
<feColorMatrix in="SourceAlpha" type="matrix" values="0 0 0 0 0 0 0 0 0 0 0 0 0 0 0 0 0 0 127 0" result="hardAlpha"/>
<feOffset dy="2.67"/>
<feGaussianBlur stdDeviation="1.335"/>
<feColorMatrix type="matrix" values="0 0 0 0 0.376471 0 0 0 0 0.356863 0 0 0 0 1 0 0 0 0.17 0"/>
<feBlend mode="normal" in2="BackgroundImageFix" result="effect1_dropShadow_3_3701"/>
<feBlend mode="normal" in="SourceGraphic" in2="effect1_dropShadow_3_3701" result="shape"/>
</filter>
<filter id="filter2_d_3_3701" x="113.321" y="17.793" width="14.6689" height="14.7045" filterUnits="userSpaceOnUse" color-interpolation-filters="sRGB">
<feFlood flood-opacity="0" result="BackgroundImageFix"/>
<feColorMatrix in="SourceAlpha" type="matrix" values="0 0 0 0 0 0 0 0 0 0 0 0 0 0 0 0 0 0 127 0" result="hardAlpha"/>
<feOffset dy="2.67"/>
<feGaussianBlur stdDeviation="1.335"/>
<feColorMatrix type="matrix" values="0 0 0 0 0.376471 0 0 0 0 0.356863 0 0 0 0 1 0 0 0 0.17 0"/>
<feBlend mode="normal" in2="BackgroundImageFix" result="effect1_dropShadow_3_3701"/>
<feBlend mode="normal" in="SourceGraphic" in2="effect1_dropShadow_3_3701" result="shape"/>
</filter>
<filter id="filter3_d_3_3701" x="212.682" y="19.4297" width="14.6689" height="14.7045" filterUnits="userSpaceOnUse" color-interpolation-filters="sRGB">
<feFlood flood-opacity="0" result="BackgroundImageFix"/>
<feColorMatrix in="SourceAlpha" type="matrix" values="0 0 0 0 0 0 0 0 0 0 0 0 0 0 0 0 0 0 127 0" result="hardAlpha"/>
<feOffset dy="2.67"/>
<feGaussianBlur stdDeviation="1.335"/>
<feColorMatrix type="matrix" values="0 0 0 0 0.376471 0 0 0 0 0.356863 0 0 0 0 1 0 0 0 0.17 0"/>
<feBlend mode="normal" in2="BackgroundImageFix" result="effect1_dropShadow_3_3701"/>
<feBlend mode="normal" in="SourceGraphic" in2="effect1_dropShadow_3_3701" result="shape"/>
</filter>
<filter id="filter4_d_3_3701" x="255.862" y="0.832031" width="14.6689" height="14.7045" filterUnits="userSpaceOnUse" color-interpolation-filters="sRGB">
<feFlood flood-opacity="0" result="BackgroundImageFix"/>
<feColorMatrix in="SourceAlpha" type="matrix" values="0 0 0 0 0 0 0 0 0 0 0 0 0 0 0 0 0 0 127 0" result="hardAlpha"/>
<feOffset dy="2.67"/>
<feGaussianBlur stdDeviation="1.335"/>
<feColorMatrix type="matrix" values="0 0 0 0 0.376471 0 0 0 0 0.356863 0 0 0 0 1 0 0 0 0.17 0"/>
<feBlend mode="normal" in2="BackgroundImageFix" result="effect1_dropShadow_3_3701"/>
<feBlend mode="normal" in="SourceGraphic" in2="effect1_dropShadow_3_3701" result="shape"/>
</filter>
</defs>
</svg>
