<svg width="32" height="32" viewBox="0 0 32 32" fill="none" xmlns="http://www.w3.org/2000/svg">
<path d="M15.9981 1.77777C23.8537 1.77777 30.2218 8.14584 30.2218 16.0014C30.2218 23.8556 23.8537 30.2222 15.9981 30.2222C8.14257 30.2236 1.77734 23.8556 1.77734 16.0014C1.77592 8.14584 8.14257 1.77777 15.9981 1.77777ZM15.9981 3.91089C14.3995 3.89355 12.8132 4.19346 11.3312 4.79325C9.84918 5.39304 8.50084 6.28081 7.36421 7.40518C6.22759 8.52954 5.32525 9.86817 4.70942 11.3436C4.09359 12.819 3.7765 14.4019 3.7765 16.0007C3.7765 17.5995 4.09359 19.1824 4.70942 20.6578C5.32525 22.1332 6.22759 23.4719 7.36421 24.5962C8.50084 25.7206 9.84918 26.6084 11.3312 27.2082C12.8132 27.8079 14.3995 28.1079 15.9981 28.0905C19.1818 28.056 22.2234 26.767 24.4625 24.5035C26.7017 22.24 27.9575 19.1846 27.9575 16.0007C27.9575 12.8168 26.7017 9.76143 24.4625 7.4979C22.2234 5.23437 19.1818 3.94542 15.9981 3.91089ZM15.9925 13.8655C16.2504 13.8651 16.4998 13.9583 16.6943 14.1277C16.8889 14.2972 17.0154 14.5314 17.0505 14.787L17.0604 14.932L17.0661 22.7563C17.0689 23.0284 16.9675 23.2914 16.7827 23.4912C16.598 23.691 16.3438 23.8127 16.0723 23.8312C15.8007 23.8498 15.5324 23.7638 15.3222 23.5909C15.112 23.418 14.9758 23.1713 14.9415 22.9013L14.933 22.7577L14.9273 14.9334C14.9273 14.6506 15.0397 14.3793 15.2397 14.1793C15.4397 13.9792 15.711 13.8669 15.9939 13.8669L15.9925 13.8655ZM15.9996 8.89244C16.1898 8.88641 16.3793 8.91869 16.5569 8.98734C16.7344 9.05599 16.8963 9.15961 17.033 9.29206C17.1698 9.42451 17.2785 9.58308 17.3527 9.75836C17.4269 9.93363 17.4652 10.122 17.4652 10.3124C17.4652 10.5027 17.4269 10.6911 17.3527 10.8664C17.2785 11.0417 17.1698 11.2003 17.033 11.3327C16.8963 11.4652 16.7344 11.5688 16.5569 11.6374C16.3793 11.7061 16.1898 11.7384 15.9996 11.7323C15.6308 11.7207 15.2809 11.5659 15.0242 11.3009C14.7674 11.0359 14.6238 10.6814 14.6238 10.3124C14.6238 9.94338 14.7674 9.58886 15.0242 9.32384C15.2809 9.05883 15.6308 8.90411 15.9996 8.89244Z" fill="#8D8D8D"/>
</svg>
