<svg width="32" height="32" viewBox="0 0 32 32" fill="none" xmlns="http://www.w3.org/2000/svg">
<path d="M15.9986 1.77783C23.8542 1.77783 30.2223 8.14591 30.2223 16.0015C30.2223 23.8556 23.8542 30.2223 15.9986 30.2223C8.14306 30.2237 1.77783 23.8556 1.77783 16.0015C1.77641 8.14591 8.14306 1.77783 15.9986 1.77783ZM15.9986 3.91095C14.3999 3.89361 12.8137 4.19352 11.3317 4.79331C9.84966 5.39311 8.50133 6.28088 7.3647 7.40524C6.22808 8.5296 5.32574 9.86823 4.70991 11.3437C4.09408 12.8191 3.77699 14.402 3.77699 16.0008C3.77699 17.5995 4.09408 19.1825 4.70991 20.6579C5.32574 22.1333 6.22808 23.4719 7.3647 24.5963C8.50133 25.7207 9.84966 26.6084 11.3317 27.2082C12.8137 27.808 14.3999 28.1079 15.9986 28.0906C19.1823 28.056 22.2239 26.7671 24.463 24.5036C26.7021 22.24 27.958 19.1847 27.958 16.0008C27.958 12.8169 26.7021 9.76149 24.463 7.49796C22.2239 5.23443 19.1823 3.94548 15.9986 3.91095ZM15.9929 13.8655C16.2509 13.8652 16.5003 13.9584 16.6948 14.1278C16.8894 14.2972 17.0159 14.5314 17.051 14.787L17.0609 14.9321L17.0666 22.7564C17.0694 23.0285 16.968 23.2914 16.7832 23.4913C16.5985 23.6911 16.3443 23.8127 16.0728 23.8313C15.8012 23.8498 15.5329 23.7639 15.3227 23.591C15.1124 23.4181 14.9763 23.1714 14.942 22.9014L14.9335 22.7578L14.9278 14.9335C14.9278 14.6506 15.0402 14.3793 15.2402 14.1793C15.4402 13.9793 15.7115 13.8669 15.9944 13.8669L15.9929 13.8655ZM16.0001 8.8925C16.1903 8.88648 16.3798 8.91875 16.5574 8.9874C16.7349 9.05605 16.8968 9.15967 17.0335 9.29212C17.1702 9.42457 17.2789 9.58314 17.3532 9.75842C17.4274 9.93369 17.4657 10.1221 17.4657 10.3124C17.4657 10.5028 17.4274 10.6912 17.3532 10.8665C17.2789 11.0417 17.1702 11.2003 17.0335 11.3328C16.8968 11.4652 16.7349 11.5688 16.5574 11.6375C16.3798 11.7061 16.1903 11.7384 16.0001 11.7324C15.6312 11.7207 15.2814 11.566 15.0247 11.301C14.7679 11.036 14.6243 10.6814 14.6243 10.3124C14.6243 9.94344 14.7679 9.58892 15.0247 9.3239C15.2814 9.05889 15.6312 8.90417 16.0001 8.8925Z" fill="#8D8D8D"/>
</svg>
