<svg width="32" height="32" viewBox="0 0 32 32" fill="none" xmlns="http://www.w3.org/2000/svg">
<path d="M15.9981 1.77783C23.8537 1.77783 30.2218 8.14591 30.2218 16.0015C30.2218 23.8556 23.8537 30.2223 15.9981 30.2223C8.14257 30.2237 1.77734 23.8556 1.77734 16.0015C1.77592 8.14591 8.14257 1.77783 15.9981 1.77783ZM15.9981 3.91095C14.3995 3.89361 12.8132 4.19352 11.3312 4.79331C9.84918 5.39311 8.50084 6.28088 7.36421 7.40524C6.22759 8.5296 5.32525 9.86823 4.70942 11.3437C4.09359 12.8191 3.7765 14.402 3.7765 16.0008C3.7765 17.5995 4.09359 19.1825 4.70942 20.6579C5.32525 22.1333 6.22759 23.4719 7.36421 24.5963C8.50084 25.7207 9.84918 26.6084 11.3312 27.2082C12.8132 27.808 14.3995 28.1079 15.9981 28.0906C19.1818 28.056 22.2234 26.7671 24.4625 24.5036C26.7017 22.24 27.9575 19.1847 27.9575 16.0008C27.9575 12.8169 26.7017 9.76149 24.4625 7.49796C22.2234 5.23443 19.1818 3.94548 15.9981 3.91095ZM15.9925 13.8655C16.2504 13.8652 16.4998 13.9584 16.6943 14.1278C16.8889 14.2972 17.0154 14.5314 17.0505 14.787L17.0604 14.9321L17.0661 22.7564C17.0689 23.0285 16.9675 23.2914 16.7827 23.4913C16.598 23.6911 16.3438 23.8127 16.0723 23.8313C15.8007 23.8498 15.5324 23.7639 15.3222 23.591C15.112 23.4181 14.9758 23.1714 14.9415 22.9014L14.933 22.7578L14.9273 14.9335C14.9273 14.6506 15.0397 14.3793 15.2397 14.1793C15.4397 13.9793 15.711 13.8669 15.9939 13.8669L15.9925 13.8655ZM15.9996 8.8925C16.1898 8.88648 16.3793 8.91875 16.5569 8.9874C16.7344 9.05605 16.8963 9.15967 17.033 9.29212C17.1698 9.42457 17.2785 9.58314 17.3527 9.75842C17.4269 9.93369 17.4652 10.1221 17.4652 10.3124C17.4652 10.5028 17.4269 10.6912 17.3527 10.8665C17.2785 11.0417 17.1698 11.2003 17.033 11.3328C16.8963 11.4652 16.7344 11.5688 16.5569 11.6375C16.3793 11.7061 16.1898 11.7384 15.9996 11.7324C15.6308 11.7207 15.2809 11.566 15.0242 11.301C14.7674 11.036 14.6238 10.6814 14.6238 10.3124C14.6238 9.94344 14.7674 9.58892 15.0242 9.3239C15.2809 9.05889 15.6308 8.90417 15.9996 8.8925Z" fill="#8D8D8D"/>
</svg>
