<svg width="311" height="38" viewBox="0 0 311 38" fill="none" xmlns="http://www.w3.org/2000/svg">
<path fill-rule="evenodd" clip-rule="evenodd" d="M86.1665 23.3182C86.2198 23.9522 86.7072 24.7593 87.5521 24.7593H88.0459C88.2378 24.7593 88.3947 24.596 88.3947 24.3965V13.0903H88.3923C88.3827 12.8998 88.2314 12.7472 88.0459 12.7472H86.5153C86.3297 12.7472 86.1784 12.8998 86.1689 13.0903H86.1665V14.009C85.2284 12.8059 83.7496 12.3066 82.2668 12.3066C78.8957 12.3066 76.1631 15.1521 76.1631 18.6625C76.1631 22.1731 78.8957 25.0186 82.2668 25.0186C83.7496 25.0186 85.3662 24.4198 86.1665 23.3168V23.3182ZM82.2723 22.7942C80.1286 22.7942 78.3906 20.9445 78.3906 18.6625C78.3906 16.3809 80.1286 14.5311 82.2723 14.5311C84.4169 14.5311 86.1545 16.3809 86.1545 18.6625C86.1545 20.9445 84.4169 22.7942 82.2723 22.7942Z" fill="#0D0E10"/>
<path fill-rule="evenodd" clip-rule="evenodd" d="M74.227 17.8565C74.227 14.5586 72.2291 12.3338 69.043 12.3338C67.522 12.3338 66.2752 13.2496 65.8349 14.0363C65.7397 13.4212 65.4261 12.7746 64.4535 12.7746H63.9578C63.766 12.7746 63.6095 12.938 63.6095 13.1375V23.3465C63.6095 23.3468 63.6095 23.3476 63.6095 23.3481V24.4447H63.6114C63.6214 24.6349 63.7728 24.7876 63.9579 24.7876H65.4889C65.5123 24.7876 65.5354 24.7847 65.5576 24.7802C65.5677 24.7781 65.5771 24.774 65.587 24.7711C65.5983 24.7674 65.6102 24.7646 65.621 24.76C65.6347 24.7541 65.647 24.7462 65.6597 24.7389C65.6659 24.7349 65.6724 24.7321 65.6784 24.728C65.6937 24.7177 65.7077 24.7054 65.7212 24.6928C65.7234 24.6905 65.7261 24.6889 65.7283 24.6867C65.7435 24.6714 65.7575 24.6545 65.7697 24.6369C65.808 24.5822 65.8314 24.5159 65.8353 24.4447H65.8373V17.7658C65.8373 15.9946 67.2163 14.5586 68.9174 14.5586C70.6184 14.5586 71.9975 15.9946 71.9975 17.7658L71.9988 23.3485L71.9992 23.3465C71.9992 23.3515 72 23.3565 72 23.3618V24.4447H72.002C72.0121 24.6349 72.1634 24.7876 72.3484 24.7876H73.8795C73.9031 24.7876 73.9259 24.7847 73.9481 24.7802C73.9572 24.7785 73.9655 24.7747 73.9744 24.7721C73.9869 24.7683 73.9998 24.765 74.0119 24.76C74.0244 24.7546 74.0358 24.7471 74.0476 24.7401C74.0549 24.7359 74.0624 24.7328 74.0694 24.728C74.0835 24.7183 74.0964 24.7066 74.1092 24.6951C74.1124 24.692 74.116 24.6896 74.119 24.6865C74.1336 24.6719 74.1465 24.6562 74.1583 24.6397C74.1592 24.6384 74.1601 24.6374 74.161 24.6362C74.1988 24.5819 74.2219 24.5164 74.2258 24.4456C74.2258 24.4451 74.226 24.4447 74.226 24.4447H74.2281L74.227 17.8565Z" fill="#0D0E10"/>
<path fill-rule="evenodd" clip-rule="evenodd" d="M58.283 23.3182C58.3365 23.9522 58.8239 24.7593 59.6684 24.7593H60.1624C60.354 24.7593 60.5108 24.5959 60.5108 24.3965V13.0903H60.5088C60.4988 12.8998 60.3473 12.7472 60.1624 12.7472H58.6315C58.4463 12.7472 58.2951 12.8998 58.2847 13.0903H58.283V14.009C57.3449 12.8059 55.866 12.3066 54.3829 12.3066C51.012 12.3066 48.2794 15.1521 48.2794 18.6625C48.2794 22.173 51.012 25.0187 54.3829 25.0187C55.866 25.0187 57.4822 24.4199 58.2828 23.3167L58.283 23.3182ZM54.3889 22.7942C52.2451 22.7942 50.507 20.9446 50.507 18.6625C50.507 16.3809 52.2451 14.5311 54.3889 14.5311C56.5329 14.5311 58.2707 16.3809 58.2707 18.6625C58.2707 20.9446 56.5329 22.7942 54.3889 22.7942Z" fill="#0D0E10"/>
<path fill-rule="evenodd" clip-rule="evenodd" d="M39.2258 21.6989C40.2478 22.4362 41.3634 22.7943 42.4355 22.7943C43.4568 22.7943 44.5127 22.243 44.5127 21.2833C44.5127 20.0021 42.2119 19.8027 40.7664 19.2912C39.3206 18.7796 38.0753 17.722 38.0753 16.0094C38.0753 13.3887 40.3177 12.3064 42.4107 12.3064C43.7368 12.3064 45.105 12.7617 45.9921 13.414C46.2975 13.6551 46.1115 13.9318 46.1115 13.9318L45.2647 15.1911C45.1696 15.333 45.0031 15.4555 44.7643 15.302C44.5254 15.1486 43.6876 14.531 42.4107 14.531C41.1337 14.531 40.3645 15.1451 40.3645 15.9062C40.3645 16.8189 41.3642 17.106 42.5352 17.4171C44.5758 17.9898 46.8019 18.6783 46.8019 21.2833C46.8019 23.5922 44.7278 25.0192 42.4355 25.0192C40.6984 25.0192 39.2194 24.5035 37.979 23.5557C37.7206 23.2864 37.9011 23.0363 37.9011 23.0363L38.7437 21.7834C38.9151 21.5492 39.1313 21.6309 39.2258 21.6989Z" fill="#0D0E10"/>
<path fill-rule="evenodd" clip-rule="evenodd" d="M33.3401 23.3182C33.3936 23.9522 33.881 24.7593 34.7254 24.7593H35.2196C35.4111 24.7593 35.568 24.5959 35.568 24.3965V13.0903H35.5659C35.5559 12.8998 35.4046 12.7472 35.2196 12.7472H33.6886C33.5034 12.7472 33.3522 12.8998 33.3419 13.0903H33.3401V14.009C32.4021 12.8059 30.9232 12.3066 29.4401 12.3066C26.0692 12.3066 23.3364 15.1521 23.3364 18.6625C23.3364 22.173 26.0692 25.0187 29.4401 25.0187C30.9232 25.0187 32.5394 24.4199 33.3398 23.3167L33.3401 23.3182ZM29.4461 22.7942C27.3022 22.7942 25.5641 20.9446 25.5641 18.6625C25.5641 16.3809 27.3022 14.5311 29.4461 14.5311C31.59 14.5311 33.3278 16.3809 33.3278 18.6625C33.3278 20.9446 31.59 22.7942 29.4461 22.7942Z" fill="#0D0E10"/>
<path fill-rule="evenodd" clip-rule="evenodd" d="M14.7793 19.0948C12.5108 19.0948 10.6717 21.0083 10.6717 23.3689C10.6717 25.7293 12.5108 27.6428 14.7793 27.6428C17.0478 27.6428 18.8869 25.7293 18.8869 23.3689C18.8869 21.0083 17.0478 19.0948 14.7793 19.0948ZM4.10755 19.0952C1.83903 19.0952 0 21.0083 0 23.3689C0 25.7293 1.83903 27.6428 4.10755 27.6428C6.37617 27.6428 8.2153 25.7293 8.2153 23.3689C8.2153 21.0083 6.37617 19.0952 4.10755 19.0952ZM13.5509 13.7523C13.5509 16.1129 11.712 18.0266 9.44343 18.0266C7.17483 18.0266 5.33589 16.1129 5.33589 13.7523C5.33589 11.3922 7.17483 9.47852 9.44343 9.47852C11.712 9.47852 13.5509 11.3922 13.5509 13.7523Z" fill="#F06A6A"/>
</svg>
