<svg width="352" height="187" viewBox="0 0 352 187" fill="none" xmlns="http://www.w3.org/2000/svg">
<g filter="url(#filter0_ddd_3_8199)">
<rect x="2" y="2" width="348" height="182" rx="16" fill="white"/>
<path d="M314.229 40C314.229 40.2596 314.144 40.5133 313.987 40.7292C313.829 40.945 313.604 41.1133 313.342 41.2126C313.079 41.3119 312.791 41.3379 312.512 41.2873C312.233 41.2366 311.978 41.1116 311.777 40.9281C311.576 40.7445 311.439 40.5107 311.384 40.2561C311.328 40.0015 311.357 39.7376 311.465 39.4977C311.574 39.2579 311.758 39.0529 311.994 38.9087C312.23 38.7645 312.508 38.6875 312.792 38.6875C313.173 38.6875 313.539 38.8258 313.808 39.0719C314.077 39.3181 314.229 39.6519 314.229 40ZM320.931 38.6875C320.647 38.6875 320.37 38.7645 320.133 38.9087C319.897 39.0529 319.713 39.2579 319.604 39.4977C319.496 39.7376 319.467 40.0015 319.523 40.2561C319.578 40.5107 319.715 40.7445 319.916 40.9281C320.117 41.1116 320.373 41.2366 320.651 41.2873C320.93 41.3379 321.219 41.3119 321.481 41.2126C321.744 41.1133 321.968 40.945 322.126 40.7292C322.284 40.5133 322.368 40.2596 322.368 40C322.368 39.6519 322.216 39.3181 321.947 39.0719C321.678 38.8258 321.312 38.6875 320.931 38.6875ZM304.653 38.6875C304.369 38.6875 304.091 38.7645 303.855 38.9087C303.619 39.0529 303.435 39.2579 303.326 39.4977C303.217 39.7376 303.189 40.0015 303.244 40.2561C303.3 40.5107 303.437 40.7445 303.637 40.9281C303.838 41.1116 304.094 41.2366 304.373 41.2873C304.652 41.3379 304.94 41.3119 305.203 41.2126C305.465 41.1133 305.69 40.945 305.847 40.7292C306.005 40.5133 306.089 40.2596 306.089 40C306.089 39.6519 305.938 39.3181 305.669 39.0719C305.399 38.8258 305.034 38.6875 304.653 38.6875Z" fill="black"/>
<g clip-path="url(#clip0_3_8199)">
<path d="M101.76 82.656C101.702 82.5767 101.626 82.5144 101.539 82.4751C101.451 82.4358 101.356 82.4208 101.261 82.4316C101.167 82.4424 101.077 82.4786 100.999 82.5366C100.922 82.5947 100.86 82.6727 100.82 82.7631L96.0591 92.754C96.0157 92.8451 95.9952 92.9462 95.9996 93.0479C96.004 93.1496 96.033 93.2485 96.084 93.3351C96.135 93.4217 96.2062 93.4931 96.2909 93.5427C96.3757 93.5923 96.471 93.6183 96.568 93.6183H103.198C103.304 93.6209 103.409 93.5911 103.499 93.5325C103.589 93.4739 103.661 93.389 103.707 93.2882C105.137 90.1866 104.27 85.4707 101.76 82.656Z" fill="#605BFF"/>
<path d="M105.252 73.5681C104.065 75.4839 103.374 77.6905 103.246 79.9714C103.117 82.2524 103.556 84.5291 104.519 86.5784L107.715 93.2875C107.762 93.3867 107.835 93.4701 107.925 93.5284C108.015 93.5868 108.118 93.6177 108.224 93.6177H114.852C114.949 93.6177 115.045 93.5916 115.13 93.542C115.214 93.4925 115.285 93.421 115.336 93.3344C115.387 93.2478 115.417 93.149 115.421 93.0473C115.425 92.9456 115.405 92.8444 115.361 92.7533C115.361 92.7533 106.444 74.0326 106.22 73.5643C106.175 73.469 106.106 73.3887 106.021 73.3327C105.935 73.2767 105.836 73.2472 105.735 73.2476C105.634 73.248 105.535 73.2782 105.449 73.3349C105.364 73.3916 105.295 73.4724 105.252 73.5681V73.5681Z" fill="#605BFF"/>
<path d="M183.001 81.5817C183.001 84.0557 184.094 86.0199 188.371 86.887C190.923 87.4493 191.458 87.8816 191.458 88.7743C191.458 89.6415 190.922 90.2028 189.125 90.2028C186.952 90.1618 184.823 89.5572 182.928 88.4429V92.4725C184.216 93.1357 185.917 93.8754 189.076 93.8754C193.548 93.8754 195.322 91.7825 195.322 88.6722L183.001 81.5817ZM195.322 88.6722C195.322 85.739 193.839 84.3615 189.66 83.4181C187.351 82.8824 186.792 82.347 186.792 81.5817C186.792 80.6133 187.618 80.2044 189.149 80.2044C190.996 80.2044 192.819 80.7911 194.544 81.6073V77.7557C192.89 76.9654 191.088 76.5733 189.271 76.6081C185.139 76.6081 183.001 78.4954 183.001 81.5817" fill="#605BFF"/>
<path d="M240.449 76.8613V93.6188H243.851V80.8403L245.285 84.2324L250.097 93.6188H254.374V76.8613H250.972V87.676L249.684 84.5385L245.82 76.8613H240.449Z" fill="#605BFF"/>
<path d="M218.81 76.8613H215.092V93.6188H218.81V76.8613Z" fill="#605BFF"/>
<path d="M210.8 88.6722C210.8 85.739 209.318 84.3615 205.138 83.4181C202.829 82.8824 202.27 82.347 202.27 81.5817C202.27 80.6133 203.097 80.2044 204.628 80.2044C206.475 80.2044 208.297 80.7911 210.023 81.6073V77.7557C208.368 76.9654 206.566 76.5733 204.749 76.6081C200.618 76.6081 198.479 78.4954 198.479 81.5817C198.479 84.0557 199.573 86.0199 203.85 86.887C206.402 87.4493 206.936 87.8816 206.936 88.7743C206.936 89.6415 206.401 90.2028 204.603 90.2028C202.431 90.1618 200.302 89.5572 198.406 88.4429V92.4725C199.694 93.1357 201.395 93.8754 204.555 93.8754C209.026 93.8754 210.8 91.7825 210.8 88.6722" fill="#605BFF"/>
<path d="M154.115 76.8613V93.6188H161.758L162.961 89.9969H157.858V76.8613H154.115Z" fill="#605BFF"/>
<path d="M139.018 76.8613V80.483H143.149V93.6188H146.891V80.483H151.314V76.8613H139.018Z" fill="#605BFF"/>
<path d="M133.59 76.8613H128.685L123.117 93.6188H127.369L128.158 90.7966C130.102 91.3956 132.169 91.3956 134.113 90.7966L134.903 93.6188H139.156L133.59 76.8613ZM131.137 87.7747C130.445 87.7746 129.755 87.6706 129.091 87.4657L131.137 80.1528L133.183 87.4682C132.519 87.6722 131.83 87.7754 131.137 87.7747V87.7747Z" fill="#605BFF"/>
<path d="M174.933 76.8613H170.029L164.461 93.6188H168.714L169.503 90.7966C171.447 91.3956 173.514 91.3956 175.458 90.7966L176.247 93.6188H180.5L174.933 76.8613ZM172.481 87.7747C171.788 87.7746 171.099 87.6706 170.435 87.4657L172.481 80.1528L174.527 87.4682C173.862 87.6722 173.173 87.7754 172.481 87.7747Z" fill="#605BFF"/>
<path d="M232.208 76.8613H227.304L221.736 93.6188H225.989L226.778 90.7966C228.722 91.3956 230.79 91.3956 232.733 90.7966L233.523 93.6188H237.776L232.208 76.8613ZM229.755 87.7747C229.062 87.7746 228.373 87.6706 227.709 87.4657L229.755 80.1528L231.801 87.4682C231.136 87.6722 230.447 87.7754 229.755 87.7747V87.7747Z" fill="#605BFF"/>
</g>
</g>
<defs>
<filter id="filter0_ddd_3_8199" x="0" y="0" width="352" height="187" filterUnits="userSpaceOnUse" color-interpolation-filters="sRGB">
<feFlood flood-opacity="0" result="BackgroundImageFix"/>
<feColorMatrix in="SourceAlpha" type="matrix" values="0 0 0 0 0 0 0 0 0 0 0 0 0 0 0 0 0 0 127 0" result="hardAlpha"/>
<feOffset dy="3"/>
<feComposite in2="hardAlpha" operator="out"/>
<feColorMatrix type="matrix" values="0 0 0 0 0.376471 0 0 0 0 0.356863 0 0 0 0 1 0 0 0 1 0"/>
<feBlend mode="normal" in2="BackgroundImageFix" result="effect1_dropShadow_3_8199"/>
<feColorMatrix in="SourceAlpha" type="matrix" values="0 0 0 0 0 0 0 0 0 0 0 0 0 0 0 0 0 0 127 0" result="hardAlpha"/>
<feOffset dx="2" dy="-2"/>
<feComposite in2="hardAlpha" operator="out"/>
<feColorMatrix type="matrix" values="0 0 0 0 0 0 0 0 0 0 0 0 0 0 0 0 0 0 0.1 0"/>
<feBlend mode="normal" in2="effect1_dropShadow_3_8199" result="effect2_dropShadow_3_8199"/>
<feColorMatrix in="SourceAlpha" type="matrix" values="0 0 0 0 0 0 0 0 0 0 0 0 0 0 0 0 0 0 127 0" result="hardAlpha"/>
<feOffset dx="-2"/>
<feComposite in2="hardAlpha" operator="out"/>
<feColorMatrix type="matrix" values="0 0 0 0 0 0 0 0 0 0 0 0 0 0 0 0 0 0 0.1 0"/>
<feBlend mode="normal" in2="effect2_dropShadow_3_8199" result="effect3_dropShadow_3_8199"/>
<feBlend mode="normal" in="SourceGraphic" in2="effect3_dropShadow_3_8199" result="shape"/>
</filter>
<clipPath id="clip0_3_8199">
<rect width="159" height="45" fill="white" transform="translate(96 62)"/>
</clipPath>
</defs>
</svg>
