<svg width="352" height="187" viewBox="0 0 352 187" fill="none" xmlns="http://www.w3.org/2000/svg">
<g filter="url(#filter0_ddd_3_8232)">
<rect x="2" y="2" width="348" height="182" rx="16" fill="white"/>
<path d="M314.229 40C314.229 40.2596 314.144 40.5133 313.987 40.7292C313.829 40.945 313.604 41.1133 313.342 41.2126C313.079 41.3119 312.791 41.3379 312.512 41.2873C312.233 41.2366 311.978 41.1116 311.777 40.9281C311.576 40.7445 311.439 40.5107 311.384 40.2561C311.328 40.0015 311.357 39.7376 311.465 39.4977C311.574 39.2579 311.758 39.0529 311.994 38.9087C312.23 38.7645 312.508 38.6875 312.792 38.6875C313.173 38.6875 313.539 38.8258 313.808 39.0719C314.077 39.3181 314.229 39.6519 314.229 40ZM320.931 38.6875C320.647 38.6875 320.37 38.7645 320.133 38.9087C319.897 39.0529 319.713 39.2579 319.604 39.4977C319.496 39.7376 319.467 40.0015 319.523 40.2561C319.578 40.5107 319.715 40.7445 319.916 40.9281C320.117 41.1116 320.373 41.2366 320.651 41.2873C320.93 41.3379 321.219 41.3119 321.481 41.2126C321.744 41.1133 321.968 40.945 322.126 40.7292C322.284 40.5133 322.368 40.2596 322.368 40C322.368 39.6519 322.216 39.3181 321.947 39.0719C321.678 38.8258 321.312 38.6875 320.931 38.6875ZM304.653 38.6875C304.369 38.6875 304.091 38.7645 303.855 38.9087C303.619 39.0529 303.435 39.2579 303.326 39.4977C303.217 39.7376 303.189 40.0015 303.244 40.2561C303.3 40.5107 303.437 40.7445 303.637 40.9281C303.838 41.1116 304.094 41.2366 304.373 41.2873C304.652 41.3379 304.94 41.3119 305.203 41.2126C305.465 41.1133 305.69 40.945 305.847 40.7292C306.005 40.5133 306.089 40.2596 306.089 40C306.089 39.6519 305.938 39.3181 305.669 39.0719C305.399 38.8258 305.034 38.6875 304.653 38.6875Z" fill="black"/>
<g clip-path="url(#clip0_3_8232)">
<path d="M134.889 69.3389C130.872 69.3389 129.462 72.1319 129.462 74.7387V76.3347H128.611C127.999 76.3347 127.521 76.8135 127.521 77.4253C127.521 78.0371 127.999 78.5159 128.611 78.5159H129.462V89.5284C129.462 90.1668 129.968 90.6988 130.633 90.6988C131.271 90.6988 131.803 90.1934 131.803 89.5284V78.5159H134.383C134.995 78.5159 135.474 78.0371 135.474 77.4253C135.474 76.8135 134.995 76.3347 134.383 76.3347H131.803V74.7387C131.803 73.2757 132.335 71.5467 134.915 71.5467C135.527 71.5467 136.006 71.0679 136.006 70.4561C135.979 69.8177 135.501 69.3389 134.889 69.3389Z" fill="#4D4D4D"/>
<path d="M143.934 75.9614C142.205 75.9614 140.742 76.6796 139.917 77.85V77.2382C139.917 76.5998 139.412 76.0678 138.747 76.0678C138.108 76.0678 137.576 76.5732 137.576 77.2382V89.5275C137.576 90.1659 138.082 90.6979 138.747 90.6979C139.385 90.6979 139.917 90.1925 139.917 89.5275V82.7445C139.917 79.8982 141.433 78.1958 143.934 78.1958C144.545 78.1958 145.051 77.6904 145.051 77.0786C145.077 76.4668 144.572 75.9614 143.934 75.9614Z" fill="#4D4D4D"/>
<path d="M158.164 81.9996C158.164 81.3346 158.058 79.6056 157.047 78.1692C156.01 76.6796 154.387 75.9082 152.179 75.9082C148.083 75.9082 145.742 78.6214 145.742 83.3562C145.742 88.2507 148.083 90.8575 152.472 90.8575C155.425 90.8575 157.047 89.3945 157.34 89.1019C157.526 88.9157 157.739 88.6763 157.739 88.2773C157.739 87.6921 157.26 87.2133 156.675 87.2133C156.382 87.2133 156.196 87.2931 156.01 87.4261C155.159 88.0645 154.174 88.7029 152.499 88.7029C149.865 88.7029 148.189 86.9739 148.11 84.1543H156.755C158.164 84.1277 158.164 82.8508 158.164 81.9996ZM152.179 78.0362C154.573 78.0362 155.824 79.3928 155.877 82.0528H148.136C148.349 79.4726 149.785 78.0362 152.179 78.0362Z" fill="#4D4D4D"/>
<path d="M165.985 82.1866C164.256 81.6014 162.766 81.0694 162.766 79.7926C162.766 78.3828 164.336 78.17 165.267 78.17C166.943 78.17 167.767 78.7552 168.432 79.3936C168.645 79.6064 168.911 79.7128 169.204 79.7128C169.789 79.7128 170.268 79.234 170.268 78.6488C170.268 78.3296 170.135 78.1168 170.028 77.9572C169.044 76.6538 167.368 75.9355 165.267 75.9355C162.288 75.9355 160.452 77.4252 160.452 79.7926C160.452 82.692 163.006 83.5698 165.24 84.3146C166.943 84.8998 168.406 85.3786 168.406 86.6288C168.406 88.3312 166.517 88.5972 165.373 88.5972C163.83 88.5972 162.633 88.1184 161.649 87.1608C161.357 86.8682 161.037 86.815 160.851 86.815C160.266 86.815 159.787 87.2938 159.787 87.879C159.787 88.1184 159.867 88.3046 160.053 88.5706C160.931 89.6878 162.926 90.8316 165.373 90.8316C168.725 90.8316 170.72 89.2622 170.72 86.6554C170.72 83.8358 168.219 82.958 165.985 82.1866Z" fill="#4D4D4D"/>
<path d="M179.79 75.9085C178.194 75.9085 176.758 76.5469 175.96 77.5577V69.6841C175.96 69.0457 175.455 68.5137 174.79 68.5137C174.151 68.5137 173.619 69.0191 173.619 69.6841V89.5544C173.619 90.1928 174.125 90.7248 174.79 90.7248C175.428 90.7248 175.96 90.2194 175.96 89.5544V82.0797C175.96 79.3931 177.263 78.0365 179.79 78.0365C182.238 78.0365 183.248 79.1537 183.248 81.8669V89.5544C183.248 90.1928 183.754 90.7248 184.419 90.7248C185.057 90.7248 185.589 90.2194 185.589 89.5544V81.4679C185.536 77.7705 183.594 75.9085 179.79 75.9085Z" fill="#4D4D4D"/>
<path d="M204.928 76.0952C204.422 76.0952 204.023 76.3878 203.837 76.8666L200.512 86.3363L197.799 76.8666C197.692 76.4942 197.293 76.0952 196.708 76.0952C196.123 76.0952 195.724 76.4942 195.618 76.8666L192.904 86.3097L189.579 76.84C189.393 76.3612 188.994 76.0952 188.489 76.0952C187.85 76.0952 187.318 76.6006 187.318 77.2656C187.318 77.4252 187.345 77.5848 187.425 77.7444L191.867 89.9539C192.053 90.4327 192.452 90.6987 192.958 90.6987C193.49 90.6987 193.942 90.3529 194.075 89.8741L196.682 80.9098L199.288 89.8741C199.421 90.3529 199.9 90.6987 200.406 90.6987C200.911 90.6987 201.31 90.4061 201.496 89.9273L205.938 77.7178C206.018 77.5582 206.045 77.372 206.045 77.2124C206.071 76.6006 205.566 76.0952 204.928 76.0952Z" fill="#4D4D4D"/>
<path d="M213.385 75.9082C209.156 75.9082 206.842 78.5682 206.842 83.3562C206.842 88.1975 209.156 90.8575 213.385 90.8575C217.615 90.8575 219.929 88.1975 219.929 83.3562C219.929 78.5416 217.588 75.9082 213.385 75.9082ZM213.385 88.7295C210.566 88.7295 209.183 86.9739 209.183 83.3828C209.183 79.845 210.592 78.0628 213.385 78.0628C216.178 78.0628 217.588 79.845 217.588 83.3828C217.588 86.9739 216.205 88.7295 213.385 88.7295Z" fill="#4D4D4D"/>
<path d="M228.921 75.9614C227.192 75.9614 225.729 76.6796 224.904 77.85V77.2382C224.904 76.5998 224.399 76.0678 223.734 76.0678C223.095 76.0678 222.563 76.5732 222.563 77.2382V89.5275C222.563 90.1659 223.069 90.6979 223.734 90.6979C224.372 90.6979 224.904 90.1925 224.904 89.5275V82.7445C224.904 79.8982 226.42 78.1958 228.921 78.1958C229.533 78.1958 230.038 77.6904 230.038 77.0786C230.038 76.4668 229.533 75.9614 228.921 75.9614Z" fill="#4D4D4D"/>
<path d="M237.753 82.0265L242.567 78.1695C242.966 77.8503 243.019 77.4513 243.019 77.2385C243.019 76.6001 242.514 76.0681 241.849 76.0681C241.663 76.0681 241.344 76.0947 241.051 76.3607L234.215 81.9467V69.6841C234.215 69.0457 233.709 68.5137 233.044 68.5137C232.406 68.5137 231.874 69.0191 231.874 69.6841V89.5544C231.874 90.1928 232.379 90.7248 233.044 90.7248C233.683 90.7248 234.215 90.2194 234.215 89.5544V84.7664L235.837 83.463L241.078 90.1928C241.37 90.5386 241.689 90.7248 242.062 90.7248C242.7 90.7248 243.232 90.2194 243.232 89.5544C243.232 89.3682 243.206 89.1022 242.993 88.8362L237.753 82.0265Z" fill="#4D4D4D"/>
<path d="M250.867 82.1866C249.138 81.6014 247.648 81.0694 247.648 79.7926C247.648 78.3828 249.218 78.17 250.149 78.17C251.824 78.17 252.649 78.7552 253.314 79.3936C253.527 79.6064 253.793 79.7128 254.085 79.7128C254.671 79.7128 255.149 79.234 255.149 78.6488C255.149 78.303 254.963 78.0636 254.91 77.9572C253.926 76.6538 252.25 75.9355 250.149 75.9355C247.169 75.9355 245.334 77.4252 245.334 79.7926C245.334 82.692 247.888 83.5698 250.122 84.3146C251.824 84.8998 253.287 85.3786 253.287 86.6288C253.287 88.3312 251.399 88.5972 250.255 88.5972C248.712 88.5972 247.515 88.1184 246.531 87.1608C246.238 86.8682 245.946 86.815 245.733 86.815C245.148 86.815 244.669 87.2938 244.669 87.879C244.669 88.1184 244.749 88.3046 244.935 88.5706C245.813 89.6878 247.808 90.8316 250.255 90.8316C253.607 90.8316 255.602 89.2622 255.602 86.6554C255.602 83.8358 253.101 82.958 250.867 82.1866Z" fill="#4D4D4D"/>
<path d="M96.1592 88.8891C96.6114 91.8417 97.9946 94.5017 99.9896 96.4967L104.645 91.8417C104.645 87.1335 107.092 82.5583 111.454 80.0312L96.1592 88.8891Z" fill="#9B65C3"/>
<path d="M104.645 91.8425C102.33 91.8425 99.9896 91.2573 97.835 90.0071C97.2498 89.6613 96.6912 89.2889 96.1592 88.8633C96.6114 91.8159 97.9946 94.4759 99.9896 96.4709L104.645 91.8425Z" fill="#9B65C3"/>
<path d="M104.645 91.8419L99.9902 96.4969C102.012 98.5185 104.645 99.9017 107.598 100.327L116.429 85.0322C113.929 89.3947 109.353 91.8419 104.645 91.8419Z" fill="#BE63C5"/>
<path d="M106.481 98.6778C105.23 96.5232 104.645 94.1824 104.645 91.8682L99.9902 96.5232C102.012 98.5448 104.645 99.928 107.598 100.354C107.199 99.8216 106.826 99.263 106.481 98.6778Z" fill="#BF63C6"/>
<path d="M121.989 73.9658L111.482 80.0573C107.12 82.5843 101.933 82.3981 97.8628 80.0573C96.6923 82.0523 96.0273 84.3931 96.0273 86.8669C96.0273 87.5585 96.0805 88.2235 96.1869 88.8885C96.7189 89.3141 97.2776 89.6865 97.8628 90.0323C100.017 91.2825 102.358 91.8677 104.672 91.8677L122.282 74.2584C122.175 74.152 122.095 74.0456 121.989 73.9658Z" fill="#3278B1"/>
<path d="M97.8352 90.0332C99.9898 91.2834 102.331 91.8686 104.645 91.8686C104.645 87.1603 107.092 82.5851 111.455 80.0581L96.1328 88.8894C96.6914 89.2884 97.25 89.6874 97.8352 90.0332Z" fill="#3278B2"/>
<path d="M97.8354 80.0581C96.665 82.0531 96 84.3939 96 86.8677C96 87.5594 96.0532 88.2244 96.1596 88.8894L111.481 80.0581C107.092 82.5585 101.905 82.3989 97.8354 80.0581Z" fill="#45A4EC"/>
<path d="M122.281 74.2325C122.202 74.1527 122.095 74.0463 121.989 73.9665C121.856 73.8601 121.723 73.7537 121.563 73.6739C121.058 73.3813 120.473 73.2217 119.861 73.2217H109.646C104.592 73.2217 100.203 75.9615 97.8359 80.0313C101.906 82.3721 107.093 82.5583 111.455 80.0313C107.093 82.5583 104.646 87.1336 104.646 91.8418C109.354 91.8418 113.929 89.3946 116.456 85.0322L122.521 74.5251C122.441 74.4187 122.361 74.3123 122.281 74.2325Z" fill="#19BB7D"/>
<path d="M111.482 80.0576L121.989 73.9928C121.856 73.8864 121.723 73.78 121.563 73.7002L97.8359 80.0576C101.906 82.3984 107.093 82.558 111.482 80.0576Z" fill="#08C7FB"/>
<path d="M119.861 73.2217H109.646C104.592 73.2217 100.203 75.9615 97.8359 80.0313L121.563 73.6739C121.058 73.4079 120.499 73.2217 119.861 73.2217Z" fill="#59F2F6"/>
<path d="M116.455 85.0316L122.52 74.5245C122.44 74.4181 122.36 74.3383 122.254 74.2319L104.645 91.8412C104.645 94.1554 105.23 96.4963 106.48 98.6509C106.826 99.2361 107.198 99.7947 107.624 100.327C108.289 100.433 108.954 100.486 109.645 100.486C112.119 100.486 114.46 99.8213 116.455 98.6509C114.114 94.581 113.928 89.394 116.455 85.0316Z" fill="#DA3757"/>
<path d="M104.645 91.8419C104.645 94.1561 105.23 96.4969 106.48 98.6515C106.826 99.2367 107.198 99.7953 107.624 100.327L116.455 85.0322C113.928 89.3947 109.353 91.8419 104.645 91.8419Z" fill="#D33C4E"/>
<path d="M116.456 85.0322L107.625 100.354C108.29 100.46 108.955 100.514 109.647 100.514C112.12 100.514 114.461 99.8485 116.456 98.6781C114.115 94.5817 113.929 89.3947 116.456 85.0322Z" fill="#EE5A24"/>
<path d="M122.813 74.9505C122.733 74.7909 122.627 74.6579 122.521 74.5249C122.441 74.4185 122.361 74.3387 122.255 74.2323C122.175 74.1525 122.068 74.0461 121.962 73.9663L111.482 80.0577C107.119 82.5848 104.672 87.16 104.672 91.8682C109.38 91.8682 113.955 89.421 116.482 85.0586C113.955 89.421 114.142 94.608 116.482 98.6779C120.552 96.3104 123.292 91.9214 123.292 86.8674V76.6529C123.265 76.0145 123.106 75.4293 122.813 74.9505Z" fill="#8BDF55"/>
<path d="M121.989 73.9663L111.482 80.0577C107.119 82.5848 104.672 87.16 104.672 91.8682L122.281 74.2589C122.175 74.1525 122.095 74.0461 121.989 73.9663Z" fill="#25C16F"/>
<path d="M104.645 91.8412C109.353 91.8412 113.928 89.394 116.455 85.0316L122.52 74.5245C122.44 74.4181 122.36 74.3383 122.254 74.2319L104.645 91.8412Z" fill="#8BDF55"/>
<path d="M122.52 74.5254L116.455 85.0325C113.928 89.3949 114.114 94.5819 116.455 98.6517L122.812 74.9244C122.733 74.7914 122.626 74.6584 122.52 74.5254Z" fill="#FFBB00"/>
<path d="M116.455 98.678C120.525 96.3106 123.265 91.9216 123.265 86.8676V76.6531C123.265 76.0413 123.105 75.4561 122.813 74.9507L116.455 98.678Z" fill="#FFA800"/>
</g>
</g>
<defs>
<filter id="filter0_ddd_3_8232" x="0" y="0" width="352" height="187" filterUnits="userSpaceOnUse" color-interpolation-filters="sRGB">
<feFlood flood-opacity="0" result="BackgroundImageFix"/>
<feColorMatrix in="SourceAlpha" type="matrix" values="0 0 0 0 0 0 0 0 0 0 0 0 0 0 0 0 0 0 127 0" result="hardAlpha"/>
<feOffset dy="3"/>
<feComposite in2="hardAlpha" operator="out"/>
<feColorMatrix type="matrix" values="0 0 0 0 0.376471 0 0 0 0 0.356863 0 0 0 0 1 0 0 0 1 0"/>
<feBlend mode="normal" in2="BackgroundImageFix" result="effect1_dropShadow_3_8232"/>
<feColorMatrix in="SourceAlpha" type="matrix" values="0 0 0 0 0 0 0 0 0 0 0 0 0 0 0 0 0 0 127 0" result="hardAlpha"/>
<feOffset dx="2" dy="-2"/>
<feComposite in2="hardAlpha" operator="out"/>
<feColorMatrix type="matrix" values="0 0 0 0 0 0 0 0 0 0 0 0 0 0 0 0 0 0 0.1 0"/>
<feBlend mode="normal" in2="effect1_dropShadow_3_8232" result="effect2_dropShadow_3_8232"/>
<feColorMatrix in="SourceAlpha" type="matrix" values="0 0 0 0 0 0 0 0 0 0 0 0 0 0 0 0 0 0 127 0" result="hardAlpha"/>
<feOffset dx="-2"/>
<feComposite in2="hardAlpha" operator="out"/>
<feColorMatrix type="matrix" values="0 0 0 0 0 0 0 0 0 0 0 0 0 0 0 0 0 0 0.1 0"/>
<feBlend mode="normal" in2="effect2_dropShadow_3_8232" result="effect3_dropShadow_3_8232"/>
<feBlend mode="normal" in="SourceGraphic" in2="effect3_dropShadow_3_8232" result="shape"/>
</filter>
<clipPath id="clip0_3_8232">
<rect width="160" height="48" fill="white" transform="translate(96 60)"/>
</clipPath>
</defs>
</svg>
