<svg width="352" height="187" viewBox="0 0 352 187" fill="none" xmlns="http://www.w3.org/2000/svg">
<g filter="url(#filter0_ddd_3_8213)">
<rect x="2" y="2" width="348" height="182" rx="16" fill="white"/>
<path d="M314.229 40C314.229 40.2596 314.144 40.5133 313.987 40.7292C313.829 40.945 313.604 41.1133 313.342 41.2126C313.079 41.3119 312.791 41.3379 312.512 41.2873C312.233 41.2366 311.978 41.1116 311.777 40.9281C311.576 40.7445 311.439 40.5107 311.384 40.2561C311.328 40.0015 311.357 39.7376 311.465 39.4977C311.574 39.2579 311.758 39.0529 311.994 38.9087C312.23 38.7645 312.508 38.6875 312.792 38.6875C313.173 38.6875 313.539 38.8258 313.808 39.0719C314.077 39.3181 314.229 39.6519 314.229 40ZM320.931 38.6875C320.647 38.6875 320.37 38.7645 320.133 38.9087C319.897 39.0529 319.713 39.2579 319.604 39.4977C319.496 39.7376 319.467 40.0015 319.523 40.2561C319.578 40.5107 319.715 40.7445 319.916 40.9281C320.117 41.1116 320.373 41.2366 320.651 41.2873C320.93 41.3379 321.219 41.3119 321.481 41.2126C321.744 41.1133 321.968 40.945 322.126 40.7292C322.284 40.5133 322.368 40.2596 322.368 40C322.368 39.6519 322.216 39.3181 321.947 39.0719C321.678 38.8258 321.312 38.6875 320.931 38.6875ZM304.653 38.6875C304.369 38.6875 304.091 38.7645 303.855 38.9087C303.619 39.0529 303.435 39.2579 303.326 39.4977C303.217 39.7376 303.189 40.0015 303.244 40.2561C303.3 40.5107 303.437 40.7445 303.637 40.9281C303.838 41.1116 304.094 41.2366 304.373 41.2873C304.652 41.3379 304.94 41.3119 305.203 41.2126C305.465 41.1133 305.69 40.945 305.847 40.7292C306.005 40.5133 306.089 40.2596 306.089 40C306.089 39.6519 305.938 39.3181 305.669 39.0719C305.399 38.8258 305.034 38.6875 304.653 38.6875Z" fill="black"/>
<path fill-rule="evenodd" clip-rule="evenodd" d="M229.339 91.9808C229.408 92.796 230.038 93.8336 231.13 93.8336H231.768C232.016 93.8336 232.218 93.6236 232.218 93.3672V78.8306H232.215C232.203 78.5857 232.007 78.3896 231.768 78.3896H229.79C229.55 78.3896 229.355 78.5857 229.342 78.8306H229.339V80.0118C228.127 78.465 226.216 77.823 224.3 77.823C219.944 77.823 216.413 81.4815 216.413 85.9948C216.413 90.5085 219.944 94.1671 224.3 94.1671C226.216 94.1671 228.305 93.3971 229.339 91.979V91.9808ZM224.307 91.3071C221.537 91.3071 219.292 88.9289 219.292 85.9948C219.292 83.0613 221.537 80.6831 224.307 80.6831C227.079 80.6831 229.324 83.0613 229.324 85.9948C229.324 88.9289 227.079 91.3071 224.307 91.3071Z" fill="#0D0E10"/>
<path fill-rule="evenodd" clip-rule="evenodd" d="M213.912 84.9586C213.912 80.7185 211.33 77.858 207.213 77.858C205.248 77.858 203.637 79.0355 203.068 80.0469C202.945 79.256 202.54 78.4247 201.283 78.4247H200.643C200.395 78.4247 200.192 78.6349 200.192 78.8913V92.0171C200.192 92.0176 200.192 92.0185 200.192 92.0192V93.4292H200.195C200.208 93.6736 200.404 93.87 200.643 93.87H202.621C202.651 93.87 202.681 93.8663 202.71 93.8605C202.723 93.8578 202.735 93.8525 202.748 93.8488C202.762 93.8441 202.778 93.8405 202.792 93.8345C202.809 93.827 202.825 93.8168 202.842 93.8073C202.85 93.8022 202.858 93.7987 202.866 93.7934C202.886 93.7802 202.904 93.7643 202.921 93.7481C202.924 93.7451 202.927 93.7431 202.93 93.7403C202.95 93.7206 202.968 93.6989 202.984 93.6763C203.033 93.6059 203.064 93.5207 203.069 93.4292H203.071V84.842C203.071 82.5647 204.853 80.7185 207.051 80.7185C209.249 80.7185 211.031 82.5647 211.031 84.842L211.033 92.0197L211.033 92.0171C211.033 92.0235 211.034 92.03 211.034 92.0369V93.4292H211.037C211.05 93.6736 211.245 93.87 211.484 93.87H213.463C213.493 93.87 213.523 93.8663 213.551 93.8605C213.563 93.8583 213.574 93.8534 213.585 93.8501C213.602 93.8452 213.618 93.841 213.634 93.8345C213.65 93.8276 213.665 93.8179 213.68 93.8089C213.689 93.8035 213.699 93.7996 213.708 93.7934C213.726 93.7809 213.743 93.7659 213.76 93.7511C213.764 93.7471 213.768 93.7441 213.772 93.74C213.791 93.7213 213.808 93.701 213.823 93.6798C213.824 93.6782 213.825 93.6769 213.827 93.6754C213.875 93.6056 213.905 93.5213 213.91 93.4303C213.91 93.4297 213.91 93.4292 213.91 93.4292H213.913L213.912 84.9586Z" fill="#0D0E10"/>
<path fill-rule="evenodd" clip-rule="evenodd" d="M193.31 91.9807C193.379 92.7959 194.009 93.8336 195.1 93.8336H195.738C195.986 93.8336 196.189 93.6236 196.189 93.3672V78.8306H196.186C196.173 78.5857 195.977 78.3896 195.738 78.3896H193.76C193.521 78.3896 193.326 78.5857 193.312 78.8306H193.31V80.0118C192.098 78.465 190.187 77.823 188.271 77.823C183.915 77.823 180.384 81.4815 180.384 85.9949C180.384 90.5084 183.915 94.1671 188.271 94.1671C190.187 94.1671 192.275 93.3972 193.31 91.9789L193.31 91.9807ZM188.278 91.307C185.508 91.307 183.262 88.929 183.262 85.9949C183.262 83.0613 185.508 80.6831 188.278 80.6831C191.049 80.6831 193.294 83.0613 193.294 85.9949C193.294 88.929 191.049 91.307 188.278 91.307Z" fill="#0D0E10"/>
<path fill-rule="evenodd" clip-rule="evenodd" d="M168.685 89.8988C170.006 90.8468 171.448 91.3072 172.833 91.3072C174.153 91.3072 175.517 90.5983 175.517 89.3644C175.517 87.7172 172.544 87.4609 170.676 86.8032C168.808 86.1454 167.199 84.7857 167.199 82.5837C167.199 79.2143 170.096 77.8228 172.801 77.8228C174.514 77.8228 176.282 78.4082 177.428 79.2468C177.823 79.5568 177.583 79.9126 177.583 79.9126L176.489 81.5317C176.366 81.714 176.151 81.8716 175.842 81.6742C175.533 81.477 174.451 80.683 172.801 80.683C171.151 80.683 170.157 81.4725 170.157 82.4511C170.157 83.6246 171.449 83.9937 172.962 84.3936C175.598 85.13 178.475 86.0152 178.475 89.3644C178.475 92.3331 175.795 94.1677 172.833 94.1677C170.588 94.1677 168.677 93.5048 167.075 92.2861C166.741 91.9399 166.974 91.6184 166.974 91.6184L168.063 90.0075C168.284 89.7063 168.563 89.8114 168.685 89.8988Z" fill="#0D0E10"/>
<path fill-rule="evenodd" clip-rule="evenodd" d="M161.08 91.9807C161.15 92.7959 161.779 93.8336 162.87 93.8336H163.509C163.756 93.8336 163.959 93.6236 163.959 93.3672V78.8306H163.956C163.943 78.5857 163.748 78.3896 163.509 78.3896H161.531C161.291 78.3896 161.096 78.5857 161.083 78.8306H161.08V80.0118C159.868 78.465 157.957 77.823 156.041 77.823C151.685 77.823 148.154 81.4815 148.154 85.9949C148.154 90.5084 151.685 94.1671 156.041 94.1671C157.957 94.1671 160.046 93.3972 161.08 91.9789L161.08 91.9807ZM156.049 91.307C153.279 91.307 151.033 88.929 151.033 85.9949C151.033 83.0613 153.279 80.6831 156.049 80.6831C158.819 80.6831 161.065 83.0613 161.065 85.9949C161.065 88.929 158.819 91.307 156.049 91.307Z" fill="#0D0E10"/>
<path fill-rule="evenodd" clip-rule="evenodd" d="M137.097 86.5503C134.166 86.5503 131.789 89.0105 131.789 92.0456C131.789 95.0804 134.166 97.5406 137.097 97.5406C140.028 97.5406 142.404 95.0804 142.404 92.0456C142.404 89.0105 140.028 86.5503 137.097 86.5503ZM123.308 86.5509C120.376 86.5509 118 89.0105 118 92.0456C118 95.0804 120.376 97.5406 123.308 97.5406C126.239 97.5406 128.615 95.0804 128.615 92.0456C128.615 89.0105 126.239 86.5509 123.308 86.5509ZM135.51 79.6814C135.51 82.7165 133.133 85.1769 130.202 85.1769C127.271 85.1769 124.895 82.7165 124.895 79.6814C124.895 76.647 127.271 74.1865 130.202 74.1865C133.133 74.1865 135.51 76.647 135.51 79.6814Z" fill="#F06A6A"/>
</g>
<defs>
<filter id="filter0_ddd_3_8213" x="0" y="0" width="352" height="187" filterUnits="userSpaceOnUse" color-interpolation-filters="sRGB">
<feFlood flood-opacity="0" result="BackgroundImageFix"/>
<feColorMatrix in="SourceAlpha" type="matrix" values="0 0 0 0 0 0 0 0 0 0 0 0 0 0 0 0 0 0 127 0" result="hardAlpha"/>
<feOffset dy="3"/>
<feComposite in2="hardAlpha" operator="out"/>
<feColorMatrix type="matrix" values="0 0 0 0 0.376471 0 0 0 0 0.356863 0 0 0 0 1 0 0 0 1 0"/>
<feBlend mode="normal" in2="BackgroundImageFix" result="effect1_dropShadow_3_8213"/>
<feColorMatrix in="SourceAlpha" type="matrix" values="0 0 0 0 0 0 0 0 0 0 0 0 0 0 0 0 0 0 127 0" result="hardAlpha"/>
<feOffset dx="2" dy="-2"/>
<feComposite in2="hardAlpha" operator="out"/>
<feColorMatrix type="matrix" values="0 0 0 0 0 0 0 0 0 0 0 0 0 0 0 0 0 0 0.1 0"/>
<feBlend mode="normal" in2="effect1_dropShadow_3_8213" result="effect2_dropShadow_3_8213"/>
<feColorMatrix in="SourceAlpha" type="matrix" values="0 0 0 0 0 0 0 0 0 0 0 0 0 0 0 0 0 0 127 0" result="hardAlpha"/>
<feOffset dx="-2"/>
<feComposite in2="hardAlpha" operator="out"/>
<feColorMatrix type="matrix" values="0 0 0 0 0 0 0 0 0 0 0 0 0 0 0 0 0 0 0.1 0"/>
<feBlend mode="normal" in2="effect2_dropShadow_3_8213" result="effect3_dropShadow_3_8213"/>
<feBlend mode="normal" in="SourceGraphic" in2="effect3_dropShadow_3_8213" result="shape"/>
</filter>
</defs>
</svg>
