<svg width="20" height="21" viewBox="0 0 20 21" fill="none" xmlns="http://www.w3.org/2000/svg">
<path fill-rule="evenodd" clip-rule="evenodd" d="M16.25 5.91667C15.9185 5.91667 15.6005 6.04836 15.3661 6.28278C15.1317 6.5172 15 6.83515 15 7.16667V8H17.5V7.16667C17.5 6.83515 17.3683 6.5172 17.1339 6.28278C16.8995 6.04836 16.5815 5.91667 16.25 5.91667ZM17.5 8.83333H15V15.7083L16.25 17.5833L17.5 15.7083V8.83333ZM2.5 4.25V16.75C2.5 17.0815 2.6317 17.3995 2.86612 17.6339C3.10054 17.8683 3.41848 18 3.75 18H12.9167C13.2482 18 13.5661 17.8683 13.8005 17.6339C14.035 17.3995 14.1667 17.0815 14.1667 16.75V4.25C14.1667 3.91848 14.035 3.60054 13.8005 3.36612C13.5661 3.1317 13.2482 3 12.9167 3H3.75C3.41848 3 3.10054 3.1317 2.86612 3.36612C2.6317 3.60054 2.5 3.91848 2.5 4.25ZM8.33333 6.75C8.33333 6.63949 8.37723 6.53351 8.45537 6.45537C8.53351 6.37723 8.63949 6.33333 8.75 6.33333H12.0833C12.1938 6.33333 12.2998 6.37723 12.378 6.45537C12.4561 6.53351 12.5 6.63949 12.5 6.75C12.5 6.86051 12.4561 6.96649 12.378 7.04463C12.2998 7.12277 12.1938 7.16667 12.0833 7.16667H8.75C8.63949 7.16667 8.53351 7.12277 8.45537 7.04463C8.37723 6.96649 8.33333 6.86051 8.33333 6.75ZM8.75 8C8.63949 8 8.53351 8.0439 8.45537 8.12204C8.37723 8.20018 8.33333 8.30616 8.33333 8.41667C8.33333 8.52717 8.37723 8.63315 8.45537 8.71129C8.53351 8.78943 8.63949 8.83333 8.75 8.83333H12.0833C12.1938 8.83333 12.2998 8.78943 12.378 8.71129C12.4561 8.63315 12.5 8.52717 12.5 8.41667C12.5 8.30616 12.4561 8.20018 12.378 8.12204C12.2998 8.0439 12.1938 8 12.0833 8H8.75ZM8.33333 12.1667C8.33333 12.0562 8.37723 11.9502 8.45537 11.872C8.53351 11.7939 8.63949 11.75 8.75 11.75H12.0833C12.1938 11.75 12.2998 11.7939 12.378 11.872C12.4561 11.9502 12.5 12.0562 12.5 12.1667C12.5 12.2772 12.4561 12.3832 12.378 12.4613C12.2998 12.5394 12.1938 12.5833 12.0833 12.5833H8.75C8.63949 12.5833 8.53351 12.5394 8.45537 12.4613C8.37723 12.3832 8.33333 12.2772 8.33333 12.1667ZM8.75 13.4167C8.63949 13.4167 8.53351 13.4606 8.45537 13.5387C8.37723 13.6168 8.33333 13.7228 8.33333 13.8333C8.33333 13.9438 8.37723 14.0498 8.45537 14.128C8.53351 14.2061 8.63949 14.25 8.75 14.25H12.0833C12.1938 14.25 12.2998 14.2061 12.378 14.128C12.4561 14.0498 12.5 13.9438 12.5 13.8333C12.5 13.7228 12.4561 13.6168 12.378 13.5387C12.2998 13.4606 12.1938 13.4167 12.0833 13.4167H8.75ZM5 12.1667V13.4167H6.25V12.1667H5ZM4.58333 11.3333H6.66667C6.77717 11.3333 6.88315 11.3772 6.96129 11.4554C7.03943 11.5335 7.08333 11.6395 7.08333 11.75V13.8333C7.08333 13.9438 7.03943 14.0498 6.96129 14.128C6.88315 14.2061 6.77717 14.25 6.66667 14.25H4.58333C4.47283 14.25 4.36685 14.2061 4.28871 14.128C4.21057 14.0498 4.16667 13.9438 4.16667 13.8333V11.75C4.16667 11.6395 4.21057 11.5335 4.28871 11.4554C4.36685 11.3772 4.47283 11.3333 4.58333 11.3333ZM7.37792 7.04458C7.45382 6.966 7.49581 6.86075 7.49486 6.7515C7.49392 6.64225 7.45009 6.53775 7.37284 6.46049C7.29559 6.38324 7.19108 6.33942 7.08183 6.33847C6.97258 6.33752 6.86733 6.37952 6.78875 6.45542L5.41667 7.8275L4.87792 7.28875C4.79933 7.21285 4.69408 7.17085 4.58483 7.1718C4.47558 7.17275 4.37108 7.21657 4.29383 7.29383C4.21657 7.37108 4.17275 7.47558 4.1718 7.58483C4.17085 7.69408 4.21285 7.79933 4.28875 7.87792L5.41667 9.00583L7.37792 7.04458Z" fill="#605BFF"/>
</svg>
