<svg width="20" height="21" viewBox="0 0 20 21" fill="none" xmlns="http://www.w3.org/2000/svg">
<path d="M16.6667 3H3.33333C2.8731 3 2.5 3.3731 2.5 3.83333V8C2.5 8.46024 2.8731 8.83333 3.33333 8.83333H16.6667C17.1269 8.83333 17.5 8.46024 17.5 8V3.83333C17.5 3.3731 17.1269 3 16.6667 3Z" stroke="#8D8D8D" stroke-width="1.66667" stroke-linecap="round" stroke-linejoin="round"/>
<path d="M9.16667 12.1667H3.33333C2.8731 12.1667 2.5 12.5398 2.5 13.0001V17.1667C2.5 17.627 2.8731 18.0001 3.33333 18.0001H9.16667C9.6269 18.0001 10 17.627 10 17.1667V13.0001C10 12.5398 9.6269 12.1667 9.16667 12.1667Z" stroke="#8D8D8D" stroke-width="1.66667" stroke-linecap="round" stroke-linejoin="round"/>
<path d="M16.6667 12.1667H14.1667C13.7064 12.1667 13.3333 12.5398 13.3333 13.0001V17.1667C13.3333 17.627 13.7064 18.0001 14.1667 18.0001H16.6667C17.1269 18.0001 17.5 17.627 17.5 17.1667V13.0001C17.5 12.5398 17.1269 12.1667 16.6667 12.1667Z" stroke="#8D8D8D" stroke-width="1.66667" stroke-linecap="round" stroke-linejoin="round"/>
</svg>
