<svg width="25" height="24" viewBox="0 0 25 24" fill="none" xmlns="http://www.w3.org/2000/svg">
<path d="M18.5 22C17.6667 22 16.9583 21.7083 16.375 21.125C15.7917 20.5417 15.5 19.8333 15.5 19C15.5 18.8833 15.5083 18.7623 15.525 18.637C15.5417 18.5117 15.5667 18.3993 15.6 18.3L8.55 14.2C8.26667 14.45 7.95 14.646 7.6 14.788C7.25 14.93 6.88333 15.0007 6.5 15C5.66667 15 4.95833 14.7083 4.375 14.125C3.79167 13.5417 3.5 12.8333 3.5 12C3.5 11.1667 3.79167 10.4583 4.375 9.875C4.95833 9.29167 5.66667 9 6.5 9C6.88333 9 7.25 9.071 7.6 9.213C7.95 9.355 8.26667 9.55067 8.55 9.8L15.6 5.7C15.5667 5.6 15.5417 5.48767 15.525 5.363C15.5083 5.23833 15.5 5.11733 15.5 5C15.5 4.16667 15.7917 3.45833 16.375 2.875C16.9583 2.29167 17.6667 2 18.5 2C19.3333 2 20.0417 2.29167 20.625 2.875C21.2083 3.45833 21.5 4.16667 21.5 5C21.5 5.83333 21.2083 6.54167 20.625 7.125C20.0417 7.70833 19.3333 8 18.5 8C18.1167 8 17.75 7.92933 17.4 7.788C17.05 7.64667 16.7333 7.45067 16.45 7.2L9.4 11.3C9.43333 11.4 9.45833 11.5127 9.475 11.638C9.49167 11.7633 9.5 11.884 9.5 12C9.5 12.1167 9.49167 12.2377 9.475 12.363C9.45833 12.4883 9.43333 12.6007 9.4 12.7L16.45 16.8C16.7333 16.55 17.05 16.3543 17.4 16.213C17.75 16.0717 18.1167 16.0007 18.5 16C19.3333 16 20.0417 16.2917 20.625 16.875C21.2083 17.4583 21.5 18.1667 21.5 19C21.5 19.8333 21.2083 20.5417 20.625 21.125C20.0417 21.7083 19.3333 22 18.5 22ZM18.5 6C18.7833 6 19.021 5.904 19.213 5.712C19.405 5.52 19.5007 5.28267 19.5 5C19.5 4.71667 19.404 4.479 19.212 4.287C19.02 4.095 18.7827 3.99933 18.5 4C18.2167 4 17.979 4.096 17.787 4.288C17.595 4.48 17.4993 4.71733 17.5 5C17.5 5.28333 17.596 5.521 17.788 5.713C17.98 5.905 18.2173 6.00067 18.5 6ZM6.5 13C6.78333 13 7.021 12.904 7.213 12.712C7.405 12.52 7.50067 12.2827 7.5 12C7.5 11.7167 7.404 11.479 7.212 11.287C7.02 11.095 6.78267 10.9993 6.5 11C6.21667 11 5.979 11.096 5.787 11.288C5.595 11.48 5.49933 11.7173 5.5 12C5.5 12.2833 5.596 12.521 5.788 12.713C5.98 12.905 6.21733 13.0007 6.5 13ZM18.5 20C18.7833 20 19.021 19.904 19.213 19.712C19.405 19.52 19.5007 19.2827 19.5 19C19.5 18.7167 19.404 18.479 19.212 18.287C19.02 18.095 18.7827 17.9993 18.5 18C18.2167 18 17.979 18.096 17.787 18.288C17.595 18.48 17.4993 18.7173 17.5 19C17.5 19.2833 17.596 19.521 17.788 19.713C17.98 19.905 18.2173 20.0007 18.5 20Z" fill="white"/>
</svg>
