<svg width="20" height="21" viewBox="0 0 20 21" fill="none" xmlns="http://www.w3.org/2000/svg">
<path d="M15.25 14.0417H13.5V15.9861H15.25M15.25 10.1528H13.5V12.0972H15.25M17 17.9306H10V15.9861H11.75V14.0417H10V12.0972H11.75V10.1528H10V8.20833H17M8.25 6.26389H6.5V4.31944H8.25M8.25 10.1528H6.5V8.20833H8.25M8.25 14.0417H6.5V12.0972H8.25M8.25 17.9306H6.5V15.9861H8.25M4.75 6.26389H3V4.31944H4.75M4.75 10.1528H3V8.20833H4.75M4.75 14.0417H3V12.0972H4.75M4.75 17.9306H3V15.9861H4.75M10 6.26389V2.375H1.25V19.875H18.75V6.26389H10Z" fill="#8D8D8D"/>
</svg>
