<svg width="28" height="28" viewBox="0 0 28 28" fill="none" xmlns="http://www.w3.org/2000/svg">
<g clip-path="url(#clip0_1_495)">
<path d="M22.1663 4.66675C23.0591 4.6667 23.9181 5.00779 24.5676 5.62025C25.2172 6.2327 25.6081 7.07021 25.6605 7.96141L25.6663 8.16675V10.2866C25.6637 10.6017 25.5788 10.9106 25.42 11.1828C25.2612 11.455 25.034 11.6809 24.761 11.8382L24.6362 11.9059C24.2587 12.0912 23.9383 12.375 23.7089 12.7274C23.4795 13.0797 23.3495 13.4875 23.3328 13.9077C23.3161 14.3278 23.4132 14.7447 23.6139 15.1142C23.8145 15.4836 24.1113 15.792 24.4728 16.0067L24.6362 16.0942C25.1413 16.3439 25.5928 16.8596 25.6582 17.5409L25.6663 17.7136V19.8334C25.6664 20.7262 25.3253 21.5852 24.7128 22.2347C24.1004 22.8843 23.2629 23.2752 22.3717 23.3276L22.1663 23.3334H5.83301C4.94026 23.3335 4.08124 22.9924 3.4317 22.3799C2.78217 21.7675 2.39122 20.93 2.33884 20.0387L2.33301 19.8334V17.7136C2.33301 17.0066 2.74367 16.4559 3.23834 16.1619L3.36317 16.0942C3.74063 15.909 4.06101 15.6252 4.29043 15.2728C4.51986 14.9204 4.64981 14.5126 4.66655 14.0925C4.68328 13.6724 4.58617 13.2555 4.3855 12.886C4.18482 12.5165 3.88803 12.2081 3.52651 11.9934L3.36317 11.9059C2.85801 11.6562 2.40651 11.1406 2.34117 10.4592L2.33301 10.2877V8.16675C2.33296 7.274 2.67405 6.41498 3.28651 5.76544C3.89896 5.11591 4.73647 4.72496 5.62767 4.67258L5.83301 4.66675H22.1663ZM22.1663 7.00008H5.83301C5.54725 7.00012 5.27145 7.10503 5.05791 7.29492C4.84437 7.4848 4.70794 7.74646 4.67451 8.03025L4.66634 8.16675V9.95758C5.35781 10.3561 5.93547 10.9254 6.34411 11.6109C6.75276 12.2965 6.9787 13.0754 7.00036 13.8732C7.02201 14.671 6.83865 15.461 6.46779 16.1677C6.09694 16.8744 5.551 17.4741 4.88217 17.9096L4.66634 18.0426V19.8334C4.66638 20.1192 4.77129 20.395 4.96118 20.6085C5.15106 20.8221 5.41271 20.9585 5.69651 20.9919L5.83301 21.0001H22.1663C22.4521 21 22.7279 20.8951 22.9414 20.7052C23.155 20.5154 23.2914 20.2537 23.3248 19.9699L23.333 19.8334V18.0426C22.6415 17.644 22.0639 17.0748 21.6552 16.3893C21.2466 15.7037 21.0206 14.9248 20.999 14.127C20.9773 13.3292 21.1607 12.5392 21.5316 11.8325C21.9024 11.1258 22.4483 10.526 23.1172 10.0906L23.333 9.95758V8.16675C23.333 7.88099 23.2281 7.60519 23.0382 7.39165C22.8483 7.17811 22.5866 7.04168 22.3028 7.00825L22.1663 7.00008ZM11.6663 10.5001C11.9521 10.5001 12.2279 10.605 12.4414 10.7949C12.655 10.9848 12.7914 11.2465 12.8248 11.5302L12.833 11.6667V16.3334C12.8327 16.6308 12.7188 16.9168 12.5147 17.133C12.3106 17.3492 12.0316 17.4794 11.7347 17.4968C11.4379 17.5142 11.1456 17.4176 10.9175 17.2268C10.6895 17.0359 10.543 16.7652 10.5078 16.4699L10.4997 16.3334V11.6667C10.4997 11.3573 10.6226 11.0606 10.8414 10.8418C11.0602 10.623 11.3569 10.5001 11.6663 10.5001Z" fill="black"/>
</g>
<defs>
<clipPath id="clip0_1_495">
<rect width="28" height="28" fill="white"/>
</clipPath>
</defs>
</svg>
