<svg width="21" height="21" viewBox="0 0 21 21" fill="none" xmlns="http://www.w3.org/2000/svg">
<g clip-path="url(#clip0_3_3774)">
<path d="M2.98911 7.08341C2.98928 6.27359 3.19879 5.47756 3.5973 4.77258C3.99581 4.06759 4.56979 3.47759 5.26354 3.05983C5.95729 2.64207 6.74725 2.41074 7.55676 2.38828C8.36627 2.36583 9.16784 2.55301 9.88369 2.93167C10.5995 3.31032 11.2053 3.8676 11.6423 4.5494C12.0793 5.23121 12.3326 6.0144 12.3777 6.82297C12.4227 7.63154 12.258 8.43803 11.8995 9.16417C11.541 9.89031 11.0009 10.5115 10.3315 10.9673C11.7729 11.496 13.0232 12.4439 13.9213 13.6891C14.8194 14.9343 15.3244 16.4198 15.3711 17.9544C15.3691 18.1198 15.3033 18.2781 15.1873 18.3962C15.0714 18.5142 14.9143 18.5829 14.7489 18.5879C14.5835 18.5928 14.4226 18.5337 14.2998 18.4228C14.177 18.3119 14.1018 18.1579 14.0899 17.9928C14.039 16.3284 13.3421 14.7493 12.1468 13.59C10.9515 12.4306 9.35176 11.7823 7.6866 11.7823C6.02145 11.7823 4.42172 12.4306 3.22643 13.59C2.03113 14.7493 1.33421 16.3284 1.28334 17.9928C1.27479 18.1601 1.20107 18.3174 1.07797 18.431C0.954866 18.5445 0.792179 18.6054 0.624759 18.6005C0.457338 18.5956 0.2985 18.5253 0.182273 18.4047C0.0660458 18.2841 0.00167414 18.1227 0.00294825 17.9552C0.0495442 16.4205 0.554404 14.9348 1.45254 13.6895C2.35068 12.4441 3.60099 11.496 5.04253 10.9673C4.40945 10.5365 3.89137 9.95736 3.53345 9.28039C3.17554 8.60342 2.98866 7.84917 2.98911 7.08341ZM7.68703 3.66675C6.78087 3.66675 5.91183 4.02671 5.27108 4.66746C4.63033 5.30821 4.27036 6.17726 4.27036 7.08341C4.27036 7.98957 4.63033 8.85861 5.27108 9.49936C5.91183 10.1401 6.78087 10.5001 7.68703 10.5001C8.59319 10.5001 9.46223 10.1401 10.103 9.49936C10.7437 8.85861 11.1037 7.98957 11.1037 7.08341C11.1037 6.17726 10.7437 5.30821 10.103 4.66746C9.46223 4.02671 8.59319 3.66675 7.68703 3.66675ZM14.7681 7.08341C14.6417 7.08341 14.5187 7.09195 14.3974 7.10904C14.3127 7.1242 14.2258 7.12215 14.1419 7.10301C14.0581 7.08387 13.9789 7.04804 13.9092 6.99764C13.8395 6.94725 13.7806 6.88332 13.7361 6.80969C13.6916 6.73605 13.6624 6.65421 13.6503 6.56904C13.6381 6.48387 13.6432 6.39713 13.6653 6.31398C13.6874 6.23084 13.726 6.15299 13.7788 6.08509C13.8316 6.01718 13.8976 5.96061 13.9728 5.91876C14.0479 5.8769 14.1307 5.85061 14.2163 5.84145C15.0658 5.71863 15.9321 5.88177 16.6787 6.3052C17.4254 6.72863 18.0101 7.38832 18.3407 8.18044C18.6714 8.97256 18.7293 9.85215 18.5053 10.6808C18.2813 11.5094 17.7881 12.24 17.1034 12.7576C18.1099 13.2083 18.9645 13.9407 19.5641 14.8663C20.1637 15.7919 20.4826 16.8712 20.4824 17.974C20.4824 18.1439 20.415 18.3069 20.2948 18.427C20.1747 18.5472 20.0117 18.6147 19.8418 18.6147C19.6719 18.6147 19.509 18.5472 19.3888 18.427C19.2687 18.3069 19.2012 18.1439 19.2012 17.974C19.2011 17.0209 18.894 16.0932 18.3254 15.3282C17.7567 14.5633 16.9569 14.0019 16.0442 13.7271L15.5881 13.5905V12.1589L15.9383 11.9803C16.4574 11.7174 16.8728 11.2872 17.1173 10.7591C17.3618 10.231 17.4213 9.63599 17.286 9.07C17.1508 8.50401 16.8287 8.00011 16.3719 7.63967C15.915 7.27922 15.35 7.08326 14.7681 7.08341Z" fill="#605BFF"/>
</g>
<defs>
<clipPath id="clip0_3_3774">
<rect width="20.5" height="20.5" fill="white" transform="translate(0 0.25)"/>
</clipPath>
</defs>
</svg>
