<svg width="21" height="21" viewBox="0 0 21 21" fill="none" xmlns="http://www.w3.org/2000/svg">
<g clip-path="url(#clip0_3_6592)">
<path d="M2.98954 7.08317C2.98971 6.27335 3.19922 5.47732 3.59772 4.77233C3.99623 4.06735 4.57021 3.47735 5.26396 3.05959C5.95771 2.64183 6.74768 2.41049 7.55719 2.38804C8.3667 2.36558 9.16827 2.55276 9.88411 2.93142C10.6 3.31008 11.2058 3.86735 11.6427 4.54916C12.0797 5.23097 12.333 6.01416 12.3781 6.82273C12.4232 7.6313 12.2584 8.43778 11.8999 9.16393C11.5414 9.89007 11.0013 10.5112 10.332 10.9671C11.7734 11.4957 13.0236 12.4437 13.9217 13.6889C14.8198 14.9341 15.3248 16.4196 15.3715 17.9541C15.3696 18.1196 15.3037 18.2779 15.1878 18.3959C15.0718 18.514 14.9147 18.5827 14.7493 18.5876C14.584 18.5926 14.423 18.5335 14.3002 18.4226C14.1774 18.3117 14.1022 18.1576 14.0903 17.9926C14.0394 16.3282 13.3425 14.749 12.1472 13.5897C10.9519 12.4304 9.35219 11.782 7.68703 11.782C6.02187 11.782 4.42215 12.4304 3.22685 13.5897C2.03156 14.749 1.33464 16.3282 1.28377 17.9926C1.27522 18.1599 1.2015 18.3171 1.07839 18.4307C0.955294 18.5443 0.792607 18.6051 0.625186 18.6002C0.457765 18.5953 0.298927 18.525 0.1827 18.4044C0.0664731 18.2838 0.00210139 18.1225 0.00337549 17.955C0.0499714 16.4203 0.554831 14.9346 1.45297 13.6892C2.35111 12.4439 3.60142 11.4958 5.04296 10.9671C4.40988 10.5363 3.89179 9.95712 3.53388 9.28015C3.17596 8.60318 2.98909 7.84893 2.98954 7.08317ZM7.68746 3.6665C6.7813 3.6665 5.91226 4.02647 5.27151 4.66722C4.63076 5.30797 4.27079 6.17701 4.27079 7.08317C4.27079 7.98932 4.63076 8.85837 5.27151 9.49912C5.91226 10.1399 6.7813 10.4998 7.68746 10.4998C8.59361 10.4998 9.46266 10.1399 10.1034 9.49912C10.7442 8.85837 11.1041 7.98932 11.1041 7.08317C11.1041 6.17701 10.7442 5.30797 10.1034 4.66722C9.46266 4.02647 8.59361 3.6665 7.68746 3.6665ZM14.7685 7.08317C14.6421 7.08317 14.5191 7.09171 14.3978 7.10879C14.3131 7.12396 14.2262 7.12191 14.1424 7.10277C14.0585 7.08363 13.9793 7.04779 13.9096 6.9974C13.8399 6.947 13.781 6.88308 13.7365 6.80944C13.6921 6.7358 13.6629 6.65396 13.6507 6.5688C13.6385 6.48363 13.6436 6.39689 13.6657 6.31374C13.6878 6.23059 13.7264 6.15274 13.7792 6.08484C13.8321 6.01694 13.898 5.96037 13.9732 5.91851C14.0483 5.87665 14.1312 5.85036 14.2167 5.84121C15.0662 5.71838 15.9325 5.88152 16.6792 6.30496C17.4258 6.72839 18.0105 7.38808 18.3411 8.1802C18.6718 8.97232 18.7297 9.8519 18.5057 10.6805C18.2817 11.5091 17.7885 12.2398 17.1038 12.7574C18.1103 13.2081 18.9649 13.9404 19.5645 14.866C20.1641 15.7916 20.4831 16.871 20.4829 17.9738C20.4829 18.1437 20.4154 18.3066 20.2952 18.4268C20.1751 18.5469 20.0122 18.6144 19.8422 18.6144C19.6723 18.6144 19.5094 18.5469 19.3893 18.4268C19.2691 18.3066 19.2016 18.1437 19.2016 17.9738C19.2015 17.0207 18.8944 16.0929 18.3258 15.328C17.7572 14.5631 16.9573 14.0016 16.0446 13.7269L15.5885 13.5902V12.1586L15.9387 11.9801C16.4578 11.7171 16.8732 11.2869 17.1177 10.7589C17.3623 10.2308 17.4217 9.63574 17.2864 9.06975C17.1512 8.50376 16.8291 7.99987 16.3723 7.63942C15.9154 7.27898 15.3504 7.08301 14.7685 7.08317Z" fill="#8D8D8D"/>
</g>
<defs>
<clipPath id="clip0_3_6592">
<rect width="20.5" height="20.5" fill="white" transform="translate(0 0.25)"/>
</clipPath>
</defs>
</svg>
