<svg width="21" height="21" viewBox="0 0 21 21" fill="none" xmlns="http://www.w3.org/2000/svg">
<g clip-path="url(#clip0_3_5725)">
<path d="M2.9896 7.08317C2.98977 6.27335 3.19928 5.47732 3.59779 4.77233C3.99629 4.06735 4.57027 3.47735 5.26402 3.05959C5.95778 2.64183 6.74774 2.41049 7.55725 2.38804C8.36676 2.36558 9.16833 2.55276 9.88417 2.93142C10.6 3.31008 11.2058 3.86735 11.6428 4.54916C12.0798 5.23097 12.3331 6.01416 12.3782 6.82273C12.4232 7.6313 12.2585 8.43778 11.9 9.16393C11.5415 9.89007 11.0014 10.5112 10.332 10.9671C11.7734 11.4957 13.0236 12.4437 13.9218 13.6889C14.8199 14.9341 15.3248 16.4196 15.3716 17.9541C15.3696 18.1196 15.3038 18.2779 15.1878 18.3959C15.0719 18.514 14.9148 18.5827 14.7494 18.5876C14.584 18.5926 14.4231 18.5335 14.3003 18.4226C14.1775 18.3117 14.1023 18.1576 14.0904 17.9926C14.0395 16.3282 13.3426 14.749 12.1473 13.5897C10.952 12.4304 9.35225 11.782 7.68709 11.782C6.02193 11.782 4.42221 12.4304 3.22691 13.5897C2.03162 14.749 1.3347 16.3282 1.28383 17.9926C1.27528 18.1599 1.20156 18.3171 1.07846 18.4307C0.955355 18.5443 0.792668 18.6051 0.625247 18.6002C0.457826 18.5953 0.298988 18.525 0.182761 18.4044C0.0665341 18.2838 0.00216243 18.1225 0.00343653 17.955C0.0500325 16.4203 0.554892 14.9346 1.45303 13.6892C2.35117 12.4439 3.60148 11.4958 5.04302 10.9671C4.40994 10.5363 3.89185 9.95712 3.53394 9.28015C3.17603 8.60318 2.98915 7.84893 2.9896 7.08317ZM7.68752 3.6665C6.78136 3.6665 5.91232 4.02647 5.27157 4.66722C4.63082 5.30797 4.27085 6.17701 4.27085 7.08317C4.27085 7.98932 4.63082 8.85837 5.27157 9.49912C5.91232 10.1399 6.78136 10.4998 7.68752 10.4998C8.59368 10.4998 9.46272 10.1399 10.1035 9.49912C10.7442 8.85837 11.1042 7.98932 11.1042 7.08317C11.1042 6.17701 10.7442 5.30797 10.1035 4.66722C9.46272 4.02647 8.59368 3.6665 7.68752 3.6665ZM14.7686 7.08317C14.6421 7.08317 14.5191 7.09171 14.3979 7.10879C14.3132 7.12396 14.2263 7.12191 14.1424 7.10277C14.0585 7.08363 13.9794 7.04779 13.9097 6.9974C13.8399 6.947 13.7811 6.88308 13.7366 6.80944C13.6921 6.7358 13.6629 6.65396 13.6508 6.5688C13.6386 6.48363 13.6437 6.39689 13.6658 6.31374C13.6879 6.23059 13.7265 6.15274 13.7793 6.08484C13.8321 6.01694 13.8981 5.96037 13.9732 5.91851C14.0484 5.87665 14.1312 5.85036 14.2168 5.84121C15.0663 5.71838 15.9326 5.88152 16.6792 6.30496C17.4259 6.72839 18.0105 7.38808 18.3412 8.1802C18.6719 8.97232 18.7297 9.8519 18.5057 10.6805C18.2817 11.5091 17.7886 12.2398 17.1039 12.7574C18.1104 13.2081 18.965 13.9404 19.5646 14.866C20.1642 15.7916 20.4831 16.871 20.4829 17.9738C20.4829 18.1437 20.4154 18.3066 20.2953 18.4268C20.1752 18.5469 20.0122 18.6144 19.8423 18.6144C19.6724 18.6144 19.5095 18.5469 19.3893 18.4268C19.2692 18.3066 19.2017 18.1437 19.2017 17.9738C19.2016 17.0207 18.8945 16.0929 18.3259 15.328C17.7572 14.5631 16.9573 14.0016 16.0447 13.7269L15.5886 13.5902V12.1586L15.9388 11.9801C16.4579 11.7171 16.8732 11.2869 17.1178 10.7589C17.3623 10.2308 17.4218 9.63574 17.2865 9.06975C17.1512 8.50376 16.8292 7.99987 16.3723 7.63942C15.9155 7.27898 15.3505 7.08301 14.7686 7.08317Z" fill="#8D8D8D"/>
</g>
<defs>
<clipPath id="clip0_3_5725">
<rect width="20.5" height="20.5" fill="white" transform="translate(0 0.25)"/>
</clipPath>
</defs>
</svg>
