<svg width="21" height="21" viewBox="0 0 21 21" fill="none" xmlns="http://www.w3.org/2000/svg">
<g clip-path="url(#clip0_3_3527)">
<path d="M2.98948 7.08341C2.98965 6.27359 3.19915 5.47756 3.59766 4.77258C3.99617 4.06759 4.57015 3.47759 5.2639 3.05983C5.95765 2.64207 6.74761 2.41074 7.55713 2.38828C8.36664 2.36583 9.16821 2.55301 9.88405 2.93167C10.5999 3.31032 11.2057 3.8676 11.6427 4.5494C12.0797 5.23121 12.333 6.0144 12.378 6.82297C12.4231 7.63154 12.2584 8.43803 11.8999 9.16417C11.5414 9.89031 11.0012 10.5115 10.3319 10.9673C11.7733 11.496 13.0235 12.4439 13.9217 13.6891C14.8198 14.9343 15.3247 16.4198 15.3715 17.9544C15.3695 18.1198 15.3036 18.2781 15.1877 18.3962C15.0718 18.5142 14.9147 18.5829 14.7493 18.5879C14.5839 18.5928 14.423 18.5337 14.3002 18.4228C14.1773 18.3119 14.1021 18.1579 14.0902 17.9928C14.0394 16.3284 13.3424 14.7493 12.1471 13.59C10.9519 12.4306 9.35213 11.7823 7.68697 11.7823C6.02181 11.7823 4.42208 12.4306 3.22679 13.59C2.0315 14.7493 1.33458 16.3284 1.28371 17.9928C1.27516 18.1601 1.20143 18.3174 1.07833 18.431C0.955233 18.5445 0.792546 18.6054 0.625125 18.6005C0.457704 18.5956 0.298866 18.5253 0.182639 18.4047C0.066412 18.2841 0.00204036 18.1227 0.00331446 17.9552C0.0499104 16.4205 0.55477 14.9348 1.45291 13.6895C2.35105 12.4441 3.60136 11.496 5.0429 10.9673C4.40982 10.5365 3.89173 9.95736 3.53382 9.28039C3.1759 8.60342 2.98903 7.84917 2.98948 7.08341ZM7.6874 3.66675C6.78124 3.66675 5.9122 4.02671 5.27145 4.66746C4.6307 5.30821 4.27073 6.17726 4.27073 7.08341C4.27073 7.98957 4.6307 8.85861 5.27145 9.49936C5.9122 10.1401 6.78124 10.5001 7.6874 10.5001C8.59355 10.5001 9.4626 10.1401 10.1033 9.49936C10.7441 8.85861 11.1041 7.98957 11.1041 7.08341C11.1041 6.17726 10.7441 5.30821 10.1033 4.66746C9.4626 4.02671 8.59355 3.66675 7.6874 3.66675ZM14.7684 7.08341C14.642 7.08341 14.519 7.09195 14.3977 7.10904C14.313 7.1242 14.2262 7.12215 14.1423 7.10301C14.0584 7.08387 13.9793 7.04804 13.9095 6.99764C13.8398 6.94725 13.781 6.88332 13.7365 6.80969C13.692 6.73605 13.6628 6.65421 13.6506 6.56904C13.6385 6.48387 13.6436 6.39713 13.6657 6.31398C13.6877 6.23084 13.7264 6.15299 13.7792 6.08509C13.832 6.01718 13.898 5.96061 13.9731 5.91876C14.0483 5.8769 14.1311 5.85061 14.2166 5.84145C15.0662 5.71863 15.9324 5.88177 16.6791 6.3052C17.4258 6.72863 18.0104 7.38832 18.3411 8.18044C18.6717 8.97256 18.7296 9.85215 18.5056 10.6808C18.2816 11.5094 17.7885 12.24 17.1037 12.7576C18.1103 13.2083 18.9649 13.9407 19.5645 14.8663C20.1641 15.7919 20.483 16.8712 20.4828 17.974C20.4828 18.1439 20.4153 18.3069 20.2952 18.427C20.175 18.5472 20.0121 18.6147 19.8422 18.6147C19.6723 18.6147 19.5093 18.5472 19.3892 18.427C19.2691 18.3069 19.2016 18.1439 19.2016 17.974C19.2015 17.0209 18.8944 16.0932 18.3257 15.3282C17.7571 14.5633 16.9572 14.0019 16.0446 13.7271L15.5884 13.5905V12.1589L15.9386 11.9803C16.4578 11.7174 16.8731 11.2872 17.1177 10.7591C17.3622 10.231 17.4216 9.63599 17.2864 9.07C17.1511 8.50401 16.8291 8.00011 16.3722 7.63967C15.9154 7.27922 15.3504 7.08326 14.7684 7.08341Z" fill="#8D8D8D"/>
</g>
<defs>
<clipPath id="clip0_3_3527">
<rect width="20.5" height="20.5" fill="white" transform="translate(0 0.25)"/>
</clipPath>
</defs>
</svg>
