<svg width="21" height="21" viewBox="0 0 21 21" fill="none" xmlns="http://www.w3.org/2000/svg">
<g clip-path="url(#clip0_3_5987)">
<path d="M2.98954 7.08341C2.98971 6.27359 3.19922 5.47756 3.59772 4.77258C3.99623 4.06759 4.57021 3.47759 5.26396 3.05983C5.95771 2.64207 6.74768 2.41074 7.55719 2.38828C8.3667 2.36583 9.16827 2.55301 9.88411 2.93167C10.6 3.31032 11.2058 3.8676 11.6427 4.5494C12.0797 5.23121 12.333 6.0144 12.3781 6.82297C12.4232 7.63154 12.2584 8.43803 11.8999 9.16417C11.5414 9.89031 11.0013 10.5115 10.332 10.9673C11.7734 11.496 13.0236 12.4439 13.9217 13.6891C14.8198 14.9343 15.3248 16.4198 15.3715 17.9544C15.3696 18.1198 15.3037 18.2781 15.1878 18.3962C15.0718 18.5142 14.9147 18.5829 14.7493 18.5879C14.584 18.5928 14.423 18.5337 14.3002 18.4228C14.1774 18.3119 14.1022 18.1579 14.0903 17.9928C14.0394 16.3284 13.3425 14.7493 12.1472 13.59C10.9519 12.4306 9.35219 11.7823 7.68703 11.7823C6.02187 11.7823 4.42215 12.4306 3.22685 13.59C2.03156 14.7493 1.33464 16.3284 1.28377 17.9928C1.27522 18.1601 1.2015 18.3174 1.07839 18.431C0.955294 18.5445 0.792607 18.6054 0.625186 18.6005C0.457765 18.5956 0.298927 18.5253 0.1827 18.4047C0.0664731 18.2841 0.00210139 18.1227 0.00337549 17.9552C0.0499714 16.4205 0.554831 14.9348 1.45297 13.6895C2.35111 12.4441 3.60142 11.496 5.04296 10.9673C4.40988 10.5365 3.89179 9.95736 3.53388 9.28039C3.17596 8.60342 2.98909 7.84917 2.98954 7.08341ZM7.68746 3.66675C6.7813 3.66675 5.91226 4.02671 5.27151 4.66746C4.63076 5.30821 4.27079 6.17726 4.27079 7.08341C4.27079 7.98957 4.63076 8.85861 5.27151 9.49936C5.91226 10.1401 6.7813 10.5001 7.68746 10.5001C8.59361 10.5001 9.46266 10.1401 10.1034 9.49936C10.7442 8.85861 11.1041 7.98957 11.1041 7.08341C11.1041 6.17726 10.7442 5.30821 10.1034 4.66746C9.46266 4.02671 8.59361 3.66675 7.68746 3.66675ZM14.7685 7.08341C14.6421 7.08341 14.5191 7.09195 14.3978 7.10904C14.3131 7.1242 14.2262 7.12215 14.1424 7.10301C14.0585 7.08387 13.9793 7.04804 13.9096 6.99764C13.8399 6.94725 13.781 6.88332 13.7365 6.80969C13.6921 6.73605 13.6629 6.65421 13.6507 6.56904C13.6385 6.48387 13.6436 6.39713 13.6657 6.31398C13.6878 6.23084 13.7264 6.15299 13.7792 6.08509C13.8321 6.01718 13.898 5.96061 13.9732 5.91876C14.0483 5.8769 14.1312 5.85061 14.2167 5.84145C15.0662 5.71863 15.9325 5.88177 16.6792 6.3052C17.4258 6.72863 18.0105 7.38832 18.3411 8.18044C18.6718 8.97256 18.7297 9.85215 18.5057 10.6808C18.2817 11.5094 17.7885 12.24 17.1038 12.7576C18.1103 13.2083 18.9649 13.9407 19.5645 14.8663C20.1641 15.7919 20.4831 16.8712 20.4829 17.974C20.4829 18.1439 20.4154 18.3069 20.2952 18.427C20.1751 18.5472 20.0122 18.6147 19.8422 18.6147C19.6723 18.6147 19.5094 18.5472 19.3893 18.427C19.2691 18.3069 19.2016 18.1439 19.2016 17.974C19.2015 17.0209 18.8944 16.0932 18.3258 15.3282C17.7572 14.5633 16.9573 14.0019 16.0446 13.7271L15.5885 13.5905V12.1589L15.9387 11.9803C16.4578 11.7174 16.8732 11.2872 17.1177 10.7591C17.3623 10.231 17.4217 9.63599 17.2864 9.07C17.1512 8.50401 16.8291 8.00011 16.3723 7.63967C15.9154 7.27922 15.3504 7.08326 14.7685 7.08341Z" fill="#8D8D8D"/>
</g>
<defs>
<clipPath id="clip0_3_5987">
<rect width="20.5" height="20.5" fill="white" transform="translate(0 0.25)"/>
</clipPath>
</defs>
</svg>
