<svg width="21" height="21" viewBox="0 0 21 21" fill="none" xmlns="http://www.w3.org/2000/svg">
<g clip-path="url(#clip0_3_4532)">
<path d="M2.9896 7.08341C2.98977 6.27359 3.19928 5.47756 3.59779 4.77258C3.99629 4.06759 4.57027 3.47759 5.26402 3.05983C5.95778 2.64207 6.74774 2.41074 7.55725 2.38828C8.36676 2.36583 9.16833 2.55301 9.88417 2.93167C10.6 3.31032 11.2058 3.8676 11.6428 4.5494C12.0798 5.23121 12.3331 6.0144 12.3782 6.82297C12.4232 7.63154 12.2585 8.43803 11.9 9.16417C11.5415 9.89031 11.0014 10.5115 10.332 10.9673C11.7734 11.496 13.0236 12.4439 13.9218 13.6891C14.8199 14.9343 15.3248 16.4198 15.3716 17.9544C15.3696 18.1198 15.3038 18.2781 15.1878 18.3962C15.0719 18.5142 14.9148 18.5829 14.7494 18.5879C14.584 18.5928 14.4231 18.5337 14.3003 18.4228C14.1775 18.3119 14.1023 18.1579 14.0904 17.9928C14.0395 16.3284 13.3426 14.7493 12.1473 13.59C10.952 12.4306 9.35225 11.7823 7.68709 11.7823C6.02193 11.7823 4.42221 12.4306 3.22691 13.59C2.03162 14.7493 1.3347 16.3284 1.28383 17.9928C1.27528 18.1601 1.20156 18.3174 1.07846 18.431C0.955355 18.5445 0.792668 18.6054 0.625247 18.6005C0.457826 18.5956 0.298988 18.5253 0.182761 18.4047C0.0665341 18.2841 0.00216243 18.1227 0.00343653 17.9552C0.0500325 16.4205 0.554892 14.9348 1.45303 13.6895C2.35117 12.4441 3.60148 11.496 5.04302 10.9673C4.40994 10.5365 3.89185 9.95736 3.53394 9.28039C3.17603 8.60342 2.98915 7.84917 2.9896 7.08341ZM7.68752 3.66675C6.78136 3.66675 5.91232 4.02671 5.27157 4.66746C4.63082 5.30821 4.27085 6.17726 4.27085 7.08341C4.27085 7.98957 4.63082 8.85861 5.27157 9.49936C5.91232 10.1401 6.78136 10.5001 7.68752 10.5001C8.59368 10.5001 9.46272 10.1401 10.1035 9.49936C10.7442 8.85861 11.1042 7.98957 11.1042 7.08341C11.1042 6.17726 10.7442 5.30821 10.1035 4.66746C9.46272 4.02671 8.59368 3.66675 7.68752 3.66675ZM14.7686 7.08341C14.6421 7.08341 14.5191 7.09195 14.3979 7.10904C14.3132 7.1242 14.2263 7.12215 14.1424 7.10301C14.0585 7.08387 13.9794 7.04804 13.9097 6.99764C13.8399 6.94725 13.7811 6.88332 13.7366 6.80969C13.6921 6.73605 13.6629 6.65421 13.6508 6.56904C13.6386 6.48387 13.6437 6.39713 13.6658 6.31398C13.6879 6.23084 13.7265 6.15299 13.7793 6.08509C13.8321 6.01718 13.8981 5.96061 13.9732 5.91876C14.0484 5.8769 14.1312 5.85061 14.2168 5.84145C15.0663 5.71863 15.9326 5.88177 16.6792 6.3052C17.4259 6.72863 18.0105 7.38832 18.3412 8.18044C18.6719 8.97256 18.7297 9.85215 18.5057 10.6808C18.2817 11.5094 17.7886 12.24 17.1039 12.7576C18.1104 13.2083 18.965 13.9407 19.5646 14.8663C20.1642 15.7919 20.4831 16.8712 20.4829 17.974C20.4829 18.1439 20.4154 18.3069 20.2953 18.427C20.1752 18.5472 20.0122 18.6147 19.8423 18.6147C19.6724 18.6147 19.5095 18.5472 19.3893 18.427C19.2692 18.3069 19.2017 18.1439 19.2017 17.974C19.2016 17.0209 18.8945 16.0932 18.3259 15.3282C17.7572 14.5633 16.9573 14.0019 16.0447 13.7271L15.5886 13.5905V12.1589L15.9388 11.9803C16.4579 11.7174 16.8732 11.2872 17.1178 10.7591C17.3623 10.231 17.4218 9.63599 17.2865 9.07C17.1512 8.50401 16.8292 8.00011 16.3723 7.63967C15.9155 7.27922 15.3505 7.08326 14.7686 7.08341Z" fill="#605BFF"/>
</g>
<defs>
<clipPath id="clip0_3_4532">
<rect width="20.5" height="20.5" fill="white" transform="translate(0 0.25)"/>
</clipPath>
</defs>
</svg>
