<svg width="21" height="21" viewBox="0 0 21 21" fill="none" xmlns="http://www.w3.org/2000/svg">
<g clip-path="url(#clip0_3_71)">
<path d="M2.98911 7.08317C2.98928 6.27335 3.19879 5.47732 3.5973 4.77233C3.99581 4.06735 4.56979 3.47735 5.26354 3.05959C5.95729 2.64183 6.74725 2.41049 7.55676 2.38804C8.36627 2.36558 9.16784 2.55276 9.88369 2.93142C10.5995 3.31008 11.2053 3.86735 11.6423 4.54916C12.0793 5.23097 12.3326 6.01416 12.3777 6.82273C12.4227 7.6313 12.258 8.43778 11.8995 9.16393C11.541 9.89007 11.0009 10.5112 10.3315 10.9671C11.7729 11.4957 13.0232 12.4437 13.9213 13.6889C14.8194 14.9341 15.3244 16.4196 15.3711 17.9541C15.3691 18.1196 15.3033 18.2779 15.1873 18.3959C15.0714 18.514 14.9143 18.5827 14.7489 18.5876C14.5835 18.5926 14.4226 18.5335 14.2998 18.4226C14.177 18.3117 14.1018 18.1576 14.0899 17.9926C14.039 16.3282 13.3421 14.749 12.1468 13.5897C10.9515 12.4304 9.35176 11.782 7.6866 11.782C6.02145 11.782 4.42172 12.4304 3.22643 13.5897C2.03113 14.749 1.33421 16.3282 1.28334 17.9926C1.27479 18.1599 1.20107 18.3171 1.07797 18.4307C0.954866 18.5443 0.792179 18.6051 0.624759 18.6002C0.457338 18.5953 0.2985 18.525 0.182273 18.4044C0.0660458 18.2838 0.00167414 18.1225 0.00294825 17.955C0.0495442 16.4203 0.554404 14.9346 1.45254 13.6892C2.35068 12.4439 3.60099 11.4958 5.04253 10.9671C4.40945 10.5363 3.89137 9.95712 3.53345 9.28015C3.17554 8.60318 2.98866 7.84893 2.98911 7.08317ZM7.68703 3.6665C6.78087 3.6665 5.91183 4.02647 5.27108 4.66722C4.63033 5.30797 4.27036 6.17701 4.27036 7.08317C4.27036 7.98932 4.63033 8.85837 5.27108 9.49912C5.91183 10.1399 6.78087 10.4998 7.68703 10.4998C8.59319 10.4998 9.46223 10.1399 10.103 9.49912C10.7437 8.85837 11.1037 7.98932 11.1037 7.08317C11.1037 6.17701 10.7437 5.30797 10.103 4.66722C9.46223 4.02647 8.59319 3.6665 7.68703 3.6665ZM14.7681 7.08317C14.6417 7.08317 14.5187 7.09171 14.3974 7.10879C14.3127 7.12396 14.2258 7.12191 14.1419 7.10277C14.0581 7.08363 13.9789 7.04779 13.9092 6.9974C13.8395 6.947 13.7806 6.88308 13.7361 6.80944C13.6916 6.7358 13.6624 6.65396 13.6503 6.5688C13.6381 6.48363 13.6432 6.39689 13.6653 6.31374C13.6874 6.23059 13.726 6.15274 13.7788 6.08484C13.8316 6.01694 13.8976 5.96037 13.9728 5.91851C14.0479 5.87665 14.1307 5.85036 14.2163 5.84121C15.0658 5.71838 15.9321 5.88152 16.6787 6.30496C17.4254 6.72839 18.0101 7.38808 18.3407 8.1802C18.6714 8.97232 18.7293 9.8519 18.5053 10.6805C18.2813 11.5091 17.7881 12.2398 17.1034 12.7574C18.1099 13.2081 18.9645 13.9404 19.5641 14.866C20.1637 15.7916 20.4826 16.871 20.4824 17.9738C20.4824 18.1437 20.415 18.3066 20.2948 18.4268C20.1747 18.5469 20.0117 18.6144 19.8418 18.6144C19.6719 18.6144 19.509 18.5469 19.3888 18.4268C19.2687 18.3066 19.2012 18.1437 19.2012 17.9738C19.2011 17.0207 18.894 16.0929 18.3254 15.328C17.7567 14.5631 16.9569 14.0016 16.0442 13.7269L15.5881 13.5902V12.1586L15.9383 11.9801C16.4574 11.7171 16.8728 11.2869 17.1173 10.7589C17.3618 10.2308 17.4213 9.63574 17.286 9.06975C17.1508 8.50376 16.8287 7.99987 16.3719 7.63942C15.915 7.27898 15.35 7.08301 14.7681 7.08317Z" fill="#8D8D8D"/>
</g>
<defs>
<clipPath id="clip0_3_71">
<rect width="20.5" height="20.5" fill="white" transform="translate(0 0.25)"/>
</clipPath>
</defs>
</svg>
