<svg width="21" height="21" viewBox="0 0 21 21" fill="none" xmlns="http://www.w3.org/2000/svg">
<g clip-path="url(#clip0_3_2523)">
<path d="M2.98948 7.08317C2.98965 6.27335 3.19915 5.47732 3.59766 4.77233C3.99617 4.06735 4.57015 3.47735 5.2639 3.05959C5.95765 2.64183 6.74761 2.41049 7.55713 2.38804C8.36664 2.36558 9.16821 2.55276 9.88405 2.93142C10.5999 3.31008 11.2057 3.86735 11.6427 4.54916C12.0797 5.23097 12.333 6.01416 12.378 6.82273C12.4231 7.6313 12.2584 8.43778 11.8999 9.16393C11.5414 9.89007 11.0012 10.5112 10.3319 10.9671C11.7733 11.4957 13.0235 12.4437 13.9217 13.6889C14.8198 14.9341 15.3247 16.4196 15.3715 17.9541C15.3695 18.1196 15.3036 18.2779 15.1877 18.3959C15.0718 18.514 14.9147 18.5827 14.7493 18.5876C14.5839 18.5926 14.423 18.5335 14.3002 18.4226C14.1773 18.3117 14.1021 18.1576 14.0902 17.9926C14.0394 16.3282 13.3424 14.749 12.1471 13.5897C10.9519 12.4304 9.35213 11.782 7.68697 11.782C6.02181 11.782 4.42208 12.4304 3.22679 13.5897C2.0315 14.749 1.33458 16.3282 1.28371 17.9926C1.27516 18.1599 1.20143 18.3171 1.07833 18.4307C0.955233 18.5443 0.792546 18.6051 0.625125 18.6002C0.457704 18.5953 0.298866 18.525 0.182639 18.4044C0.066412 18.2838 0.00204036 18.1225 0.00331446 17.955C0.0499104 16.4203 0.55477 14.9346 1.45291 13.6892C2.35105 12.4439 3.60136 11.4958 5.0429 10.9671C4.40982 10.5363 3.89173 9.95712 3.53382 9.28015C3.1759 8.60318 2.98903 7.84893 2.98948 7.08317ZM7.6874 3.6665C6.78124 3.6665 5.9122 4.02647 5.27145 4.66722C4.6307 5.30797 4.27073 6.17701 4.27073 7.08317C4.27073 7.98932 4.6307 8.85837 5.27145 9.49912C5.9122 10.1399 6.78124 10.4998 7.6874 10.4998C8.59355 10.4998 9.4626 10.1399 10.1033 9.49912C10.7441 8.85837 11.1041 7.98932 11.1041 7.08317C11.1041 6.17701 10.7441 5.30797 10.1033 4.66722C9.4626 4.02647 8.59355 3.6665 7.6874 3.6665ZM14.7684 7.08317C14.642 7.08317 14.519 7.09171 14.3977 7.10879C14.313 7.12396 14.2262 7.12191 14.1423 7.10277C14.0584 7.08363 13.9793 7.04779 13.9095 6.9974C13.8398 6.947 13.781 6.88308 13.7365 6.80944C13.692 6.7358 13.6628 6.65396 13.6506 6.5688C13.6385 6.48363 13.6436 6.39689 13.6657 6.31374C13.6877 6.23059 13.7264 6.15274 13.7792 6.08484C13.832 6.01694 13.898 5.96037 13.9731 5.91851C14.0483 5.87665 14.1311 5.85036 14.2166 5.84121C15.0662 5.71838 15.9324 5.88152 16.6791 6.30496C17.4258 6.72839 18.0104 7.38808 18.3411 8.1802C18.6717 8.97232 18.7296 9.8519 18.5056 10.6805C18.2816 11.5091 17.7885 12.2398 17.1037 12.7574C18.1103 13.2081 18.9649 13.9404 19.5645 14.866C20.1641 15.7916 20.483 16.871 20.4828 17.9738C20.4828 18.1437 20.4153 18.3066 20.2952 18.4268C20.175 18.5469 20.0121 18.6144 19.8422 18.6144C19.6723 18.6144 19.5093 18.5469 19.3892 18.4268C19.2691 18.3066 19.2016 18.1437 19.2016 17.9738C19.2015 17.0207 18.8944 16.0929 18.3257 15.328C17.7571 14.5631 16.9572 14.0016 16.0446 13.7269L15.5884 13.5902V12.1586L15.9386 11.9801C16.4578 11.7171 16.8731 11.2869 17.1177 10.7589C17.3622 10.2308 17.4216 9.63574 17.2864 9.06975C17.1511 8.50376 16.8291 7.99987 16.3722 7.63942C15.9154 7.27898 15.3504 7.08301 14.7684 7.08317Z" fill="#8D8D8D"/>
</g>
<defs>
<clipPath id="clip0_3_2523">
<rect width="20.5" height="20.5" fill="white" transform="translate(0 0.25)"/>
</clipPath>
</defs>
</svg>
