<svg width="15" height="16" viewBox="0 0 15 16" fill="none" xmlns="http://www.w3.org/2000/svg">
<path d="M8.453 7.95924C8.453 8.09256 8.41347 8.22289 8.3394 8.33374C8.26533 8.44459 8.16005 8.53099 8.03688 8.58201C7.91371 8.63303 7.77817 8.64638 7.64741 8.62037C7.51665 8.59436 7.39654 8.53016 7.30227 8.43589C7.208 8.34162 7.1438 8.22151 7.11779 8.09075C7.09178 7.95999 7.10513 7.82445 7.15615 7.70128C7.20717 7.57811 7.29357 7.47283 7.40442 7.39876C7.51527 7.32469 7.6456 7.28516 7.77892 7.28516C7.9577 7.28516 8.12915 7.35618 8.25557 7.48259C8.38198 7.60901 8.453 7.78046 8.453 7.95924ZM11.5987 7.28516C11.4654 7.28516 11.3351 7.32469 11.2242 7.39876C11.1134 7.47283 11.027 7.57811 10.976 7.70128C10.9249 7.82445 10.9116 7.95999 10.9376 8.09075C10.9636 8.22151 11.0278 8.34162 11.1221 8.43589C11.2163 8.53016 11.3365 8.59436 11.4672 8.62037C11.598 8.64638 11.7335 8.63303 11.8567 8.58201C11.9799 8.53099 12.0851 8.44459 12.1592 8.33374C12.2333 8.22289 12.2728 8.09256 12.2728 7.95924C12.2728 7.78046 12.2018 7.60901 12.0754 7.48259C11.949 7.35618 11.7775 7.28516 11.5987 7.28516ZM3.95912 7.28516C3.8258 7.28516 3.69547 7.32469 3.58462 7.39876C3.47376 7.47283 3.38737 7.57811 3.33635 7.70128C3.28533 7.82445 3.27198 7.95999 3.29799 8.09075C3.324 8.22151 3.3882 8.34162 3.48247 8.43589C3.57674 8.53016 3.69685 8.59436 3.82761 8.62037C3.95837 8.64638 4.09391 8.63303 4.21708 8.58201C4.34025 8.53099 4.44553 8.44459 4.5196 8.33374C4.59367 8.22289 4.6332 8.09256 4.6332 7.95924C4.6332 7.78046 4.56218 7.60901 4.43577 7.48259C4.30935 7.35618 4.1379 7.28516 3.95912 7.28516Z" fill="black"/>
</svg>
