<svg width="20" height="19" viewBox="0 0 20 19" fill="none" xmlns="http://www.w3.org/2000/svg">
<path opacity="0.2" d="M16.25 6.53125H11.875V2.375L16.25 6.53125Z" fill="black"/>
<path d="M3.75 13.3594C3.75 14.1758 4.31094 14.8438 5 14.8438C5.15082 14.8405 5.29937 14.8082 5.43663 14.7488C5.57389 14.6893 5.69699 14.604 5.79844 14.4979C5.91359 14.3865 6.0703 14.3226 6.23464 14.3202C6.39898 14.3177 6.55772 14.3769 6.67648 14.4848C6.79524 14.5928 6.86446 14.7408 6.86916 14.8969C6.87385 15.053 6.81364 15.2045 6.70156 15.3187C6.48394 15.5413 6.22077 15.7193 5.92818 15.8418C5.63559 15.9643 5.31974 16.0288 5 16.0312C3.62109 16.0312 2.5 14.8326 2.5 13.3594C2.5 11.8861 3.62109 10.6875 5 10.6875C5.31974 10.69 5.63559 10.7544 5.92818 10.8769C6.22077 10.9995 6.48394 11.1774 6.70156 11.4C6.81364 11.5142 6.87385 11.6658 6.86916 11.8218C6.86446 11.9779 6.79524 12.126 6.67648 12.2339C6.55772 12.3418 6.39898 12.401 6.23464 12.3986C6.0703 12.3961 5.91359 12.3323 5.79844 12.2209C5.69699 12.1148 5.57389 12.0294 5.43663 11.97C5.29937 11.9105 5.15082 11.8782 5 11.875C4.31094 11.875 3.75 12.543 3.75 13.3594ZM9.96875 12.7144C9.65625 12.6283 9.33281 12.54 9.15234 12.4294C9.05469 12.3693 9.05625 12.3552 9.06484 12.2884C9.06621 12.2345 9.0811 12.1816 9.10827 12.1342C9.13545 12.0869 9.17412 12.0463 9.22109 12.016C9.58047 11.7845 10.4195 11.8876 10.7703 11.9745C10.9307 12.0152 11.1015 11.9938 11.2453 11.9148C11.389 11.8359 11.4938 11.706 11.5367 11.5536C11.5796 11.4013 11.557 11.239 11.474 11.1024C11.3909 10.9659 11.2541 10.8663 11.0938 10.8255C10.9281 10.7847 9.45313 10.4381 8.52813 11.0304C8.33252 11.1551 8.16815 11.3191 8.04664 11.5109C7.92514 11.7026 7.84948 11.9174 7.825 12.14C7.66875 13.3186 8.89141 13.6548 9.62188 13.8552C10.5641 14.1142 10.6469 14.2203 10.6203 14.4185C10.5961 14.5973 10.5219 14.6664 10.4531 14.7102C10.0938 14.9373 9.26797 14.8259 8.92578 14.7369C8.76582 14.6945 8.59468 14.7141 8.45 14.7916C8.30531 14.8691 8.19895 14.9979 8.1543 15.1499C8.10965 15.3019 8.13037 15.4645 8.2119 15.6019C8.29343 15.7393 8.4291 15.8404 8.58906 15.8828C8.97655 15.9792 9.37523 16.0291 9.77578 16.0312C10.2305 16.0312 10.7367 15.957 11.1422 15.7002C11.3423 15.5739 11.5105 15.407 11.6346 15.2116C11.7588 15.0161 11.8358 14.797 11.8602 14.5699C12.0312 13.2852 10.7414 12.9267 9.96875 12.7144ZM16.4602 10.7224C16.3829 10.6961 16.3009 10.6845 16.2188 10.6884C16.1368 10.6922 16.0564 10.7113 15.9822 10.7447C15.908 10.778 15.8414 10.825 15.7863 10.8828C15.7312 10.9406 15.6886 11.0081 15.6609 11.0816L14.6875 13.6718L13.7133 11.0816C13.6575 10.9333 13.5421 10.8121 13.3923 10.7446C13.2425 10.6772 13.0706 10.6691 12.9145 10.722C12.7583 10.775 12.6307 10.8847 12.5598 11.027C12.4888 11.1693 12.4802 11.3326 12.5359 11.4809L14.0984 15.6371C14.1418 15.7525 14.2216 15.8524 14.327 15.9229C14.4324 15.9935 14.5582 16.0314 14.6871 16.0314C14.8161 16.0314 14.9419 15.9935 15.0472 15.9229C15.1526 15.8524 15.2325 15.7525 15.2758 15.6371L16.8383 11.4809C16.8939 11.3327 16.8854 11.1695 16.8145 11.0273C16.7436 10.8851 16.6161 10.7754 16.4602 10.7224ZM16.875 6.53125V8.3125C16.875 8.46997 16.8092 8.62099 16.6919 8.73234C16.5747 8.84369 16.4158 8.90625 16.25 8.90625C16.0842 8.90625 15.9253 8.84369 15.8081 8.73234C15.6908 8.62099 15.625 8.46997 15.625 8.3125V7.125H11.875C11.7092 7.125 11.5503 7.06244 11.4331 6.95109C11.3158 6.83974 11.25 6.68872 11.25 6.53125V2.96875H4.375V8.3125C4.375 8.46997 4.30915 8.62099 4.19194 8.73234C4.07473 8.84369 3.91576 8.90625 3.75 8.90625C3.58424 8.90625 3.42527 8.84369 3.30806 8.73234C3.19085 8.62099 3.125 8.46997 3.125 8.3125V2.96875C3.125 2.65381 3.2567 2.35176 3.49112 2.12906C3.72554 1.90636 4.04348 1.78125 4.375 1.78125H11.875C11.9571 1.78119 12.0384 1.7965 12.1143 1.82629C12.1902 1.85609 12.2591 1.8998 12.3172 1.95492L16.6922 6.11117C16.7502 6.16635 16.7962 6.23185 16.8276 6.30393C16.859 6.37601 16.8751 6.45325 16.875 6.53125ZM14.7414 5.9375L12.5 3.80816V5.9375H14.7414Z" fill="black"/>
</svg>
