<svg width="20" fill="none" height="21" viewBox="0 0 20 21" xmlns="http://www.w3.org/2000/svg">
  <path d="M6.86922 6.61758L1.55255 7.38841L1.45838 7.40758C1.31583 7.44542 1.18588 7.52042 1.08179 7.62491C0.977707 7.72941 0.903219 7.85965 0.865934 8.00235C0.82865 8.14505 0.829905 8.29509 0.869572 8.43714C0.909239 8.57919 0.985896 8.70817 1.09172 8.81091L4.94338 12.5601L4.03505 17.8559L4.02422 17.9476C4.01549 18.095 4.0461 18.2421 4.11292 18.3738C4.17974 18.5055 4.28037 18.6171 4.4045 18.6972C4.52862 18.7772 4.67179 18.8228 4.81934 18.8293C4.96689 18.8358 5.11352 18.803 5.24422 18.7342L9.99922 16.2342L14.7434 18.7342L14.8267 18.7726C14.9643 18.8268 15.1138 18.8434 15.2598 18.8207C15.4059 18.7981 15.5434 18.7369 15.658 18.6436C15.7727 18.5503 15.8605 18.4282 15.9124 18.2898C15.9643 18.1513 15.9785 18.0016 15.9534 17.8559L15.0442 12.5601L18.8975 8.81008L18.9625 8.73925C19.0554 8.62488 19.1163 8.48796 19.139 8.34241C19.1617 8.19686 19.1454 8.04789 19.0918 7.91069C19.0382 7.77348 18.9492 7.65294 18.8338 7.56134C18.7184 7.46974 18.5808 7.41036 18.435 7.38925L13.1184 6.61758L10.7417 1.80091C10.6729 1.66136 10.5665 1.54384 10.4344 1.46167C10.3023 1.37949 10.1498 1.33594 9.99422 1.33594C9.83864 1.33594 9.68616 1.37949 9.55406 1.46167C9.42195 1.54384 9.31549 1.66136 9.24672 1.80091L6.86922 6.61758Z" stroke="#8D8D8D" stroke-width="1"/>
</svg>
