<svg width="161" height="127" viewBox="0 0 161 127" fill="none" xmlns="http://www.w3.org/2000/svg">
<path d="M98.7958 5.7914C100.05 5.7914 101.067 4.77495 101.067 3.5207C101.067 2.26645 100.05 1.25 98.7958 1.25C97.5415 1.25 96.5244 2.26645 96.5244 3.5207C96.5244 4.77495 97.5415 5.7914 98.7958 5.7914Z" fill="#605BFF" stroke="white"/>
<path d="M157.76 36.2191C159.014 36.2191 160.031 35.2027 160.031 33.9484C160.031 32.6942 159.014 31.6777 157.76 31.6777C156.505 31.6777 155.488 32.6942 155.488 33.9484C155.488 35.2027 156.505 36.2191 157.76 36.2191Z" fill="#605BFF" stroke="white"/>
<path d="M142.525 115.537C143.78 115.537 144.797 114.521 144.797 113.266C144.797 112.012 143.78 110.996 142.525 110.996C141.271 110.996 140.254 112.012 140.254 113.266C140.254 114.521 141.271 115.537 142.525 115.537Z" fill="#605BFF" stroke="white"/>
<path d="M47.7782 125.565C49.0324 125.565 50.0495 124.549 50.0495 123.295C50.0495 122.04 49.0324 121.024 47.7782 121.024C46.5239 121.024 45.5068 122.04 45.5068 123.295C45.5068 124.549 46.5239 125.565 47.7782 125.565Z" fill="#605BFF" stroke="white"/>
<path d="M4.45495 25.2294C5.98518 25.2294 7.22631 23.9893 7.22631 22.4587C7.22631 20.9281 5.98518 19.688 4.45495 19.688C2.92472 19.688 1.68359 20.9281 1.68359 22.4587C1.68359 23.9893 2.92472 25.2294 4.45495 25.2294Z" fill="#605BFF" stroke="white" stroke-width="2"/>
</svg>
