<svg width="16" height="16" viewBox="0 0 16 16" fill="none" xmlns="http://www.w3.org/2000/svg">
<path d="M4.66675 4.66602H4.00008C3.64646 4.66602 3.30732 4.80649 3.05727 5.05654C2.80722 5.30659 2.66675 5.64573 2.66675 5.99935V11.9993C2.66675 12.353 2.80722 12.6921 3.05727 12.9422C3.30732 13.1922 3.64646 13.3327 4.00008 13.3327H10.0001C10.3537 13.3327 10.6928 13.1922 10.9429 12.9422C11.1929 12.6921 11.3334 12.353 11.3334 11.9993V11.3327" stroke="#8D8D8D" stroke-width="1.33333" stroke-linecap="round" stroke-linejoin="round"/>
<path d="M10.6667 3.33145L12.6667 5.33145M13.59 4.38812C13.8526 4.12555 14.0001 3.76944 14.0001 3.39812C14.0001 3.0268 13.8526 2.67068 13.59 2.40812C13.3274 2.14555 12.9713 1.99805 12.6 1.99805C12.2287 1.99805 11.8726 2.14555 11.61 2.40812L6 7.99812V9.99812H8L13.59 4.38812Z" stroke="#8D8D8D" stroke-width="1.33333" stroke-linecap="round" stroke-linejoin="round"/>
</svg>
