<svg width="24" height="24" viewBox="0 0 24 24" fill="none" xmlns="http://www.w3.org/2000/svg">
<path d="M7.12684 1C7.32734 1 7.51964 1.07965 7.66141 1.22143C7.80319 1.3632 7.88284 1.5555 7.88284 1.756V3.16972H16.0012V1.76572C16.0012 1.56522 16.0809 1.37292 16.2226 1.23115C16.3644 1.08937 16.5567 1.00972 16.7572 1.00972C16.9577 1.00972 17.15 1.08937 17.2918 1.23115C17.4336 1.37292 17.5132 1.56522 17.5132 1.76572V3.16972H20.44C21.0127 3.16972 21.5619 3.39714 21.967 3.80199C22.372 4.20683 22.5997 4.75596 22.6 5.32864V20.4411C22.5997 21.0138 22.372 21.5629 21.967 21.9677C21.5619 22.3726 21.0127 22.6 20.44 22.6H3.16C2.58732 22.6 2.03808 22.3726 1.63303 21.9677C1.22798 21.5629 1.00029 21.0138 1 20.4411V5.32864C1.00029 4.75596 1.22798 4.20683 1.63303 3.80199C2.03808 3.39714 2.58732 3.16972 3.16 3.16972H6.37084V1.75492C6.37113 1.5546 6.4509 1.36259 6.59265 1.22105C6.7344 1.0795 6.92652 1 7.12684 1ZM2.512 9.36136V20.4411C2.512 20.5262 2.52876 20.6104 2.56133 20.6891C2.59389 20.7677 2.64162 20.8391 2.70179 20.8993C2.76197 20.9595 2.8334 21.0072 2.91202 21.0398C2.99064 21.0723 3.0749 21.0891 3.16 21.0891H20.44C20.5251 21.0891 20.6094 21.0723 20.688 21.0398C20.7666 21.0072 20.838 20.9595 20.8982 20.8993C20.9584 20.8391 21.0061 20.7677 21.0387 20.6891C21.0712 20.6104 21.088 20.5262 21.088 20.4411V9.37648L2.512 9.36136ZM8.20036 16.7885V18.5878H6.4V16.7885H8.20036ZM12.6996 16.7885V18.5878H10.9004V16.7885H12.6996ZM17.2 16.7885V18.5878H15.3996V16.7885H17.2ZM8.20036 12.4934V14.2926H6.4V12.4934H8.20036ZM12.6996 12.4934V14.2926H10.9004V12.4934H12.6996ZM17.2 12.4934V14.2926H15.3996V12.4934H17.2ZM6.37084 4.68064H3.16C3.0749 4.68064 2.99064 4.6974 2.91202 4.72997C2.8334 4.76253 2.76197 4.81026 2.70179 4.87043C2.64162 4.93061 2.59389 5.00204 2.56133 5.08066C2.52876 5.15928 2.512 5.24354 2.512 5.32864V7.85044L21.088 7.86556V5.32864C21.088 5.24354 21.0712 5.15928 21.0387 5.08066C21.0061 5.00204 20.9584 4.93061 20.8982 4.87043C20.838 4.81026 20.7666 4.76253 20.688 4.72997C20.6094 4.6974 20.5251 4.68064 20.44 4.68064H17.5132V5.68396C17.5132 5.88446 17.4336 6.07676 17.2918 6.21853C17.15 6.36031 16.9577 6.43996 16.7572 6.43996C16.5567 6.43996 16.3644 6.36031 16.2226 6.21853C16.0809 6.07676 16.0012 5.88446 16.0012 5.68396V4.68064H7.88284V5.67424C7.88284 5.87474 7.80319 6.06704 7.66141 6.20881C7.51964 6.35059 7.32734 6.43024 7.12684 6.43024C6.92634 6.43024 6.73404 6.35059 6.59227 6.20881C6.45049 6.06704 6.37084 5.87474 6.37084 5.67424V4.68064Z" fill="#8D8D8D"/>
</svg>
