<svg width="557" height="145" viewBox="0 0 557 145" fill="none" xmlns="http://www.w3.org/2000/svg">
<g filter="url(#filter0_d_3_224)">
<path d="M6 44.6989L12.4719 51.8422C18.9816 58.7185 32.1146 73.4057 44.9826 83.887C57.8885 94.7688 70.7187 101.445 83.9653 87.4252C96.8333 73.4057 109.701 37.3554 122.948 37.5556C135.778 37.3554 148.684 73.4057 161.552 83.887C174.685 94.7688 187.667 80.0816 200.535 87.4252C213.63 94.7688 226.649 122.808 239.517 112.327C252.537 101.445 265.632 52.0425 278.5 55.3805C291.482 58.7185 304.615 84.7732 317.483 113.013C330.389 141.519 343.219 141.519 356.465 123.694C371.132 106.632 378.293 99.9583 394.065 90.5611C410.703 81.9374 421.184 94.7688 434.052 80.2819C447.185 66.0621 460.167 23.3358 473.035 16.1925C486.13 9.31624 499.149 37.3554 512.017 41.1607C525.037 44.6989 538.132 23.3358 544.566 12.6542L551 1.97266" stroke="#605BFF" stroke-width="3.42183" stroke-linecap="round"/>
</g>
<defs>
<filter id="filter0_d_3_224" x="0.867232" y="0.261719" width="555.266" height="144.256" filterUnits="userSpaceOnUse" color-interpolation-filters="sRGB">
<feFlood flood-opacity="0" result="BackgroundImageFix"/>
<feColorMatrix in="SourceAlpha" type="matrix" values="0 0 0 0 0 0 0 0 0 0 0 0 0 0 0 0 0 0 127 0" result="hardAlpha"/>
<feOffset dy="3.42183"/>
<feGaussianBlur stdDeviation="1.71092"/>
<feColorMatrix type="matrix" values="0 0 0 0 0.329412 0 0 0 0 0.556863 0 0 0 0 1 0 0 0 0.15 0"/>
<feBlend mode="normal" in2="BackgroundImageFix" result="effect1_dropShadow_3_224"/>
<feBlend mode="normal" in="SourceGraphic" in2="effect1_dropShadow_3_224" result="shape"/>
</filter>
</defs>
</svg>
