<svg width="20" height="22" viewBox="0 0 20 22" fill="none" xmlns="http://www.w3.org/2000/svg">
<path d="M19.6748 8.33555L18.1397 9.64805C18.2123 10.0934 18.2498 10.548 18.2498 11.0027C18.2498 11.4574 18.2123 11.9121 18.1397 12.3574L19.6748 13.6699C19.7906 13.769 19.8735 13.9011 19.9124 14.0484C19.9513 14.1958 19.9445 14.3515 19.8928 14.4949L19.8717 14.5559C19.4491 15.737 18.8162 16.832 18.0037 17.7879L17.9615 17.8371C17.863 17.953 17.7316 18.0363 17.5847 18.0761C17.4379 18.1158 17.2824 18.1101 17.1389 18.0598L15.2334 17.3824C14.5303 17.959 13.7451 18.4137 12.8967 18.7324L12.5287 20.7246C12.501 20.8745 12.4282 21.0124 12.3202 21.12C12.2122 21.2276 12.074 21.2998 11.924 21.327L11.8607 21.3387C10.6397 21.559 9.35528 21.559 8.13418 21.3387L8.0709 21.327C7.9209 21.2998 7.78271 21.2276 7.6747 21.12C7.56669 21.0124 7.49398 20.8745 7.46622 20.7246L7.0959 18.723C6.25424 18.4042 5.47043 17.9498 4.77559 17.3777L2.85606 18.0598C2.71254 18.1105 2.55698 18.1164 2.41003 18.0766C2.26309 18.0369 2.13173 17.9533 2.0334 17.8371L1.99122 17.7879C1.17968 16.8313 0.546941 15.7366 0.123247 14.5559L0.102153 14.4949C-0.0033156 14.202 0.0834032 13.8738 0.320122 13.6699L1.87403 12.3434C1.80137 11.9027 1.76622 11.4527 1.76622 11.0051C1.76622 10.5551 1.80137 10.1051 1.87403 9.6668L0.320122 8.34023C0.204331 8.24111 0.121457 8.10908 0.0825219 7.96171C0.0435864 7.81435 0.0504336 7.65862 0.102153 7.51523L0.123247 7.4543C0.547466 6.27305 1.17559 5.1832 1.99122 4.22226L2.0334 4.17305C2.13197 4.05715 2.26333 3.97384 2.41019 3.9341C2.55705 3.89435 2.7125 3.90003 2.85606 3.95039L4.77559 4.63242C5.47403 4.0582 6.2545 3.60352 7.0959 3.28711L7.46622 1.28555C7.49398 1.13565 7.56669 0.997739 7.6747 0.89015C7.78271 0.782561 7.9209 0.710382 8.0709 0.683202L8.13418 0.671484C9.3665 0.449991 10.6284 0.449991 11.8607 0.671484L11.924 0.683202C12.074 0.710382 12.2122 0.782561 12.3202 0.89015C12.4282 0.997739 12.501 1.13565 12.5287 1.28555L12.8967 3.27773C13.7448 3.59565 14.5344 4.05182 15.2334 4.62773L17.1389 3.95039C17.2824 3.89963 17.438 3.89374 17.5849 3.93351C17.7318 3.97329 17.8632 4.05683 17.9615 4.17305L18.0037 4.22226C18.8193 5.18555 19.4475 6.27305 19.8717 7.4543L19.8928 7.51523C19.9982 7.80351 19.9115 8.13164 19.6748 8.33555ZM16.4756 12.0809C16.5342 11.727 16.5647 11.3637 16.5647 11.0004C16.5647 10.6371 16.5342 10.2738 16.4756 9.91992L16.3209 8.98008L18.0717 7.48242C17.8063 6.87096 17.4712 6.29214 17.0732 5.75742L14.8982 6.52852L14.1623 5.92383C13.6022 5.46445 12.9787 5.10351 12.3037 4.85039L11.4107 4.51523L10.9912 2.2418C10.3293 2.1668 9.66097 2.1668 8.99903 2.2418L8.5795 4.51992L7.69356 4.85977C7.02559 5.11289 6.4045 5.47383 5.84903 5.93086L5.11309 6.53789L2.92403 5.75977C2.52559 6.29648 2.19278 6.87539 1.92559 7.48477L3.69512 8.99648L3.54278 9.93398C3.48653 10.2832 3.45606 10.6441 3.45606 11.0004C3.45606 11.359 3.48418 11.7176 3.54278 12.0668L3.69512 13.0043L1.92559 14.516C2.19043 15.1277 2.52559 15.7043 2.92403 16.241L5.11309 15.4629L5.84903 16.0699C6.4045 16.527 7.02559 16.8879 7.69356 17.141L8.58184 17.4762L9.00137 19.7543C9.65997 19.8293 10.3326 19.8293 10.9936 19.7543L11.4131 17.4809L12.3061 17.1457C12.9787 16.8926 13.6045 16.5316 14.1647 16.0723L14.9006 15.4676L17.0756 16.2387C17.474 15.702 17.8068 15.123 18.074 14.5137L16.3232 13.016L16.4756 12.0809ZM9.99981 15.3598C7.72168 15.3598 5.87481 13.5129 5.87481 11.2348C5.87481 8.95664 7.72168 7.10977 9.99981 7.10977C12.2779 7.10977 14.1248 8.95664 14.1248 11.2348C14.1248 13.5129 12.2779 15.3598 9.99981 15.3598ZM11.8561 9.37851C11.6126 9.13435 11.3233 8.94073 11.0047 8.8088C10.6861 8.67687 10.3446 8.60923 9.99981 8.60977C9.29903 8.60977 8.64043 8.88398 8.14356 9.37851C7.8994 9.62198 7.70578 9.91132 7.57385 10.2299C7.44192 10.5485 7.37427 10.89 7.37481 11.2348C7.37481 11.9355 7.64903 12.5941 8.14356 13.091C8.64043 13.5879 9.29903 13.8598 9.99981 13.8598C10.7006 13.8598 11.3592 13.5879 11.8561 13.091C12.1002 12.8476 12.2938 12.5582 12.4258 12.2396C12.5577 11.9211 12.6253 11.5796 12.6248 11.2348C12.6248 10.534 12.3506 9.87539 11.8561 9.37851Z" fill="#999999"/>
</svg>
