<svg width="308" height="126" viewBox="0 0 308 126" fill="none" xmlns="http://www.w3.org/2000/svg">
<path d="M0 31.5L3.6575 36.7664C7.33639 41.8359 14.7583 52.6641 22.0306 60.3914C29.3242 68.4141 36.575 73.3359 44.0611 63C51.3333 52.6641 58.6055 26.0859 66.0917 26.2336C73.3425 26.0859 80.6361 52.6641 87.9083 60.3914C95.3303 68.4141 102.667 57.5859 109.939 63C117.339 68.4141 124.697 89.0859 131.969 81.3586C139.327 73.3359 146.728 36.9141 154 39.375C161.336 41.8359 168.758 61.0448 176.031 81.8643C183.324 102.881 190.575 102.881 198.061 89.7393C206.35 77.1606 210.397 72.24 219.31 65.3119C228.713 58.9541 234.636 68.4141 241.908 57.7336C249.33 47.25 256.667 15.75 263.939 10.4836C271.339 5.41406 278.697 26.0859 285.969 28.8914C293.327 31.5 300.728 15.75 304.364 7.875L308 0V126H304.342C300.664 126 293.242 126 285.969 126C278.676 126 271.425 126 263.939 126C256.667 126 249.394 126 241.908 126C234.657 126 227.364 126 220.092 126C212.67 126 205.333 126 198.061 126C190.661 126 183.303 126 176.031 126C168.673 126 161.272 126 154 126C146.664 126 139.242 126 131.969 126C124.676 126 117.425 126 109.939 126C102.667 126 95.3944 126 87.9083 126C80.6575 126 73.3639 126 66.0917 126C58.6697 126 51.3333 126 44.0611 126C36.6606 126 29.3028 126 22.0306 126C14.6728 126 7.27222 126 3.63611 126H0V31.5Z" fill="url(#paint0_linear_3_3949)"/>
<defs>
<linearGradient id="paint0_linear_3_3949" x1="0" y1="0" x2="88.3115" y2="215.873" gradientUnits="userSpaceOnUse">
<stop stop-color="#605BFF" stop-opacity="0.22"/>
<stop offset="1" stop-color="#605BFF" stop-opacity="0"/>
</linearGradient>
</defs>
</svg>
