<svg width="545" height="162" viewBox="0 0 545 162" fill="none" xmlns="http://www.w3.org/2000/svg">
<path d="M0 40.5L6.47187 47.2711C12.9816 53.7891 26.1146 67.7109 38.9826 77.6461C51.8885 87.9609 64.7188 94.2891 77.9653 81C90.8333 67.7109 103.701 33.5391 116.948 33.7289C129.778 33.5391 142.684 67.7109 155.552 77.6461C168.685 87.9609 181.667 74.0391 194.535 81C207.63 87.9609 220.649 114.539 233.517 104.604C246.537 94.2891 259.632 47.4609 272.5 50.625C285.482 53.7891 298.615 78.4862 311.483 105.254C324.389 132.275 337.219 132.275 350.465 115.379C365.132 99.2064 372.293 92.88 388.065 83.9725C404.703 75.7982 415.184 87.9609 428.052 74.2289C441.185 60.75 454.167 20.25 467.035 13.4789C480.13 6.96094 493.149 33.5391 506.017 37.1461C519.037 40.5 532.132 20.25 538.566 10.125L545 0V162H538.528C532.018 162 518.885 162 506.017 162C493.111 162 480.281 162 467.035 162C454.167 162 441.299 162 428.052 162C415.222 162 402.316 162 389.448 162C376.315 162 363.333 162 350.465 162C337.37 162 324.351 162 311.483 162C298.463 162 285.368 162 272.5 162C259.518 162 246.385 162 233.517 162C220.611 162 207.781 162 194.535 162C181.667 162 168.799 162 155.552 162C142.722 162 129.816 162 116.948 162C103.815 162 90.8333 162 77.9653 162C64.8701 162 51.8507 162 38.9826 162C25.9632 162 12.8681 162 6.43403 162H0V40.5Z" fill="url(#paint0_linear_3_223)"/>
<defs>
<linearGradient id="paint0_linear_3_223" x1="0" y1="0" x2="88.4896" y2="297.697" gradientUnits="userSpaceOnUse">
<stop stop-color="#548EFF" stop-opacity="0.12"/>
<stop offset="1" stop-color="#1463FF" stop-opacity="0"/>
</linearGradient>
</defs>
</svg>
