<svg width="20" height="4" viewBox="0 0 20 4" fill="none" xmlns="http://www.w3.org/2000/svg">
<path d="M11.2288 2C11.2288 2.25959 11.1446 2.51335 10.9868 2.72919C10.8289 2.94503 10.6046 3.11325 10.3422 3.21259C10.0797 3.31193 9.79092 3.33792 9.5123 3.28728C9.23368 3.23664 8.97775 3.11163 8.77688 2.92808C8.57601 2.74452 8.43921 2.51066 8.38379 2.25606C8.32837 2.00146 8.35681 1.73756 8.46553 1.49773C8.57424 1.2579 8.75833 1.05292 8.99454 0.908696C9.23074 0.764476 9.50844 0.6875 9.79251 0.6875C10.1734 0.6875 10.5388 0.825781 10.8081 1.07192C11.0775 1.31806 11.2288 1.6519 11.2288 2ZM17.9317 0.6875C17.6476 0.6875 17.3699 0.764476 17.1337 0.908696C16.8975 1.05292 16.7134 1.2579 16.6047 1.49773C16.496 1.73756 16.4675 2.00146 16.5229 2.25606C16.5784 2.51066 16.7152 2.74452 16.916 2.92808C17.1169 3.11163 17.3728 3.23664 17.6515 3.28728C17.9301 3.33792 18.2189 3.31193 18.4813 3.21259C18.7438 3.11325 18.9681 2.94503 19.1259 2.72919C19.2837 2.51335 19.368 2.25959 19.368 2C19.368 1.6519 19.2167 1.31806 18.9473 1.07192C18.6779 0.825781 18.3126 0.6875 17.9317 0.6875ZM1.65336 0.6875C1.36929 0.6875 1.09159 0.764476 0.855385 0.908696C0.619184 1.05292 0.435087 1.2579 0.326375 1.49773C0.217663 1.73756 0.189219 2.00146 0.24464 2.25606C0.300061 2.51066 0.436857 2.74452 0.63773 2.92808C0.838603 3.11163 1.09453 3.23664 1.37315 3.28728C1.65177 3.33792 1.94057 3.31193 2.20302 3.21259C2.46547 3.11325 2.68979 2.94503 2.84762 2.72919C3.00544 2.51335 3.08968 2.25959 3.08968 2C3.08968 1.6519 2.93836 1.31806 2.66899 1.07192C2.39963 0.825781 2.0343 0.6875 1.65336 0.6875Z" fill="black"/>
</svg>
