<svg width="308" height="127" viewBox="0 0 308 127" fill="none" xmlns="http://www.w3.org/2000/svg">
<path d="M0 32L3.6575 37.2664C7.33639 42.3359 14.7583 53.1641 22.0306 60.8914C29.3242 68.9141 36.575 73.8359 44.0611 63.5C51.3333 53.1641 58.6055 26.5859 66.0917 26.7336C73.3425 26.5859 80.6361 53.1641 87.9083 60.8914C95.3303 68.9141 102.667 58.0859 109.939 63.5C117.339 68.9141 124.697 89.5859 131.969 81.8586C139.327 73.8359 146.728 37.4141 154 39.875C161.336 42.3359 168.758 61.5448 176.031 82.3643C183.324 103.381 190.575 103.381 198.061 90.2393C206.35 77.6606 210.397 72.74 219.31 65.8119C228.713 59.4541 234.636 68.9141 241.908 58.2336C249.33 47.75 256.667 16.25 263.939 10.9836C271.339 5.91406 278.697 26.5859 285.969 29.3914C293.327 32 300.728 16.25 304.364 8.375L308 0.5V126.5H304.342C300.664 126.5 293.242 126.5 285.969 126.5C278.676 126.5 271.425 126.5 263.939 126.5C256.667 126.5 249.394 126.5 241.908 126.5C234.657 126.5 227.364 126.5 220.092 126.5C212.67 126.5 205.333 126.5 198.061 126.5C190.661 126.5 183.303 126.5 176.031 126.5C168.673 126.5 161.272 126.5 154 126.5C146.664 126.5 139.242 126.5 131.969 126.5C124.676 126.5 117.425 126.5 109.939 126.5C102.667 126.5 95.3944 126.5 87.9083 126.5C80.6575 126.5 73.3639 126.5 66.0917 126.5C58.6697 126.5 51.3333 126.5 44.0611 126.5C36.6606 126.5 29.3028 126.5 22.0306 126.5C14.6728 126.5 7.27222 126.5 3.63611 126.5H0V32Z" fill="url(#paint0_linear_3_3699)"/>
<defs>
<linearGradient id="paint0_linear_3_3699" x1="0" y1="0.5" x2="88.3115" y2="216.373" gradientUnits="userSpaceOnUse">
<stop stop-color="#605BFF" stop-opacity="0.22"/>
<stop offset="1" stop-color="#605BFF" stop-opacity="0"/>
</linearGradient>
</defs>
</svg>
