<svg width="545" height="168" viewBox="0 0 545 168" fill="none" xmlns="http://www.w3.org/2000/svg">
<path d="M0 41.8757L6.47187 48.8727C12.9816 55.6081 26.1146 69.9944 38.9826 80.261C51.8885 90.92 64.7188 97.4592 77.9653 83.7268C90.8333 69.9944 103.701 34.6825 116.948 34.8787C129.778 34.6825 142.684 69.9944 155.552 80.261C168.685 90.92 181.667 76.5337 194.535 83.7268C207.63 90.92 220.649 118.385 233.517 108.118C246.537 97.4592 259.632 49.0688 272.5 52.3385C285.482 55.6081 298.615 81.1291 311.483 108.79C324.389 136.713 337.219 136.713 350.465 119.253C365.132 102.541 372.293 96.0032 388.065 86.7985C404.703 78.3514 415.184 90.92 428.052 76.7298C441.185 62.8013 454.167 20.9501 467.035 13.9531C480.13 7.2177 493.149 34.6825 506.017 38.4099C519.037 41.8757 532.132 20.9501 538.566 10.4873L545 0.0245361V167.429H538.528C532.018 167.429 518.885 167.429 506.017 167.429C493.111 167.429 480.281 167.429 467.035 167.429C454.167 167.429 441.299 167.429 428.052 167.429C415.222 167.429 402.316 167.429 389.448 167.429C376.315 167.429 363.333 167.429 350.465 167.429C337.37 167.429 324.351 167.429 311.483 167.429C298.463 167.429 285.368 167.429 272.5 167.429C259.518 167.429 246.385 167.429 233.517 167.429C220.611 167.429 207.781 167.429 194.535 167.429C181.667 167.429 168.799 167.429 155.552 167.429C142.722 167.429 129.816 167.429 116.948 167.429C103.815 167.429 90.8333 167.429 77.9653 167.429C64.8701 167.429 51.8507 167.429 38.9826 167.429C25.9632 167.429 12.8681 167.429 6.43403 167.429H0V41.8757Z" fill="url(#paint0_linear_3_8082)"/>
<defs>
<linearGradient id="paint0_linear_3_8082" x1="0" y1="0.0245361" x2="93.9749" y2="305.968" gradientUnits="userSpaceOnUse">
<stop stop-color="#548EFF" stop-opacity="0.12"/>
<stop offset="1" stop-color="#1463FF" stop-opacity="0"/>
</linearGradient>
</defs>
</svg>
