<svg width="90" height="90" viewBox="0 0 90 90" fill="none" xmlns="http://www.w3.org/2000/svg">
<path fill-rule="evenodd" clip-rule="evenodd" d="M0 45C0 33.0653 4.74106 21.6193 13.1802 13.1802C21.6193 4.74106 33.0653 0 45 0C56.9347 0 68.3807 4.74106 76.8198 13.1802C85.2589 21.6193 90 33.0653 90 45C90 56.9347 85.2589 68.3807 76.8198 76.8198C68.3807 85.2589 56.9347 90 45 90C33.0653 90 21.6193 85.2589 13.1802 76.8198C4.74106 68.3807 0 56.9347 0 45ZM42.432 64.26L68.34 31.872L63.66 28.128L41.568 55.734L25.92 42.696L22.08 47.304L42.432 64.266V64.26Z" fill="#605BFF"/>
</svg>
