<svg width="30" height="30" viewBox="0 0 30 30" fill="none" xmlns="http://www.w3.org/2000/svg">
<path d="M14.9981 0.777832C22.8537 0.777832 29.2218 7.14591 29.2218 15.0015C29.2218 22.8556 22.8537 29.2223 14.9981 29.2223C7.14257 29.2237 0.777344 22.8556 0.777344 15.0015C0.775922 7.14591 7.14257 0.777832 14.9981 0.777832ZM14.9981 2.91095C13.3995 2.89361 11.8132 3.19352 10.3312 3.79331C8.84918 4.39311 7.50084 5.28088 6.36421 6.40524C5.22759 7.5296 4.32525 8.86823 3.70942 10.3437C3.09359 11.8191 2.7765 13.402 2.7765 15.0008C2.7765 16.5995 3.09359 18.1825 3.70942 19.6579C4.32525 21.1333 5.22759 22.4719 6.36421 23.5963C7.50084 24.7207 8.84918 25.6084 10.3312 26.2082C11.8132 26.808 13.3995 27.1079 14.9981 27.0906C18.1818 27.056 21.2234 25.7671 23.4625 23.5036C25.7017 21.24 26.9575 18.1847 26.9575 15.0008C26.9575 11.8169 25.7017 8.76149 23.4625 6.49796C21.2234 4.23443 18.1818 2.94548 14.9981 2.91095ZM14.9925 12.8655C15.2504 12.8652 15.4998 12.9584 15.6943 13.1278C15.8889 13.2972 16.0154 13.5314 16.0505 13.787L16.0604 13.9321L16.0661 21.7564C16.0689 22.0285 15.9675 22.2914 15.7827 22.4913C15.598 22.6911 15.3438 22.8127 15.0723 22.8313C14.8007 22.8498 14.5324 22.7639 14.3222 22.591C14.112 22.4181 13.9758 22.1714 13.9415 21.9014L13.933 21.7578L13.9273 13.9335C13.9273 13.6506 14.0397 13.3793 14.2397 13.1793C14.4397 12.9793 14.711 12.8669 14.9939 12.8669L14.9925 12.8655ZM14.9996 7.8925C15.1898 7.88648 15.3793 7.91875 15.5569 7.9874C15.7344 8.05605 15.8963 8.15967 16.033 8.29212C16.1698 8.42457 16.2785 8.58314 16.3527 8.75842C16.4269 8.93369 16.4652 9.1221 16.4652 9.31244C16.4652 9.50279 16.4269 9.6912 16.3527 9.86647C16.2785 10.0417 16.1698 10.2003 16.033 10.3328C15.8963 10.4652 15.7344 10.5688 15.5569 10.6375C15.3793 10.7061 15.1898 10.7384 14.9996 10.7324C14.6308 10.7207 14.2809 10.566 14.0242 10.301C13.7674 10.036 13.6238 9.68144 13.6238 9.31244C13.6238 8.94344 13.7674 8.58892 14.0242 8.3239C14.2809 8.05889 14.6308 7.90417 14.9996 7.8925Z" fill="#8D8D8D"/>
</svg>
