<svg width="22" height="22" viewBox="0 0 22 22" fill="none" xmlns="http://www.w3.org/2000/svg">
<path d="M6.12684 0C6.32734 0 6.51964 0.0796498 6.66141 0.221427C6.80319 0.363205 6.88284 0.555496 6.88284 0.756V2.16972H15.0012V0.76572C15.0012 0.565216 15.0809 0.372925 15.2226 0.231147C15.3644 0.0893698 15.5567 0.00972 15.7572 0.00972C15.9577 0.00972 16.15 0.0893698 16.2918 0.231147C16.4336 0.372925 16.5132 0.565216 16.5132 0.76572V2.16972H19.44C20.0127 2.16972 20.5619 2.39714 20.967 2.80199C21.372 3.20683 21.5997 3.75596 21.6 4.32864V19.4411C21.5997 20.0138 21.372 20.5629 20.967 20.9677C20.5619 21.3726 20.0127 21.6 19.44 21.6H2.16C1.58732 21.6 1.03808 21.3726 0.633031 20.9677C0.227984 20.5629 0.00028634 20.0138 0 19.4411L0 4.32864C0.00028634 3.75596 0.227984 3.20683 0.633031 2.80199C1.03808 2.39714 1.58732 2.16972 2.16 2.16972H5.37084V0.75492C5.37113 0.554604 5.4509 0.362589 5.59265 0.221045C5.7344 0.0795013 5.92652 -2.04405e-07 6.12684 0ZM1.512 8.36136V19.4411C1.512 19.5262 1.52876 19.6104 1.56133 19.6891C1.59389 19.7677 1.64162 19.8391 1.70179 19.8993C1.76197 19.9595 1.8334 20.0072 1.91202 20.0398C1.99064 20.0723 2.0749 20.0891 2.16 20.0891H19.44C19.5251 20.0891 19.6094 20.0723 19.688 20.0398C19.7666 20.0072 19.838 19.9595 19.8982 19.8993C19.9584 19.8391 20.0061 19.7677 20.0387 19.6891C20.0712 19.6104 20.088 19.5262 20.088 19.4411V8.37648L1.512 8.36136ZM7.20036 15.7885V17.5878H5.4V15.7885H7.20036ZM11.6996 15.7885V17.5878H9.90036V15.7885H11.6996ZM16.2 15.7885V17.5878H14.3996V15.7885H16.2ZM7.20036 11.4934V13.2926H5.4V11.4934H7.20036ZM11.6996 11.4934V13.2926H9.90036V11.4934H11.6996ZM16.2 11.4934V13.2926H14.3996V11.4934H16.2ZM5.37084 3.68064H2.16C2.0749 3.68064 1.99064 3.6974 1.91202 3.72997C1.8334 3.76253 1.76197 3.81026 1.70179 3.87043C1.64162 3.93061 1.59389 4.00204 1.56133 4.08066C1.52876 4.15928 1.512 4.24354 1.512 4.32864V6.85044L20.088 6.86556V4.32864C20.088 4.24354 20.0712 4.15928 20.0387 4.08066C20.0061 4.00204 19.9584 3.93061 19.8982 3.87043C19.838 3.81026 19.7666 3.76253 19.688 3.72997C19.6094 3.6974 19.5251 3.68064 19.44 3.68064H16.5132V4.68396C16.5132 4.88446 16.4336 5.07676 16.2918 5.21853C16.15 5.36031 15.9577 5.43996 15.7572 5.43996C15.5567 5.43996 15.3644 5.36031 15.2226 5.21853C15.0809 5.07676 15.0012 4.88446 15.0012 4.68396V3.68064H6.88284V4.67424C6.88284 4.87474 6.80319 5.06704 6.66141 5.20881C6.51964 5.35059 6.32734 5.43024 6.12684 5.43024C5.92634 5.43024 5.73404 5.35059 5.59227 5.20881C5.45049 5.06704 5.37084 4.87474 5.37084 4.67424V3.68064Z" fill="#8D8D8D"/>
</svg>
