<svg width="557" height="149" viewBox="0 0 557 149" fill="none" xmlns="http://www.w3.org/2000/svg">
<g filter="url(#filter0_d_3_8083)">
<path d="M6 46.0518L12.4719 53.4335C18.9816 60.5391 32.1146 75.7163 44.9826 86.5472C57.8885 97.7921 70.7187 104.691 83.9653 90.2036C96.8333 75.7163 109.701 38.4633 122.948 38.6702C135.778 38.4633 148.684 75.7163 161.552 86.5472C174.685 97.7921 187.667 82.615 200.535 90.2036C213.63 97.7921 226.649 126.767 239.517 115.936C252.537 104.691 265.632 53.6404 278.5 57.0898C291.482 60.5391 304.615 87.4631 317.483 116.645C330.389 146.102 343.219 146.102 356.465 127.682C371.132 110.052 378.293 103.155 394.065 93.444C410.703 84.5327 421.184 97.7921 434.052 82.8219C447.185 68.1277 460.167 23.976 473.035 16.5944C486.13 9.48872 499.149 38.4633 512.017 42.3955C525.037 46.0518 538.132 23.976 544.566 12.9381L551 1.90015" stroke="#605BFF" stroke-width="3.42183" stroke-linecap="round"/>
</g>
<defs>
<filter id="filter0_d_3_8083" x="0.867232" y="0.188965" width="555.266" height="148.724" filterUnits="userSpaceOnUse" color-interpolation-filters="sRGB">
<feFlood flood-opacity="0" result="BackgroundImageFix"/>
<feColorMatrix in="SourceAlpha" type="matrix" values="0 0 0 0 0 0 0 0 0 0 0 0 0 0 0 0 0 0 127 0" result="hardAlpha"/>
<feOffset dy="3.42183"/>
<feGaussianBlur stdDeviation="1.71092"/>
<feColorMatrix type="matrix" values="0 0 0 0 0.329412 0 0 0 0 0.556863 0 0 0 0 1 0 0 0 0.15 0"/>
<feBlend mode="normal" in2="BackgroundImageFix" result="effect1_dropShadow_3_8083"/>
<feBlend mode="normal" in="SourceGraphic" in2="effect1_dropShadow_3_8083" result="shape"/>
</filter>
</defs>
</svg>
